<mxfile host="app.diagrams.net" agent="Mozilla/5.0 (Windows NT 10.0; Win64; x64) AppleWebKit/537.36 (KHTML, like Gecko) Chrome/141.0.0.0 Safari/537.36 Edg/141.0.0.0" version="28.2.8" pages="2">
  <diagram name="Page-1" id="9zcao2POnBsEuUNefQDV">
    <mxGraphModel dx="3311" dy="756" grid="1" gridSize="10" guides="1" tooltips="1" connect="1" arrows="1" fold="1" page="1" pageScale="1" pageWidth="827" pageHeight="1169" math="0" shadow="0">
      <root>
        <mxCell id="0" />
        <mxCell id="1" parent="0" />
        <mxCell id="Q81MRmjj6C1oXA7TaWA5-28" value="doctor" style="shape=table;startSize=30;container=1;collapsible=1;childLayout=tableLayout;fixedRows=1;rowLines=0;fontStyle=1;align=center;resizeLast=1;html=1;spacing=2;" parent="1" vertex="1">
          <mxGeometry x="-1090" y="20" width="203.81" height="230" as="geometry" />
        </mxCell>
        <mxCell id="EhNRVE4hJLv5afDKUUhh-156" value="" style="shape=tableRow;horizontal=0;startSize=0;swimlaneHead=0;swimlaneBody=0;fillColor=none;collapsible=0;dropTarget=0;points=[[0,0.5],[1,0.5]];portConstraint=eastwest;top=0;left=0;right=0;bottom=0;" parent="Q81MRmjj6C1oXA7TaWA5-28" vertex="1">
          <mxGeometry y="30" width="203.81" height="30" as="geometry" />
        </mxCell>
        <mxCell id="EhNRVE4hJLv5afDKUUhh-157" value="FK" style="shape=partialRectangle;connectable=0;fillColor=none;top=0;left=0;bottom=0;right=0;editable=1;overflow=hidden;" parent="EhNRVE4hJLv5afDKUUhh-156" vertex="1">
          <mxGeometry width="30" height="30" as="geometry">
            <mxRectangle width="30" height="30" as="alternateBounds" />
          </mxGeometry>
        </mxCell>
        <mxCell id="EhNRVE4hJLv5afDKUUhh-158" value="id: uuid" style="shape=partialRectangle;connectable=0;fillColor=none;top=0;left=0;bottom=0;right=0;align=left;spacingLeft=6;overflow=hidden;" parent="EhNRVE4hJLv5afDKUUhh-156" vertex="1">
          <mxGeometry x="30" width="173.81" height="30" as="geometry">
            <mxRectangle width="173.81" height="30" as="alternateBounds" />
          </mxGeometry>
        </mxCell>
        <mxCell id="Q81MRmjj6C1oXA7TaWA5-32" value="" style="shape=tableRow;horizontal=0;startSize=0;swimlaneHead=0;swimlaneBody=0;fillColor=none;collapsible=0;dropTarget=0;points=[[0,0.5],[1,0.5]];portConstraint=eastwest;top=0;left=0;right=0;bottom=0;spacing=2;" parent="Q81MRmjj6C1oXA7TaWA5-28" vertex="1">
          <mxGeometry y="60" width="203.81" height="20" as="geometry" />
        </mxCell>
        <mxCell id="Q81MRmjj6C1oXA7TaWA5-33" value="" style="shape=partialRectangle;connectable=0;fillColor=none;top=0;left=0;bottom=0;right=0;editable=1;overflow=hidden;whiteSpace=wrap;html=1;spacing=2;" parent="Q81MRmjj6C1oXA7TaWA5-32" vertex="1">
          <mxGeometry width="30" height="20" as="geometry">
            <mxRectangle width="30" height="20" as="alternateBounds" />
          </mxGeometry>
        </mxCell>
        <mxCell id="Q81MRmjj6C1oXA7TaWA5-34" value="first_name : varchar" style="shape=partialRectangle;connectable=0;fillColor=none;top=0;left=0;bottom=0;right=0;align=left;spacingLeft=6;overflow=hidden;whiteSpace=wrap;html=1;spacing=2;" parent="Q81MRmjj6C1oXA7TaWA5-32" vertex="1">
          <mxGeometry x="30" width="173.81" height="20" as="geometry">
            <mxRectangle width="173.81" height="20" as="alternateBounds" />
          </mxGeometry>
        </mxCell>
        <mxCell id="EhNRVE4hJLv5afDKUUhh-250" value="" style="shape=tableRow;horizontal=0;startSize=0;swimlaneHead=0;swimlaneBody=0;fillColor=none;collapsible=0;dropTarget=0;points=[[0,0.5],[1,0.5]];portConstraint=eastwest;top=0;left=0;right=0;bottom=0;" parent="Q81MRmjj6C1oXA7TaWA5-28" vertex="1">
          <mxGeometry y="80" width="203.81" height="30" as="geometry" />
        </mxCell>
        <mxCell id="EhNRVE4hJLv5afDKUUhh-251" value="" style="shape=partialRectangle;connectable=0;fillColor=none;top=0;left=0;bottom=0;right=0;editable=1;overflow=hidden;" parent="EhNRVE4hJLv5afDKUUhh-250" vertex="1">
          <mxGeometry width="30" height="30" as="geometry">
            <mxRectangle width="30" height="30" as="alternateBounds" />
          </mxGeometry>
        </mxCell>
        <mxCell id="EhNRVE4hJLv5afDKUUhh-252" value="last_name: varchar" style="shape=partialRectangle;connectable=0;fillColor=none;top=0;left=0;bottom=0;right=0;align=left;spacingLeft=6;overflow=hidden;" parent="EhNRVE4hJLv5afDKUUhh-250" vertex="1">
          <mxGeometry x="30" width="173.81" height="30" as="geometry">
            <mxRectangle width="173.81" height="30" as="alternateBounds" />
          </mxGeometry>
        </mxCell>
        <mxCell id="Q81MRmjj6C1oXA7TaWA5-35" style="shape=tableRow;horizontal=0;startSize=0;swimlaneHead=0;swimlaneBody=0;fillColor=none;collapsible=0;dropTarget=0;points=[[0,0.5],[1,0.5]];portConstraint=eastwest;top=0;left=0;right=0;bottom=0;spacing=2;" parent="Q81MRmjj6C1oXA7TaWA5-28" vertex="1">
          <mxGeometry y="110" width="203.81" height="20" as="geometry" />
        </mxCell>
        <mxCell id="Q81MRmjj6C1oXA7TaWA5-36" style="shape=partialRectangle;connectable=0;fillColor=none;top=0;left=0;bottom=0;right=0;editable=1;overflow=hidden;whiteSpace=wrap;html=1;spacing=2;" parent="Q81MRmjj6C1oXA7TaWA5-35" vertex="1">
          <mxGeometry width="30" height="20" as="geometry">
            <mxRectangle width="30" height="20" as="alternateBounds" />
          </mxGeometry>
        </mxCell>
        <mxCell id="Q81MRmjj6C1oXA7TaWA5-37" value="image: varchar" style="shape=partialRectangle;connectable=0;fillColor=none;top=0;left=0;bottom=0;right=0;align=left;spacingLeft=6;overflow=hidden;whiteSpace=wrap;html=1;spacing=2;" parent="Q81MRmjj6C1oXA7TaWA5-35" vertex="1">
          <mxGeometry x="30" width="173.81" height="20" as="geometry">
            <mxRectangle width="173.81" height="20" as="alternateBounds" />
          </mxGeometry>
        </mxCell>
        <mxCell id="Q81MRmjj6C1oXA7TaWA5-38" style="shape=tableRow;horizontal=0;startSize=0;swimlaneHead=0;swimlaneBody=0;fillColor=none;collapsible=0;dropTarget=0;points=[[0,0.5],[1,0.5]];portConstraint=eastwest;top=0;left=0;right=0;bottom=0;spacing=2;" parent="Q81MRmjj6C1oXA7TaWA5-28" vertex="1">
          <mxGeometry y="130" width="203.81" height="20" as="geometry" />
        </mxCell>
        <mxCell id="Q81MRmjj6C1oXA7TaWA5-39" style="shape=partialRectangle;connectable=0;fillColor=none;top=0;left=0;bottom=0;right=0;editable=1;overflow=hidden;whiteSpace=wrap;html=1;spacing=2;" parent="Q81MRmjj6C1oXA7TaWA5-38" vertex="1">
          <mxGeometry width="30" height="20" as="geometry">
            <mxRectangle width="30" height="20" as="alternateBounds" />
          </mxGeometry>
        </mxCell>
        <mxCell id="Q81MRmjj6C1oXA7TaWA5-40" value="date_of_birth: Date" style="shape=partialRectangle;connectable=0;fillColor=none;top=0;left=0;bottom=0;right=0;align=left;spacingLeft=6;overflow=hidden;whiteSpace=wrap;html=1;spacing=2;" parent="Q81MRmjj6C1oXA7TaWA5-38" vertex="1">
          <mxGeometry x="30" width="173.81" height="20" as="geometry">
            <mxRectangle width="173.81" height="20" as="alternateBounds" />
          </mxGeometry>
        </mxCell>
        <mxCell id="Q81MRmjj6C1oXA7TaWA5-44" style="shape=tableRow;horizontal=0;startSize=0;swimlaneHead=0;swimlaneBody=0;fillColor=none;collapsible=0;dropTarget=0;points=[[0,0.5],[1,0.5]];portConstraint=eastwest;top=0;left=0;right=0;bottom=0;spacing=2;" parent="Q81MRmjj6C1oXA7TaWA5-28" vertex="1">
          <mxGeometry y="150" width="203.81" height="20" as="geometry" />
        </mxCell>
        <mxCell id="Q81MRmjj6C1oXA7TaWA5-45" value="FK" style="shape=partialRectangle;connectable=0;fillColor=none;top=0;left=0;bottom=0;right=0;editable=1;overflow=hidden;whiteSpace=wrap;html=1;spacing=2;" parent="Q81MRmjj6C1oXA7TaWA5-44" vertex="1">
          <mxGeometry width="30" height="20" as="geometry">
            <mxRectangle width="30" height="20" as="alternateBounds" />
          </mxGeometry>
        </mxCell>
        <mxCell id="Q81MRmjj6C1oXA7TaWA5-46" value="specialization: uuid" style="shape=partialRectangle;connectable=0;fillColor=none;top=0;left=0;bottom=0;right=0;align=left;spacingLeft=6;overflow=hidden;whiteSpace=wrap;html=1;spacing=2;" parent="Q81MRmjj6C1oXA7TaWA5-44" vertex="1">
          <mxGeometry x="30" width="173.81" height="20" as="geometry">
            <mxRectangle width="173.81" height="20" as="alternateBounds" />
          </mxGeometry>
        </mxCell>
        <mxCell id="EhNRVE4hJLv5afDKUUhh-160" value="" style="shape=tableRow;horizontal=0;startSize=0;swimlaneHead=0;swimlaneBody=0;fillColor=none;collapsible=0;dropTarget=0;points=[[0,0.5],[1,0.5]];portConstraint=eastwest;top=0;left=0;right=0;bottom=0;" parent="Q81MRmjj6C1oXA7TaWA5-28" vertex="1">
          <mxGeometry y="170" width="203.81" height="30" as="geometry" />
        </mxCell>
        <mxCell id="EhNRVE4hJLv5afDKUUhh-161" value="FK" style="shape=partialRectangle;connectable=0;fillColor=none;top=0;left=0;bottom=0;right=0;editable=1;overflow=hidden;" parent="EhNRVE4hJLv5afDKUUhh-160" vertex="1">
          <mxGeometry width="30" height="30" as="geometry">
            <mxRectangle width="30" height="30" as="alternateBounds" />
          </mxGeometry>
        </mxCell>
        <mxCell id="EhNRVE4hJLv5afDKUUhh-162" value="staff_role_id" style="shape=partialRectangle;connectable=0;fillColor=none;top=0;left=0;bottom=0;right=0;align=left;spacingLeft=6;overflow=hidden;" parent="EhNRVE4hJLv5afDKUUhh-160" vertex="1">
          <mxGeometry x="30" width="173.81" height="30" as="geometry">
            <mxRectangle width="173.81" height="30" as="alternateBounds" />
          </mxGeometry>
        </mxCell>
        <mxCell id="EhNRVE4hJLv5afDKUUhh-164" value="" style="shape=tableRow;horizontal=0;startSize=0;swimlaneHead=0;swimlaneBody=0;fillColor=none;collapsible=0;dropTarget=0;points=[[0,0.5],[1,0.5]];portConstraint=eastwest;top=0;left=0;right=0;bottom=0;" parent="Q81MRmjj6C1oXA7TaWA5-28" vertex="1">
          <mxGeometry y="200" width="203.81" height="30" as="geometry" />
        </mxCell>
        <mxCell id="EhNRVE4hJLv5afDKUUhh-165" value="FK" style="shape=partialRectangle;connectable=0;fillColor=none;top=0;left=0;bottom=0;right=0;editable=1;overflow=hidden;" parent="EhNRVE4hJLv5afDKUUhh-164" vertex="1">
          <mxGeometry width="30" height="30" as="geometry">
            <mxRectangle width="30" height="30" as="alternateBounds" />
          </mxGeometry>
        </mxCell>
        <mxCell id="EhNRVE4hJLv5afDKUUhh-166" value="gender_id" style="shape=partialRectangle;connectable=0;fillColor=none;top=0;left=0;bottom=0;right=0;align=left;spacingLeft=6;overflow=hidden;" parent="EhNRVE4hJLv5afDKUUhh-164" vertex="1">
          <mxGeometry x="30" width="173.81" height="30" as="geometry">
            <mxRectangle width="173.81" height="30" as="alternateBounds" />
          </mxGeometry>
        </mxCell>
        <mxCell id="Q81MRmjj6C1oXA7TaWA5-50" value="appointment" style="shape=table;startSize=30;container=1;collapsible=1;childLayout=tableLayout;fixedRows=1;rowLines=0;fontStyle=1;align=center;resizeLast=1;html=1;spacing=2;" parent="1" vertex="1">
          <mxGeometry x="-270.00000000000006" y="40" width="203.80999999999995" height="190" as="geometry" />
        </mxCell>
        <mxCell id="Q81MRmjj6C1oXA7TaWA5-51" value="" style="shape=tableRow;horizontal=0;startSize=0;swimlaneHead=0;swimlaneBody=0;fillColor=none;collapsible=0;dropTarget=0;points=[[0,0.5],[1,0.5]];portConstraint=eastwest;top=0;left=0;right=0;bottom=1;spacing=2;" parent="Q81MRmjj6C1oXA7TaWA5-50" vertex="1">
          <mxGeometry y="30" width="203.80999999999995" height="20" as="geometry" />
        </mxCell>
        <mxCell id="Q81MRmjj6C1oXA7TaWA5-52" value="PK" style="shape=partialRectangle;connectable=0;fillColor=none;top=0;left=0;bottom=0;right=0;fontStyle=1;overflow=hidden;whiteSpace=wrap;html=1;spacing=2;" parent="Q81MRmjj6C1oXA7TaWA5-51" vertex="1">
          <mxGeometry width="30" height="20" as="geometry">
            <mxRectangle width="30" height="20" as="alternateBounds" />
          </mxGeometry>
        </mxCell>
        <mxCell id="Q81MRmjj6C1oXA7TaWA5-53" value="id: UniqueID" style="shape=partialRectangle;connectable=0;fillColor=none;top=0;left=0;bottom=0;right=0;align=left;spacingLeft=6;fontStyle=5;overflow=hidden;whiteSpace=wrap;html=1;spacing=2;" parent="Q81MRmjj6C1oXA7TaWA5-51" vertex="1">
          <mxGeometry x="30" width="173.80999999999995" height="20" as="geometry">
            <mxRectangle width="173.80999999999995" height="20" as="alternateBounds" />
          </mxGeometry>
        </mxCell>
        <mxCell id="Q81MRmjj6C1oXA7TaWA5-54" value="" style="shape=tableRow;horizontal=0;startSize=0;swimlaneHead=0;swimlaneBody=0;fillColor=none;collapsible=0;dropTarget=0;points=[[0,0.5],[1,0.5]];portConstraint=eastwest;top=0;left=0;right=0;bottom=0;spacing=2;" parent="Q81MRmjj6C1oXA7TaWA5-50" vertex="1">
          <mxGeometry y="50" width="203.80999999999995" height="20" as="geometry" />
        </mxCell>
        <mxCell id="Q81MRmjj6C1oXA7TaWA5-55" value="FK" style="shape=partialRectangle;connectable=0;fillColor=none;top=0;left=0;bottom=0;right=0;editable=1;overflow=hidden;whiteSpace=wrap;html=1;spacing=2;" parent="Q81MRmjj6C1oXA7TaWA5-54" vertex="1">
          <mxGeometry width="30" height="20" as="geometry">
            <mxRectangle width="30" height="20" as="alternateBounds" />
          </mxGeometry>
        </mxCell>
        <mxCell id="Q81MRmjj6C1oXA7TaWA5-56" value="doctor_id : uuid" style="shape=partialRectangle;connectable=0;fillColor=none;top=0;left=0;bottom=0;right=0;align=left;spacingLeft=6;overflow=hidden;whiteSpace=wrap;html=1;spacing=2;" parent="Q81MRmjj6C1oXA7TaWA5-54" vertex="1">
          <mxGeometry x="30" width="173.80999999999995" height="20" as="geometry">
            <mxRectangle width="173.80999999999995" height="20" as="alternateBounds" />
          </mxGeometry>
        </mxCell>
        <mxCell id="Q81MRmjj6C1oXA7TaWA5-57" style="shape=tableRow;horizontal=0;startSize=0;swimlaneHead=0;swimlaneBody=0;fillColor=none;collapsible=0;dropTarget=0;points=[[0,0.5],[1,0.5]];portConstraint=eastwest;top=0;left=0;right=0;bottom=0;spacing=2;" parent="Q81MRmjj6C1oXA7TaWA5-50" vertex="1">
          <mxGeometry y="70" width="203.80999999999995" height="20" as="geometry" />
        </mxCell>
        <mxCell id="Q81MRmjj6C1oXA7TaWA5-58" value="FK" style="shape=partialRectangle;connectable=0;fillColor=none;top=0;left=0;bottom=0;right=0;editable=1;overflow=hidden;whiteSpace=wrap;html=1;spacing=2;" parent="Q81MRmjj6C1oXA7TaWA5-57" vertex="1">
          <mxGeometry width="30" height="20" as="geometry">
            <mxRectangle width="30" height="20" as="alternateBounds" />
          </mxGeometry>
        </mxCell>
        <mxCell id="Q81MRmjj6C1oXA7TaWA5-59" value="clinic_id: uuid" style="shape=partialRectangle;connectable=0;fillColor=none;top=0;left=0;bottom=0;right=0;align=left;spacingLeft=6;overflow=hidden;whiteSpace=wrap;html=1;spacing=2;" parent="Q81MRmjj6C1oXA7TaWA5-57" vertex="1">
          <mxGeometry x="30" width="173.80999999999995" height="20" as="geometry">
            <mxRectangle width="173.80999999999995" height="20" as="alternateBounds" />
          </mxGeometry>
        </mxCell>
        <mxCell id="Q81MRmjj6C1oXA7TaWA5-69" value="" style="shape=tableRow;horizontal=0;startSize=0;swimlaneHead=0;swimlaneBody=0;fillColor=none;collapsible=0;dropTarget=0;points=[[0,0.5],[1,0.5]];portConstraint=eastwest;top=0;left=0;right=0;bottom=0;spacing=2;" parent="Q81MRmjj6C1oXA7TaWA5-50" vertex="1">
          <mxGeometry y="90" width="203.80999999999995" height="20" as="geometry" />
        </mxCell>
        <mxCell id="Q81MRmjj6C1oXA7TaWA5-70" value="FK" style="shape=partialRectangle;connectable=0;fillColor=none;top=0;left=0;bottom=0;right=0;editable=1;overflow=hidden;whiteSpace=wrap;html=1;spacing=2;" parent="Q81MRmjj6C1oXA7TaWA5-69" vertex="1">
          <mxGeometry width="30" height="20" as="geometry">
            <mxRectangle width="30" height="20" as="alternateBounds" />
          </mxGeometry>
        </mxCell>
        <mxCell id="Q81MRmjj6C1oXA7TaWA5-71" value="patient_id : uuid" style="shape=partialRectangle;connectable=0;fillColor=none;top=0;left=0;bottom=0;right=0;align=left;spacingLeft=6;overflow=hidden;whiteSpace=wrap;html=1;spacing=2;" parent="Q81MRmjj6C1oXA7TaWA5-69" vertex="1">
          <mxGeometry x="30" width="173.80999999999995" height="20" as="geometry">
            <mxRectangle width="173.80999999999995" height="20" as="alternateBounds" />
          </mxGeometry>
        </mxCell>
        <mxCell id="Q81MRmjj6C1oXA7TaWA5-60" style="shape=tableRow;horizontal=0;startSize=0;swimlaneHead=0;swimlaneBody=0;fillColor=none;collapsible=0;dropTarget=0;points=[[0,0.5],[1,0.5]];portConstraint=eastwest;top=0;left=0;right=0;bottom=0;spacing=2;" parent="Q81MRmjj6C1oXA7TaWA5-50" vertex="1">
          <mxGeometry y="110" width="203.80999999999995" height="20" as="geometry" />
        </mxCell>
        <mxCell id="Q81MRmjj6C1oXA7TaWA5-61" style="shape=partialRectangle;connectable=0;fillColor=none;top=0;left=0;bottom=0;right=0;editable=1;overflow=hidden;whiteSpace=wrap;html=1;spacing=2;" parent="Q81MRmjj6C1oXA7TaWA5-60" vertex="1">
          <mxGeometry width="30" height="20" as="geometry">
            <mxRectangle width="30" height="20" as="alternateBounds" />
          </mxGeometry>
        </mxCell>
        <mxCell id="Q81MRmjj6C1oXA7TaWA5-62" value="date: Timestamp" style="shape=partialRectangle;connectable=0;fillColor=none;top=0;left=0;bottom=0;right=0;align=left;spacingLeft=6;overflow=hidden;whiteSpace=wrap;html=1;spacing=2;" parent="Q81MRmjj6C1oXA7TaWA5-60" vertex="1">
          <mxGeometry x="30" width="173.80999999999995" height="20" as="geometry">
            <mxRectangle width="173.80999999999995" height="20" as="alternateBounds" />
          </mxGeometry>
        </mxCell>
        <mxCell id="R1laoW-MmmunqDyPFdKA-1" value="" style="shape=tableRow;horizontal=0;startSize=0;swimlaneHead=0;swimlaneBody=0;fillColor=none;collapsible=0;dropTarget=0;points=[[0,0.5],[1,0.5]];portConstraint=eastwest;top=0;left=0;right=0;bottom=0;" vertex="1" parent="Q81MRmjj6C1oXA7TaWA5-50">
          <mxGeometry y="130" width="203.80999999999995" height="30" as="geometry" />
        </mxCell>
        <mxCell id="R1laoW-MmmunqDyPFdKA-2" value="" style="shape=partialRectangle;connectable=0;fillColor=none;top=0;left=0;bottom=0;right=0;editable=1;overflow=hidden;" vertex="1" parent="R1laoW-MmmunqDyPFdKA-1">
          <mxGeometry width="30" height="30" as="geometry">
            <mxRectangle width="30" height="30" as="alternateBounds" />
          </mxGeometry>
        </mxCell>
        <mxCell id="R1laoW-MmmunqDyPFdKA-3" value="created_at: Timestamp" style="shape=partialRectangle;connectable=0;fillColor=none;top=0;left=0;bottom=0;right=0;align=left;spacingLeft=6;overflow=hidden;" vertex="1" parent="R1laoW-MmmunqDyPFdKA-1">
          <mxGeometry x="30" width="173.80999999999995" height="30" as="geometry">
            <mxRectangle width="173.80999999999995" height="30" as="alternateBounds" />
          </mxGeometry>
        </mxCell>
        <mxCell id="EhNRVE4hJLv5afDKUUhh-257" value="" style="shape=tableRow;horizontal=0;startSize=0;swimlaneHead=0;swimlaneBody=0;fillColor=none;collapsible=0;dropTarget=0;points=[[0,0.5],[1,0.5]];portConstraint=eastwest;top=0;left=0;right=0;bottom=0;" parent="Q81MRmjj6C1oXA7TaWA5-50" vertex="1">
          <mxGeometry y="160" width="203.80999999999995" height="30" as="geometry" />
        </mxCell>
        <mxCell id="EhNRVE4hJLv5afDKUUhh-258" value="FK" style="shape=partialRectangle;connectable=0;fillColor=none;top=0;left=0;bottom=0;right=0;editable=1;overflow=hidden;" parent="EhNRVE4hJLv5afDKUUhh-257" vertex="1">
          <mxGeometry width="30" height="30" as="geometry">
            <mxRectangle width="30" height="30" as="alternateBounds" />
          </mxGeometry>
        </mxCell>
        <mxCell id="EhNRVE4hJLv5afDKUUhh-259" value="status_id: uuid" style="shape=partialRectangle;connectable=0;fillColor=none;top=0;left=0;bottom=0;right=0;align=left;spacingLeft=6;overflow=hidden;" parent="EhNRVE4hJLv5afDKUUhh-257" vertex="1">
          <mxGeometry x="30" width="173.80999999999995" height="30" as="geometry">
            <mxRectangle width="173.80999999999995" height="30" as="alternateBounds" />
          </mxGeometry>
        </mxCell>
        <mxCell id="Q81MRmjj6C1oXA7TaWA5-91" value="clinic" style="shape=table;startSize=30;container=1;collapsible=1;childLayout=tableLayout;fixedRows=1;rowLines=0;fontStyle=1;align=center;resizeLast=1;html=1;spacing=2;" parent="1" vertex="1">
          <mxGeometry x="-606.1800000000001" y="320" width="203.80999999999995" height="190" as="geometry" />
        </mxCell>
        <mxCell id="Q81MRmjj6C1oXA7TaWA5-92" value="" style="shape=tableRow;horizontal=0;startSize=0;swimlaneHead=0;swimlaneBody=0;fillColor=none;collapsible=0;dropTarget=0;points=[[0,0.5],[1,0.5]];portConstraint=eastwest;top=0;left=0;right=0;bottom=1;spacing=2;" parent="Q81MRmjj6C1oXA7TaWA5-91" vertex="1">
          <mxGeometry y="30" width="203.80999999999995" height="20" as="geometry" />
        </mxCell>
        <mxCell id="Q81MRmjj6C1oXA7TaWA5-93" value="PK" style="shape=partialRectangle;connectable=0;fillColor=none;top=0;left=0;bottom=0;right=0;fontStyle=1;overflow=hidden;whiteSpace=wrap;html=1;spacing=2;" parent="Q81MRmjj6C1oXA7TaWA5-92" vertex="1">
          <mxGeometry width="30" height="20" as="geometry">
            <mxRectangle width="30" height="20" as="alternateBounds" />
          </mxGeometry>
        </mxCell>
        <mxCell id="Q81MRmjj6C1oXA7TaWA5-94" value="id: uuid" style="shape=partialRectangle;connectable=0;fillColor=none;top=0;left=0;bottom=0;right=0;align=left;spacingLeft=6;fontStyle=5;overflow=hidden;whiteSpace=wrap;html=1;spacing=2;" parent="Q81MRmjj6C1oXA7TaWA5-92" vertex="1">
          <mxGeometry x="30" width="173.80999999999995" height="20" as="geometry">
            <mxRectangle width="173.80999999999995" height="20" as="alternateBounds" />
          </mxGeometry>
        </mxCell>
        <mxCell id="Q81MRmjj6C1oXA7TaWA5-95" value="" style="shape=tableRow;horizontal=0;startSize=0;swimlaneHead=0;swimlaneBody=0;fillColor=none;collapsible=0;dropTarget=0;points=[[0,0.5],[1,0.5]];portConstraint=eastwest;top=0;left=0;right=0;bottom=0;spacing=2;" parent="Q81MRmjj6C1oXA7TaWA5-91" vertex="1">
          <mxGeometry y="50" width="203.80999999999995" height="20" as="geometry" />
        </mxCell>
        <mxCell id="Q81MRmjj6C1oXA7TaWA5-96" value="" style="shape=partialRectangle;connectable=0;fillColor=none;top=0;left=0;bottom=0;right=0;editable=1;overflow=hidden;whiteSpace=wrap;html=1;spacing=2;" parent="Q81MRmjj6C1oXA7TaWA5-95" vertex="1">
          <mxGeometry width="30" height="20" as="geometry">
            <mxRectangle width="30" height="20" as="alternateBounds" />
          </mxGeometry>
        </mxCell>
        <mxCell id="Q81MRmjj6C1oXA7TaWA5-97" value="name : varchar" style="shape=partialRectangle;connectable=0;fillColor=none;top=0;left=0;bottom=0;right=0;align=left;spacingLeft=6;overflow=hidden;whiteSpace=wrap;html=1;spacing=2;" parent="Q81MRmjj6C1oXA7TaWA5-95" vertex="1">
          <mxGeometry x="30" width="173.80999999999995" height="20" as="geometry">
            <mxRectangle width="173.80999999999995" height="20" as="alternateBounds" />
          </mxGeometry>
        </mxCell>
        <mxCell id="Q81MRmjj6C1oXA7TaWA5-98" style="shape=tableRow;horizontal=0;startSize=0;swimlaneHead=0;swimlaneBody=0;fillColor=none;collapsible=0;dropTarget=0;points=[[0,0.5],[1,0.5]];portConstraint=eastwest;top=0;left=0;right=0;bottom=0;spacing=2;" parent="Q81MRmjj6C1oXA7TaWA5-91" vertex="1">
          <mxGeometry y="70" width="203.80999999999995" height="20" as="geometry" />
        </mxCell>
        <mxCell id="Q81MRmjj6C1oXA7TaWA5-99" style="shape=partialRectangle;connectable=0;fillColor=none;top=0;left=0;bottom=0;right=0;editable=1;overflow=hidden;whiteSpace=wrap;html=1;spacing=2;" parent="Q81MRmjj6C1oXA7TaWA5-98" vertex="1">
          <mxGeometry width="30" height="20" as="geometry">
            <mxRectangle width="30" height="20" as="alternateBounds" />
          </mxGeometry>
        </mxCell>
        <mxCell id="Q81MRmjj6C1oXA7TaWA5-100" value="street: varchar" style="shape=partialRectangle;connectable=0;fillColor=none;top=0;left=0;bottom=0;right=0;align=left;spacingLeft=6;overflow=hidden;whiteSpace=wrap;html=1;spacing=2;" parent="Q81MRmjj6C1oXA7TaWA5-98" vertex="1">
          <mxGeometry x="30" width="173.80999999999995" height="20" as="geometry">
            <mxRectangle width="173.80999999999995" height="20" as="alternateBounds" />
          </mxGeometry>
        </mxCell>
        <mxCell id="Q81MRmjj6C1oXA7TaWA5-101" style="shape=tableRow;horizontal=0;startSize=0;swimlaneHead=0;swimlaneBody=0;fillColor=none;collapsible=0;dropTarget=0;points=[[0,0.5],[1,0.5]];portConstraint=eastwest;top=0;left=0;right=0;bottom=0;spacing=2;" parent="Q81MRmjj6C1oXA7TaWA5-91" vertex="1">
          <mxGeometry y="90" width="203.80999999999995" height="20" as="geometry" />
        </mxCell>
        <mxCell id="Q81MRmjj6C1oXA7TaWA5-102" style="shape=partialRectangle;connectable=0;fillColor=none;top=0;left=0;bottom=0;right=0;editable=1;overflow=hidden;whiteSpace=wrap;html=1;spacing=2;" parent="Q81MRmjj6C1oXA7TaWA5-101" vertex="1">
          <mxGeometry width="30" height="20" as="geometry">
            <mxRectangle width="30" height="20" as="alternateBounds" />
          </mxGeometry>
        </mxCell>
        <mxCell id="Q81MRmjj6C1oXA7TaWA5-103" value="number: int" style="shape=partialRectangle;connectable=0;fillColor=none;top=0;left=0;bottom=0;right=0;align=left;spacingLeft=6;overflow=hidden;whiteSpace=wrap;html=1;spacing=2;" parent="Q81MRmjj6C1oXA7TaWA5-101" vertex="1">
          <mxGeometry x="30" width="173.80999999999995" height="20" as="geometry">
            <mxRectangle width="173.80999999999995" height="20" as="alternateBounds" />
          </mxGeometry>
        </mxCell>
        <mxCell id="Q81MRmjj6C1oXA7TaWA5-104" style="shape=tableRow;horizontal=0;startSize=0;swimlaneHead=0;swimlaneBody=0;fillColor=none;collapsible=0;dropTarget=0;points=[[0,0.5],[1,0.5]];portConstraint=eastwest;top=0;left=0;right=0;bottom=0;spacing=2;" parent="Q81MRmjj6C1oXA7TaWA5-91" vertex="1">
          <mxGeometry y="110" width="203.80999999999995" height="20" as="geometry" />
        </mxCell>
        <mxCell id="Q81MRmjj6C1oXA7TaWA5-105" style="shape=partialRectangle;connectable=0;fillColor=none;top=0;left=0;bottom=0;right=0;editable=1;overflow=hidden;whiteSpace=wrap;html=1;spacing=2;" parent="Q81MRmjj6C1oXA7TaWA5-104" vertex="1">
          <mxGeometry width="30" height="20" as="geometry">
            <mxRectangle width="30" height="20" as="alternateBounds" />
          </mxGeometry>
        </mxCell>
        <mxCell id="Q81MRmjj6C1oXA7TaWA5-106" value="number_extension: varchar" style="shape=partialRectangle;connectable=0;fillColor=none;top=0;left=0;bottom=0;right=0;align=left;spacingLeft=6;overflow=hidden;whiteSpace=wrap;html=1;spacing=2;" parent="Q81MRmjj6C1oXA7TaWA5-104" vertex="1">
          <mxGeometry x="30" width="173.80999999999995" height="20" as="geometry">
            <mxRectangle width="173.80999999999995" height="20" as="alternateBounds" />
          </mxGeometry>
        </mxCell>
        <mxCell id="Q81MRmjj6C1oXA7TaWA5-107" style="shape=tableRow;horizontal=0;startSize=0;swimlaneHead=0;swimlaneBody=0;fillColor=none;collapsible=0;dropTarget=0;points=[[0,0.5],[1,0.5]];portConstraint=eastwest;top=0;left=0;right=0;bottom=0;spacing=2;" parent="Q81MRmjj6C1oXA7TaWA5-91" vertex="1">
          <mxGeometry y="130" width="203.80999999999995" height="20" as="geometry" />
        </mxCell>
        <mxCell id="Q81MRmjj6C1oXA7TaWA5-108" style="shape=partialRectangle;connectable=0;fillColor=none;top=0;left=0;bottom=0;right=0;editable=1;overflow=hidden;whiteSpace=wrap;html=1;spacing=2;" parent="Q81MRmjj6C1oXA7TaWA5-107" vertex="1">
          <mxGeometry width="30" height="20" as="geometry">
            <mxRectangle width="30" height="20" as="alternateBounds" />
          </mxGeometry>
        </mxCell>
        <mxCell id="Q81MRmjj6C1oXA7TaWA5-109" value="city: varchar" style="shape=partialRectangle;connectable=0;fillColor=none;top=0;left=0;bottom=0;right=0;align=left;spacingLeft=6;overflow=hidden;whiteSpace=wrap;html=1;spacing=2;" parent="Q81MRmjj6C1oXA7TaWA5-107" vertex="1">
          <mxGeometry x="30" width="173.80999999999995" height="20" as="geometry">
            <mxRectangle width="173.80999999999995" height="20" as="alternateBounds" />
          </mxGeometry>
        </mxCell>
        <mxCell id="Q81MRmjj6C1oXA7TaWA5-110" style="shape=tableRow;horizontal=0;startSize=0;swimlaneHead=0;swimlaneBody=0;fillColor=none;collapsible=0;dropTarget=0;points=[[0,0.5],[1,0.5]];portConstraint=eastwest;top=0;left=0;right=0;bottom=0;spacing=2;" parent="Q81MRmjj6C1oXA7TaWA5-91" vertex="1">
          <mxGeometry y="150" width="203.80999999999995" height="20" as="geometry" />
        </mxCell>
        <mxCell id="Q81MRmjj6C1oXA7TaWA5-111" style="shape=partialRectangle;connectable=0;fillColor=none;top=0;left=0;bottom=0;right=0;editable=1;overflow=hidden;whiteSpace=wrap;html=1;spacing=2;" parent="Q81MRmjj6C1oXA7TaWA5-110" vertex="1">
          <mxGeometry width="30" height="20" as="geometry">
            <mxRectangle width="30" height="20" as="alternateBounds" />
          </mxGeometry>
        </mxCell>
        <mxCell id="Q81MRmjj6C1oXA7TaWA5-112" value="country: varchar" style="shape=partialRectangle;connectable=0;fillColor=none;top=0;left=0;bottom=0;right=0;align=left;spacingLeft=6;overflow=hidden;whiteSpace=wrap;html=1;spacing=2;" parent="Q81MRmjj6C1oXA7TaWA5-110" vertex="1">
          <mxGeometry x="30" width="173.80999999999995" height="20" as="geometry">
            <mxRectangle width="173.80999999999995" height="20" as="alternateBounds" />
          </mxGeometry>
        </mxCell>
        <mxCell id="Q81MRmjj6C1oXA7TaWA5-114" style="shape=tableRow;horizontal=0;startSize=0;swimlaneHead=0;swimlaneBody=0;fillColor=none;collapsible=0;dropTarget=0;points=[[0,0.5],[1,0.5]];portConstraint=eastwest;top=0;left=0;right=0;bottom=0;spacing=2;" parent="Q81MRmjj6C1oXA7TaWA5-91" vertex="1">
          <mxGeometry y="170" width="203.80999999999995" height="20" as="geometry" />
        </mxCell>
        <mxCell id="Q81MRmjj6C1oXA7TaWA5-115" style="shape=partialRectangle;connectable=0;fillColor=none;top=0;left=0;bottom=0;right=0;editable=1;overflow=hidden;whiteSpace=wrap;html=1;spacing=2;" parent="Q81MRmjj6C1oXA7TaWA5-114" vertex="1">
          <mxGeometry width="30" height="20" as="geometry">
            <mxRectangle width="30" height="20" as="alternateBounds" />
          </mxGeometry>
        </mxCell>
        <mxCell id="Q81MRmjj6C1oXA7TaWA5-116" value="zip_code: varchar" style="shape=partialRectangle;connectable=0;fillColor=none;top=0;left=0;bottom=0;right=0;align=left;spacingLeft=6;overflow=hidden;whiteSpace=wrap;html=1;spacing=2;" parent="Q81MRmjj6C1oXA7TaWA5-114" vertex="1">
          <mxGeometry x="30" width="173.80999999999995" height="20" as="geometry">
            <mxRectangle width="173.80999999999995" height="20" as="alternateBounds" />
          </mxGeometry>
        </mxCell>
        <mxCell id="EhNRVE4hJLv5afDKUUhh-1" value="staff_role" style="shape=table;startSize=30;container=1;collapsible=1;childLayout=tableLayout;fixedRows=1;rowLines=0;fontStyle=1;align=center;resizeLast=1;html=1;spacing=2;" parent="1" vertex="1">
          <mxGeometry x="-1350" y="20" width="203.80999999999995" height="100" as="geometry" />
        </mxCell>
        <mxCell id="EhNRVE4hJLv5afDKUUhh-2" value="" style="shape=tableRow;horizontal=0;startSize=0;swimlaneHead=0;swimlaneBody=0;fillColor=none;collapsible=0;dropTarget=0;points=[[0,0.5],[1,0.5]];portConstraint=eastwest;top=0;left=0;right=0;bottom=1;spacing=2;" parent="EhNRVE4hJLv5afDKUUhh-1" vertex="1">
          <mxGeometry y="30" width="203.80999999999995" height="20" as="geometry" />
        </mxCell>
        <mxCell id="EhNRVE4hJLv5afDKUUhh-3" value="PK" style="shape=partialRectangle;connectable=0;fillColor=none;top=0;left=0;bottom=0;right=0;fontStyle=1;overflow=hidden;whiteSpace=wrap;html=1;spacing=2;" parent="EhNRVE4hJLv5afDKUUhh-2" vertex="1">
          <mxGeometry width="30" height="20" as="geometry">
            <mxRectangle width="30" height="20" as="alternateBounds" />
          </mxGeometry>
        </mxCell>
        <mxCell id="EhNRVE4hJLv5afDKUUhh-4" value="id: UniqueID" style="shape=partialRectangle;connectable=0;fillColor=none;top=0;left=0;bottom=0;right=0;align=left;spacingLeft=6;fontStyle=5;overflow=hidden;whiteSpace=wrap;html=1;spacing=2;" parent="EhNRVE4hJLv5afDKUUhh-2" vertex="1">
          <mxGeometry x="30" width="173.80999999999995" height="20" as="geometry">
            <mxRectangle width="173.80999999999995" height="20" as="alternateBounds" />
          </mxGeometry>
        </mxCell>
        <mxCell id="EhNRVE4hJLv5afDKUUhh-8" value="" style="shape=tableRow;horizontal=0;startSize=0;swimlaneHead=0;swimlaneBody=0;fillColor=none;collapsible=0;dropTarget=0;points=[[0,0.5],[1,0.5]];portConstraint=eastwest;top=0;left=0;right=0;bottom=0;spacing=2;" parent="EhNRVE4hJLv5afDKUUhh-1" vertex="1">
          <mxGeometry y="50" width="203.80999999999995" height="20" as="geometry" />
        </mxCell>
        <mxCell id="EhNRVE4hJLv5afDKUUhh-9" value="" style="shape=partialRectangle;connectable=0;fillColor=none;top=0;left=0;bottom=0;right=0;editable=1;overflow=hidden;whiteSpace=wrap;html=1;spacing=2;" parent="EhNRVE4hJLv5afDKUUhh-8" vertex="1">
          <mxGeometry width="30" height="20" as="geometry">
            <mxRectangle width="30" height="20" as="alternateBounds" />
          </mxGeometry>
        </mxCell>
        <mxCell id="EhNRVE4hJLv5afDKUUhh-10" value="name: varchar" style="shape=partialRectangle;connectable=0;fillColor=none;top=0;left=0;bottom=0;right=0;align=left;spacingLeft=6;overflow=hidden;whiteSpace=wrap;html=1;spacing=2;" parent="EhNRVE4hJLv5afDKUUhh-8" vertex="1">
          <mxGeometry x="30" width="173.80999999999995" height="20" as="geometry">
            <mxRectangle width="173.80999999999995" height="20" as="alternateBounds" />
          </mxGeometry>
        </mxCell>
        <mxCell id="EhNRVE4hJLv5afDKUUhh-119" value="" style="shape=tableRow;horizontal=0;startSize=0;swimlaneHead=0;swimlaneBody=0;fillColor=none;collapsible=0;dropTarget=0;points=[[0,0.5],[1,0.5]];portConstraint=eastwest;top=0;left=0;right=0;bottom=0;" parent="EhNRVE4hJLv5afDKUUhh-1" vertex="1">
          <mxGeometry y="70" width="203.80999999999995" height="30" as="geometry" />
        </mxCell>
        <mxCell id="EhNRVE4hJLv5afDKUUhh-120" value="FK" style="shape=partialRectangle;connectable=0;fillColor=none;top=0;left=0;bottom=0;right=0;editable=1;overflow=hidden;" parent="EhNRVE4hJLv5afDKUUhh-119" vertex="1">
          <mxGeometry width="30" height="30" as="geometry">
            <mxRectangle width="30" height="30" as="alternateBounds" />
          </mxGeometry>
        </mxCell>
        <mxCell id="EhNRVE4hJLv5afDKUUhh-121" value="permission_id" style="shape=partialRectangle;connectable=0;fillColor=none;top=0;left=0;bottom=0;right=0;align=left;spacingLeft=6;overflow=hidden;" parent="EhNRVE4hJLv5afDKUUhh-119" vertex="1">
          <mxGeometry x="30" width="173.80999999999995" height="30" as="geometry">
            <mxRectangle width="173.80999999999995" height="30" as="alternateBounds" />
          </mxGeometry>
        </mxCell>
        <mxCell id="EhNRVE4hJLv5afDKUUhh-40" value="" style="shape=tableRow;horizontal=0;startSize=0;swimlaneHead=0;swimlaneBody=0;fillColor=none;collapsible=0;dropTarget=0;points=[[0,0.5],[1,0.5]];portConstraint=eastwest;top=0;left=0;right=0;bottom=0;spacing=2;" parent="1" vertex="1">
          <mxGeometry x="-830" y="490" width="203.80999999999995" height="20" as="geometry" />
        </mxCell>
        <mxCell id="EhNRVE4hJLv5afDKUUhh-41" value="" style="shape=partialRectangle;connectable=0;fillColor=none;top=0;left=0;bottom=0;right=0;editable=1;overflow=hidden;whiteSpace=wrap;html=1;spacing=2;" parent="EhNRVE4hJLv5afDKUUhh-40" vertex="1">
          <mxGeometry width="30" height="20" as="geometry">
            <mxRectangle width="30" height="20" as="alternateBounds" />
          </mxGeometry>
        </mxCell>
        <mxCell id="EhNRVE4hJLv5afDKUUhh-86" value="permisions" style="shape=table;startSize=30;container=1;collapsible=1;childLayout=tableLayout;fixedRows=1;rowLines=0;fontStyle=1;align=center;resizeLast=1;html=1;" parent="1" vertex="1">
          <mxGeometry x="-1620" y="10" width="200" height="90" as="geometry" />
        </mxCell>
        <mxCell id="EhNRVE4hJLv5afDKUUhh-87" value="" style="shape=tableRow;horizontal=0;startSize=0;swimlaneHead=0;swimlaneBody=0;fillColor=none;collapsible=0;dropTarget=0;points=[[0,0.5],[1,0.5]];portConstraint=eastwest;top=0;left=0;right=0;bottom=1;" parent="EhNRVE4hJLv5afDKUUhh-86" vertex="1">
          <mxGeometry y="30" width="200" height="30" as="geometry" />
        </mxCell>
        <mxCell id="EhNRVE4hJLv5afDKUUhh-88" value="PK" style="shape=partialRectangle;connectable=0;fillColor=none;top=0;left=0;bottom=0;right=0;fontStyle=1;overflow=hidden;whiteSpace=wrap;html=1;" parent="EhNRVE4hJLv5afDKUUhh-87" vertex="1">
          <mxGeometry width="30" height="30" as="geometry">
            <mxRectangle width="30" height="30" as="alternateBounds" />
          </mxGeometry>
        </mxCell>
        <mxCell id="EhNRVE4hJLv5afDKUUhh-89" value="id: uuid" style="shape=partialRectangle;connectable=0;fillColor=none;top=0;left=0;bottom=0;right=0;align=left;spacingLeft=6;fontStyle=5;overflow=hidden;whiteSpace=wrap;html=1;" parent="EhNRVE4hJLv5afDKUUhh-87" vertex="1">
          <mxGeometry x="30" width="170" height="30" as="geometry">
            <mxRectangle width="170" height="30" as="alternateBounds" />
          </mxGeometry>
        </mxCell>
        <mxCell id="EhNRVE4hJLv5afDKUUhh-90" value="" style="shape=tableRow;horizontal=0;startSize=0;swimlaneHead=0;swimlaneBody=0;fillColor=none;collapsible=0;dropTarget=0;points=[[0,0.5],[1,0.5]];portConstraint=eastwest;top=0;left=0;right=0;bottom=0;" parent="EhNRVE4hJLv5afDKUUhh-86" vertex="1">
          <mxGeometry y="60" width="200" height="30" as="geometry" />
        </mxCell>
        <mxCell id="EhNRVE4hJLv5afDKUUhh-91" value="" style="shape=partialRectangle;connectable=0;fillColor=none;top=0;left=0;bottom=0;right=0;editable=1;overflow=hidden;whiteSpace=wrap;html=1;" parent="EhNRVE4hJLv5afDKUUhh-90" vertex="1">
          <mxGeometry width="30" height="30" as="geometry">
            <mxRectangle width="30" height="30" as="alternateBounds" />
          </mxGeometry>
        </mxCell>
        <mxCell id="EhNRVE4hJLv5afDKUUhh-92" value="name: varchar" style="shape=partialRectangle;connectable=0;fillColor=none;top=0;left=0;bottom=0;right=0;align=left;spacingLeft=6;overflow=hidden;whiteSpace=wrap;html=1;" parent="EhNRVE4hJLv5afDKUUhh-90" vertex="1">
          <mxGeometry x="30" width="170" height="30" as="geometry">
            <mxRectangle width="170" height="30" as="alternateBounds" />
          </mxGeometry>
        </mxCell>
        <mxCell id="EhNRVE4hJLv5afDKUUhh-106" value="patient_auth_data" style="shape=table;startSize=30;container=1;collapsible=1;childLayout=tableLayout;fixedRows=1;rowLines=0;fontStyle=1;align=center;resizeLast=1;html=1;" parent="1" vertex="1">
          <mxGeometry x="-1330" y="140" width="180" height="120" as="geometry" />
        </mxCell>
        <mxCell id="EhNRVE4hJLv5afDKUUhh-107" value="" style="shape=tableRow;horizontal=0;startSize=0;swimlaneHead=0;swimlaneBody=0;fillColor=none;collapsible=0;dropTarget=0;points=[[0,0.5],[1,0.5]];portConstraint=eastwest;top=0;left=0;right=0;bottom=1;" parent="EhNRVE4hJLv5afDKUUhh-106" vertex="1">
          <mxGeometry y="30" width="180" height="30" as="geometry" />
        </mxCell>
        <mxCell id="EhNRVE4hJLv5afDKUUhh-108" value="PK" style="shape=partialRectangle;connectable=0;fillColor=none;top=0;left=0;bottom=0;right=0;fontStyle=1;overflow=hidden;whiteSpace=wrap;html=1;" parent="EhNRVE4hJLv5afDKUUhh-107" vertex="1">
          <mxGeometry width="30" height="30" as="geometry">
            <mxRectangle width="30" height="30" as="alternateBounds" />
          </mxGeometry>
        </mxCell>
        <mxCell id="EhNRVE4hJLv5afDKUUhh-109" value="id: uuid" style="shape=partialRectangle;connectable=0;fillColor=none;top=0;left=0;bottom=0;right=0;align=left;spacingLeft=6;fontStyle=5;overflow=hidden;whiteSpace=wrap;html=1;" parent="EhNRVE4hJLv5afDKUUhh-107" vertex="1">
          <mxGeometry x="30" width="150" height="30" as="geometry">
            <mxRectangle width="150" height="30" as="alternateBounds" />
          </mxGeometry>
        </mxCell>
        <mxCell id="EhNRVE4hJLv5afDKUUhh-110" value="" style="shape=tableRow;horizontal=0;startSize=0;swimlaneHead=0;swimlaneBody=0;fillColor=none;collapsible=0;dropTarget=0;points=[[0,0.5],[1,0.5]];portConstraint=eastwest;top=0;left=0;right=0;bottom=0;" parent="EhNRVE4hJLv5afDKUUhh-106" vertex="1">
          <mxGeometry y="60" width="180" height="30" as="geometry" />
        </mxCell>
        <mxCell id="EhNRVE4hJLv5afDKUUhh-111" value="" style="shape=partialRectangle;connectable=0;fillColor=none;top=0;left=0;bottom=0;right=0;editable=1;overflow=hidden;whiteSpace=wrap;html=1;" parent="EhNRVE4hJLv5afDKUUhh-110" vertex="1">
          <mxGeometry width="30" height="30" as="geometry">
            <mxRectangle width="30" height="30" as="alternateBounds" />
          </mxGeometry>
        </mxCell>
        <mxCell id="EhNRVE4hJLv5afDKUUhh-112" value="email_address: varchar" style="shape=partialRectangle;connectable=0;fillColor=none;top=0;left=0;bottom=0;right=0;align=left;spacingLeft=6;overflow=hidden;whiteSpace=wrap;html=1;" parent="EhNRVE4hJLv5afDKUUhh-110" vertex="1">
          <mxGeometry x="30" width="150" height="30" as="geometry">
            <mxRectangle width="150" height="30" as="alternateBounds" />
          </mxGeometry>
        </mxCell>
        <mxCell id="EhNRVE4hJLv5afDKUUhh-113" value="" style="shape=tableRow;horizontal=0;startSize=0;swimlaneHead=0;swimlaneBody=0;fillColor=none;collapsible=0;dropTarget=0;points=[[0,0.5],[1,0.5]];portConstraint=eastwest;top=0;left=0;right=0;bottom=0;" parent="EhNRVE4hJLv5afDKUUhh-106" vertex="1">
          <mxGeometry y="90" width="180" height="30" as="geometry" />
        </mxCell>
        <mxCell id="EhNRVE4hJLv5afDKUUhh-114" value="" style="shape=partialRectangle;connectable=0;fillColor=none;top=0;left=0;bottom=0;right=0;editable=1;overflow=hidden;whiteSpace=wrap;html=1;" parent="EhNRVE4hJLv5afDKUUhh-113" vertex="1">
          <mxGeometry width="30" height="30" as="geometry">
            <mxRectangle width="30" height="30" as="alternateBounds" />
          </mxGeometry>
        </mxCell>
        <mxCell id="EhNRVE4hJLv5afDKUUhh-115" value="password: varchar" style="shape=partialRectangle;connectable=0;fillColor=none;top=0;left=0;bottom=0;right=0;align=left;spacingLeft=6;overflow=hidden;whiteSpace=wrap;html=1;" parent="EhNRVE4hJLv5afDKUUhh-113" vertex="1">
          <mxGeometry x="30" width="150" height="30" as="geometry">
            <mxRectangle width="150" height="30" as="alternateBounds" />
          </mxGeometry>
        </mxCell>
        <mxCell id="EhNRVE4hJLv5afDKUUhh-122" style="edgeStyle=orthogonalEdgeStyle;rounded=0;orthogonalLoop=1;jettySize=auto;html=1;entryX=0;entryY=0.5;entryDx=0;entryDy=0;" parent="1" source="EhNRVE4hJLv5afDKUUhh-87" target="EhNRVE4hJLv5afDKUUhh-119" edge="1">
          <mxGeometry relative="1" as="geometry" />
        </mxCell>
        <mxCell id="Q81MRmjj6C1oXA7TaWA5-3" value="patient" style="shape=table;startSize=20;container=1;collapsible=1;childLayout=tableLayout;fixedRows=1;rowLines=0;fontStyle=1;align=center;resizeLast=1;html=1;spacing=2;" parent="1" vertex="1">
          <mxGeometry x="-1600" y="150" width="203.81" height="190" as="geometry" />
        </mxCell>
        <mxCell id="EhNRVE4hJLv5afDKUUhh-142" value="" style="shape=tableRow;horizontal=0;startSize=0;swimlaneHead=0;swimlaneBody=0;fillColor=none;collapsible=0;dropTarget=0;points=[[0,0.5],[1,0.5]];portConstraint=eastwest;top=0;left=0;right=0;bottom=0;" parent="Q81MRmjj6C1oXA7TaWA5-3" vertex="1">
          <mxGeometry y="20" width="203.81" height="30" as="geometry" />
        </mxCell>
        <mxCell id="EhNRVE4hJLv5afDKUUhh-143" value="FK" style="shape=partialRectangle;connectable=0;fillColor=none;top=0;left=0;bottom=0;right=0;editable=1;overflow=hidden;" parent="EhNRVE4hJLv5afDKUUhh-142" vertex="1">
          <mxGeometry width="22.190000000000055" height="30" as="geometry">
            <mxRectangle width="22.190000000000055" height="30" as="alternateBounds" />
          </mxGeometry>
        </mxCell>
        <mxCell id="EhNRVE4hJLv5afDKUUhh-144" value="id: UUID" style="shape=partialRectangle;connectable=0;fillColor=none;top=0;left=0;bottom=0;right=0;align=left;spacingLeft=6;overflow=hidden;" parent="EhNRVE4hJLv5afDKUUhh-142" vertex="1">
          <mxGeometry x="22.190000000000055" width="181.61999999999995" height="30" as="geometry">
            <mxRectangle width="181.61999999999995" height="30" as="alternateBounds" />
          </mxGeometry>
        </mxCell>
        <mxCell id="Q81MRmjj6C1oXA7TaWA5-10" value="" style="shape=tableRow;horizontal=0;startSize=0;swimlaneHead=0;swimlaneBody=0;fillColor=none;collapsible=0;dropTarget=0;points=[[0,0.5],[1,0.5]];portConstraint=eastwest;top=0;left=0;right=0;bottom=0;spacing=2;" parent="Q81MRmjj6C1oXA7TaWA5-3" vertex="1">
          <mxGeometry y="50" width="203.81" height="20" as="geometry" />
        </mxCell>
        <mxCell id="Q81MRmjj6C1oXA7TaWA5-11" value="" style="shape=partialRectangle;connectable=0;fillColor=none;top=0;left=0;bottom=0;right=0;editable=1;overflow=hidden;whiteSpace=wrap;html=1;spacing=2;" parent="Q81MRmjj6C1oXA7TaWA5-10" vertex="1">
          <mxGeometry width="22.190000000000055" height="20" as="geometry">
            <mxRectangle width="22.190000000000055" height="20" as="alternateBounds" />
          </mxGeometry>
        </mxCell>
        <mxCell id="Q81MRmjj6C1oXA7TaWA5-12" value="first_name : varchar" style="shape=partialRectangle;connectable=0;fillColor=none;top=0;left=0;bottom=0;right=0;align=left;spacingLeft=6;overflow=hidden;whiteSpace=wrap;html=1;spacing=2;" parent="Q81MRmjj6C1oXA7TaWA5-10" vertex="1">
          <mxGeometry x="22.190000000000055" width="181.61999999999995" height="20" as="geometry">
            <mxRectangle width="181.61999999999995" height="20" as="alternateBounds" />
          </mxGeometry>
        </mxCell>
        <mxCell id="EhNRVE4hJLv5afDKUUhh-103" value="" style="shape=tableRow;horizontal=0;startSize=0;swimlaneHead=0;swimlaneBody=0;fillColor=none;collapsible=0;dropTarget=0;points=[[0,0.5],[1,0.5]];portConstraint=eastwest;top=0;left=0;right=0;bottom=0;" parent="Q81MRmjj6C1oXA7TaWA5-3" vertex="1">
          <mxGeometry y="70" width="203.81" height="30" as="geometry" />
        </mxCell>
        <mxCell id="EhNRVE4hJLv5afDKUUhh-104" value="" style="shape=partialRectangle;connectable=0;fillColor=none;top=0;left=0;bottom=0;right=0;editable=1;overflow=hidden;" parent="EhNRVE4hJLv5afDKUUhh-103" vertex="1">
          <mxGeometry width="22.190000000000055" height="30" as="geometry">
            <mxRectangle width="22.190000000000055" height="30" as="alternateBounds" />
          </mxGeometry>
        </mxCell>
        <mxCell id="EhNRVE4hJLv5afDKUUhh-105" value="last_name: varchar" style="shape=partialRectangle;connectable=0;fillColor=none;top=0;left=0;bottom=0;right=0;align=left;spacingLeft=6;overflow=hidden;" parent="EhNRVE4hJLv5afDKUUhh-103" vertex="1">
          <mxGeometry x="22.190000000000055" width="181.61999999999995" height="30" as="geometry">
            <mxRectangle width="181.61999999999995" height="30" as="alternateBounds" />
          </mxGeometry>
        </mxCell>
        <mxCell id="Q81MRmjj6C1oXA7TaWA5-13" style="shape=tableRow;horizontal=0;startSize=0;swimlaneHead=0;swimlaneBody=0;fillColor=none;collapsible=0;dropTarget=0;points=[[0,0.5],[1,0.5]];portConstraint=eastwest;top=0;left=0;right=0;bottom=0;spacing=2;" parent="Q81MRmjj6C1oXA7TaWA5-3" vertex="1">
          <mxGeometry y="100" width="203.81" height="20" as="geometry" />
        </mxCell>
        <mxCell id="Q81MRmjj6C1oXA7TaWA5-14" style="shape=partialRectangle;connectable=0;fillColor=none;top=0;left=0;bottom=0;right=0;editable=1;overflow=hidden;whiteSpace=wrap;html=1;spacing=2;" parent="Q81MRmjj6C1oXA7TaWA5-13" vertex="1">
          <mxGeometry width="22.190000000000055" height="20" as="geometry">
            <mxRectangle width="22.190000000000055" height="20" as="alternateBounds" />
          </mxGeometry>
        </mxCell>
        <mxCell id="Q81MRmjj6C1oXA7TaWA5-15" value="image: varchar" style="shape=partialRectangle;connectable=0;fillColor=none;top=0;left=0;bottom=0;right=0;align=left;spacingLeft=6;overflow=hidden;whiteSpace=wrap;html=1;spacing=2;" parent="Q81MRmjj6C1oXA7TaWA5-13" vertex="1">
          <mxGeometry x="22.190000000000055" width="181.61999999999995" height="20" as="geometry">
            <mxRectangle width="181.61999999999995" height="20" as="alternateBounds" />
          </mxGeometry>
        </mxCell>
        <mxCell id="Q81MRmjj6C1oXA7TaWA5-16" style="shape=tableRow;horizontal=0;startSize=0;swimlaneHead=0;swimlaneBody=0;fillColor=none;collapsible=0;dropTarget=0;points=[[0,0.5],[1,0.5]];portConstraint=eastwest;top=0;left=0;right=0;bottom=0;spacing=2;" parent="Q81MRmjj6C1oXA7TaWA5-3" vertex="1">
          <mxGeometry y="120" width="203.81" height="20" as="geometry" />
        </mxCell>
        <mxCell id="Q81MRmjj6C1oXA7TaWA5-17" style="shape=partialRectangle;connectable=0;fillColor=none;top=0;left=0;bottom=0;right=0;editable=1;overflow=hidden;whiteSpace=wrap;html=1;spacing=2;" parent="Q81MRmjj6C1oXA7TaWA5-16" vertex="1">
          <mxGeometry width="22.190000000000055" height="20" as="geometry">
            <mxRectangle width="22.190000000000055" height="20" as="alternateBounds" />
          </mxGeometry>
        </mxCell>
        <mxCell id="Q81MRmjj6C1oXA7TaWA5-18" value="date_of_birth: Date" style="shape=partialRectangle;connectable=0;fillColor=none;top=0;left=0;bottom=0;right=0;align=left;spacingLeft=6;overflow=hidden;whiteSpace=wrap;html=1;spacing=2;" parent="Q81MRmjj6C1oXA7TaWA5-16" vertex="1">
          <mxGeometry x="22.190000000000055" width="181.61999999999995" height="20" as="geometry">
            <mxRectangle width="181.61999999999995" height="20" as="alternateBounds" />
          </mxGeometry>
        </mxCell>
        <mxCell id="Q81MRmjj6C1oXA7TaWA5-22" style="shape=tableRow;horizontal=0;startSize=0;swimlaneHead=0;swimlaneBody=0;fillColor=none;collapsible=0;dropTarget=0;points=[[0,0.5],[1,0.5]];portConstraint=eastwest;top=0;left=0;right=0;bottom=0;spacing=2;" parent="Q81MRmjj6C1oXA7TaWA5-3" vertex="1">
          <mxGeometry y="140" width="203.81" height="20" as="geometry" />
        </mxCell>
        <mxCell id="Q81MRmjj6C1oXA7TaWA5-23" style="shape=partialRectangle;connectable=0;fillColor=none;top=0;left=0;bottom=0;right=0;editable=1;overflow=hidden;whiteSpace=wrap;html=1;spacing=2;" parent="Q81MRmjj6C1oXA7TaWA5-22" vertex="1">
          <mxGeometry width="22.190000000000055" height="20" as="geometry">
            <mxRectangle width="22.190000000000055" height="20" as="alternateBounds" />
          </mxGeometry>
        </mxCell>
        <mxCell id="Q81MRmjj6C1oXA7TaWA5-24" value="phone_number : varchar" style="shape=partialRectangle;connectable=0;fillColor=none;top=0;left=0;bottom=0;right=0;align=left;spacingLeft=6;overflow=hidden;whiteSpace=wrap;html=1;spacing=2;" parent="Q81MRmjj6C1oXA7TaWA5-22" vertex="1">
          <mxGeometry x="22.190000000000055" width="181.61999999999995" height="20" as="geometry">
            <mxRectangle width="181.61999999999995" height="20" as="alternateBounds" />
          </mxGeometry>
        </mxCell>
        <mxCell id="EhNRVE4hJLv5afDKUUhh-123" value="" style="shape=tableRow;horizontal=0;startSize=0;swimlaneHead=0;swimlaneBody=0;fillColor=none;collapsible=0;dropTarget=0;points=[[0,0.5],[1,0.5]];portConstraint=eastwest;top=0;left=0;right=0;bottom=0;" parent="Q81MRmjj6C1oXA7TaWA5-3" vertex="1">
          <mxGeometry y="160" width="203.81" height="30" as="geometry" />
        </mxCell>
        <mxCell id="EhNRVE4hJLv5afDKUUhh-124" value="FK" style="shape=partialRectangle;connectable=0;fillColor=none;top=0;left=0;bottom=0;right=0;editable=1;overflow=hidden;" parent="EhNRVE4hJLv5afDKUUhh-123" vertex="1">
          <mxGeometry width="22.190000000000055" height="30" as="geometry">
            <mxRectangle width="22.190000000000055" height="30" as="alternateBounds" />
          </mxGeometry>
        </mxCell>
        <mxCell id="EhNRVE4hJLv5afDKUUhh-125" value="gender_id: uuid" style="shape=partialRectangle;connectable=0;fillColor=none;top=0;left=0;bottom=0;right=0;align=left;spacingLeft=6;overflow=hidden;" parent="EhNRVE4hJLv5afDKUUhh-123" vertex="1">
          <mxGeometry x="22.190000000000055" width="181.61999999999995" height="30" as="geometry">
            <mxRectangle width="181.61999999999995" height="30" as="alternateBounds" />
          </mxGeometry>
        </mxCell>
        <mxCell id="EhNRVE4hJLv5afDKUUhh-126" value="genders" style="shape=table;startSize=30;container=1;collapsible=1;childLayout=tableLayout;fixedRows=1;rowLines=0;fontStyle=1;align=center;resizeLast=1;html=1;" parent="1" vertex="1">
          <mxGeometry x="-1326.1899999999998" y="280" width="180" height="110" as="geometry" />
        </mxCell>
        <mxCell id="EhNRVE4hJLv5afDKUUhh-127" value="" style="shape=tableRow;horizontal=0;startSize=0;swimlaneHead=0;swimlaneBody=0;fillColor=none;collapsible=0;dropTarget=0;points=[[0,0.5],[1,0.5]];portConstraint=eastwest;top=0;left=0;right=0;bottom=1;" parent="EhNRVE4hJLv5afDKUUhh-126" vertex="1">
          <mxGeometry y="30" width="180" height="30" as="geometry" />
        </mxCell>
        <mxCell id="EhNRVE4hJLv5afDKUUhh-128" value="PK" style="shape=partialRectangle;connectable=0;fillColor=none;top=0;left=0;bottom=0;right=0;fontStyle=1;overflow=hidden;whiteSpace=wrap;html=1;" parent="EhNRVE4hJLv5afDKUUhh-127" vertex="1">
          <mxGeometry width="30" height="30" as="geometry">
            <mxRectangle width="30" height="30" as="alternateBounds" />
          </mxGeometry>
        </mxCell>
        <mxCell id="EhNRVE4hJLv5afDKUUhh-129" value="id: uuid" style="shape=partialRectangle;connectable=0;fillColor=none;top=0;left=0;bottom=0;right=0;align=left;spacingLeft=6;fontStyle=5;overflow=hidden;whiteSpace=wrap;html=1;" parent="EhNRVE4hJLv5afDKUUhh-127" vertex="1">
          <mxGeometry x="30" width="150" height="30" as="geometry">
            <mxRectangle width="150" height="30" as="alternateBounds" />
          </mxGeometry>
        </mxCell>
        <mxCell id="EhNRVE4hJLv5afDKUUhh-130" value="" style="shape=tableRow;horizontal=0;startSize=0;swimlaneHead=0;swimlaneBody=0;fillColor=none;collapsible=0;dropTarget=0;points=[[0,0.5],[1,0.5]];portConstraint=eastwest;top=0;left=0;right=0;bottom=0;" parent="EhNRVE4hJLv5afDKUUhh-126" vertex="1">
          <mxGeometry y="60" width="180" height="20" as="geometry" />
        </mxCell>
        <mxCell id="EhNRVE4hJLv5afDKUUhh-131" value="" style="shape=partialRectangle;connectable=0;fillColor=none;top=0;left=0;bottom=0;right=0;editable=1;overflow=hidden;whiteSpace=wrap;html=1;" parent="EhNRVE4hJLv5afDKUUhh-130" vertex="1">
          <mxGeometry width="30" height="20" as="geometry">
            <mxRectangle width="30" height="20" as="alternateBounds" />
          </mxGeometry>
        </mxCell>
        <mxCell id="EhNRVE4hJLv5afDKUUhh-132" value="name: varchar" style="shape=partialRectangle;connectable=0;fillColor=none;top=0;left=0;bottom=0;right=0;align=left;spacingLeft=6;overflow=hidden;whiteSpace=wrap;html=1;" parent="EhNRVE4hJLv5afDKUUhh-130" vertex="1">
          <mxGeometry x="30" width="150" height="20" as="geometry">
            <mxRectangle width="150" height="20" as="alternateBounds" />
          </mxGeometry>
        </mxCell>
        <mxCell id="EhNRVE4hJLv5afDKUUhh-136" value="" style="shape=tableRow;horizontal=0;startSize=0;swimlaneHead=0;swimlaneBody=0;fillColor=none;collapsible=0;dropTarget=0;points=[[0,0.5],[1,0.5]];portConstraint=eastwest;top=0;left=0;right=0;bottom=0;" parent="EhNRVE4hJLv5afDKUUhh-126" vertex="1">
          <mxGeometry y="80" width="180" height="30" as="geometry" />
        </mxCell>
        <mxCell id="EhNRVE4hJLv5afDKUUhh-137" value="" style="shape=partialRectangle;connectable=0;fillColor=none;top=0;left=0;bottom=0;right=0;editable=1;overflow=hidden;whiteSpace=wrap;html=1;" parent="EhNRVE4hJLv5afDKUUhh-136" vertex="1">
          <mxGeometry width="30" height="30" as="geometry">
            <mxRectangle width="30" height="30" as="alternateBounds" />
          </mxGeometry>
        </mxCell>
        <mxCell id="EhNRVE4hJLv5afDKUUhh-138" value="code: varchar" style="shape=partialRectangle;connectable=0;fillColor=none;top=0;left=0;bottom=0;right=0;align=left;spacingLeft=6;overflow=hidden;whiteSpace=wrap;html=1;" parent="EhNRVE4hJLv5afDKUUhh-136" vertex="1">
          <mxGeometry x="30" width="150" height="30" as="geometry">
            <mxRectangle width="150" height="30" as="alternateBounds" />
          </mxGeometry>
        </mxCell>
        <mxCell id="EhNRVE4hJLv5afDKUUhh-145" style="edgeStyle=orthogonalEdgeStyle;rounded=0;orthogonalLoop=1;jettySize=auto;html=1;" parent="1" source="EhNRVE4hJLv5afDKUUhh-107" target="EhNRVE4hJLv5afDKUUhh-142" edge="1">
          <mxGeometry relative="1" as="geometry" />
        </mxCell>
        <mxCell id="EhNRVE4hJLv5afDKUUhh-146" value="doctor_auth_data" style="shape=table;startSize=30;container=1;collapsible=1;childLayout=tableLayout;fixedRows=1;rowLines=0;fontStyle=1;align=center;resizeLast=1;html=1;" parent="1" vertex="1">
          <mxGeometry x="-827" y="40" width="180" height="120" as="geometry" />
        </mxCell>
        <mxCell id="EhNRVE4hJLv5afDKUUhh-147" value="" style="shape=tableRow;horizontal=0;startSize=0;swimlaneHead=0;swimlaneBody=0;fillColor=none;collapsible=0;dropTarget=0;points=[[0,0.5],[1,0.5]];portConstraint=eastwest;top=0;left=0;right=0;bottom=1;" parent="EhNRVE4hJLv5afDKUUhh-146" vertex="1">
          <mxGeometry y="30" width="180" height="30" as="geometry" />
        </mxCell>
        <mxCell id="EhNRVE4hJLv5afDKUUhh-148" value="PK" style="shape=partialRectangle;connectable=0;fillColor=none;top=0;left=0;bottom=0;right=0;fontStyle=1;overflow=hidden;whiteSpace=wrap;html=1;" parent="EhNRVE4hJLv5afDKUUhh-147" vertex="1">
          <mxGeometry width="30" height="30" as="geometry">
            <mxRectangle width="30" height="30" as="alternateBounds" />
          </mxGeometry>
        </mxCell>
        <mxCell id="EhNRVE4hJLv5afDKUUhh-149" value="doctor_id" style="shape=partialRectangle;connectable=0;fillColor=none;top=0;left=0;bottom=0;right=0;align=left;spacingLeft=6;fontStyle=5;overflow=hidden;whiteSpace=wrap;html=1;" parent="EhNRVE4hJLv5afDKUUhh-147" vertex="1">
          <mxGeometry x="30" width="150" height="30" as="geometry">
            <mxRectangle width="150" height="30" as="alternateBounds" />
          </mxGeometry>
        </mxCell>
        <mxCell id="EhNRVE4hJLv5afDKUUhh-150" value="" style="shape=tableRow;horizontal=0;startSize=0;swimlaneHead=0;swimlaneBody=0;fillColor=none;collapsible=0;dropTarget=0;points=[[0,0.5],[1,0.5]];portConstraint=eastwest;top=0;left=0;right=0;bottom=0;" parent="EhNRVE4hJLv5afDKUUhh-146" vertex="1">
          <mxGeometry y="60" width="180" height="30" as="geometry" />
        </mxCell>
        <mxCell id="EhNRVE4hJLv5afDKUUhh-151" value="" style="shape=partialRectangle;connectable=0;fillColor=none;top=0;left=0;bottom=0;right=0;editable=1;overflow=hidden;whiteSpace=wrap;html=1;" parent="EhNRVE4hJLv5afDKUUhh-150" vertex="1">
          <mxGeometry width="30" height="30" as="geometry">
            <mxRectangle width="30" height="30" as="alternateBounds" />
          </mxGeometry>
        </mxCell>
        <mxCell id="EhNRVE4hJLv5afDKUUhh-152" value="email_address: varchar" style="shape=partialRectangle;connectable=0;fillColor=none;top=0;left=0;bottom=0;right=0;align=left;spacingLeft=6;overflow=hidden;whiteSpace=wrap;html=1;" parent="EhNRVE4hJLv5afDKUUhh-150" vertex="1">
          <mxGeometry x="30" width="150" height="30" as="geometry">
            <mxRectangle width="150" height="30" as="alternateBounds" />
          </mxGeometry>
        </mxCell>
        <mxCell id="EhNRVE4hJLv5afDKUUhh-153" value="" style="shape=tableRow;horizontal=0;startSize=0;swimlaneHead=0;swimlaneBody=0;fillColor=none;collapsible=0;dropTarget=0;points=[[0,0.5],[1,0.5]];portConstraint=eastwest;top=0;left=0;right=0;bottom=0;" parent="EhNRVE4hJLv5afDKUUhh-146" vertex="1">
          <mxGeometry y="90" width="180" height="30" as="geometry" />
        </mxCell>
        <mxCell id="EhNRVE4hJLv5afDKUUhh-154" value="" style="shape=partialRectangle;connectable=0;fillColor=none;top=0;left=0;bottom=0;right=0;editable=1;overflow=hidden;whiteSpace=wrap;html=1;" parent="EhNRVE4hJLv5afDKUUhh-153" vertex="1">
          <mxGeometry width="30" height="30" as="geometry">
            <mxRectangle width="30" height="30" as="alternateBounds" />
          </mxGeometry>
        </mxCell>
        <mxCell id="EhNRVE4hJLv5afDKUUhh-155" value="password: varchar" style="shape=partialRectangle;connectable=0;fillColor=none;top=0;left=0;bottom=0;right=0;align=left;spacingLeft=6;overflow=hidden;whiteSpace=wrap;html=1;" parent="EhNRVE4hJLv5afDKUUhh-153" vertex="1">
          <mxGeometry x="30" width="150" height="30" as="geometry">
            <mxRectangle width="150" height="30" as="alternateBounds" />
          </mxGeometry>
        </mxCell>
        <mxCell id="EhNRVE4hJLv5afDKUUhh-159" style="edgeStyle=orthogonalEdgeStyle;rounded=0;orthogonalLoop=1;jettySize=auto;html=1;" parent="1" source="EhNRVE4hJLv5afDKUUhh-147" target="EhNRVE4hJLv5afDKUUhh-156" edge="1">
          <mxGeometry relative="1" as="geometry" />
        </mxCell>
        <mxCell id="EhNRVE4hJLv5afDKUUhh-170" style="edgeStyle=orthogonalEdgeStyle;rounded=0;orthogonalLoop=1;jettySize=auto;html=1;" parent="1" source="EhNRVE4hJLv5afDKUUhh-2" target="EhNRVE4hJLv5afDKUUhh-160" edge="1">
          <mxGeometry relative="1" as="geometry" />
        </mxCell>
        <mxCell id="EhNRVE4hJLv5afDKUUhh-171" value="review" style="shape=table;startSize=30;container=1;collapsible=1;childLayout=tableLayout;fixedRows=1;rowLines=0;fontStyle=1;align=center;resizeLast=1;html=1;" parent="1" vertex="1">
          <mxGeometry x="-827" y="260" width="180" height="240" as="geometry" />
        </mxCell>
        <mxCell id="EhNRVE4hJLv5afDKUUhh-172" value="" style="shape=tableRow;horizontal=0;startSize=0;swimlaneHead=0;swimlaneBody=0;fillColor=none;collapsible=0;dropTarget=0;points=[[0,0.5],[1,0.5]];portConstraint=eastwest;top=0;left=0;right=0;bottom=1;" parent="EhNRVE4hJLv5afDKUUhh-171" vertex="1">
          <mxGeometry y="30" width="180" height="30" as="geometry" />
        </mxCell>
        <mxCell id="EhNRVE4hJLv5afDKUUhh-173" value="PK" style="shape=partialRectangle;connectable=0;fillColor=none;top=0;left=0;bottom=0;right=0;fontStyle=1;overflow=hidden;whiteSpace=wrap;html=1;" parent="EhNRVE4hJLv5afDKUUhh-172" vertex="1">
          <mxGeometry width="30" height="30" as="geometry">
            <mxRectangle width="30" height="30" as="alternateBounds" />
          </mxGeometry>
        </mxCell>
        <mxCell id="EhNRVE4hJLv5afDKUUhh-174" value="id:uuid" style="shape=partialRectangle;connectable=0;fillColor=none;top=0;left=0;bottom=0;right=0;align=left;spacingLeft=6;fontStyle=5;overflow=hidden;whiteSpace=wrap;html=1;" parent="EhNRVE4hJLv5afDKUUhh-172" vertex="1">
          <mxGeometry x="30" width="150" height="30" as="geometry">
            <mxRectangle width="150" height="30" as="alternateBounds" />
          </mxGeometry>
        </mxCell>
        <mxCell id="EhNRVE4hJLv5afDKUUhh-175" value="" style="shape=tableRow;horizontal=0;startSize=0;swimlaneHead=0;swimlaneBody=0;fillColor=none;collapsible=0;dropTarget=0;points=[[0,0.5],[1,0.5]];portConstraint=eastwest;top=0;left=0;right=0;bottom=0;" parent="EhNRVE4hJLv5afDKUUhh-171" vertex="1">
          <mxGeometry y="60" width="180" height="30" as="geometry" />
        </mxCell>
        <mxCell id="EhNRVE4hJLv5afDKUUhh-176" value="FK" style="shape=partialRectangle;connectable=0;fillColor=none;top=0;left=0;bottom=0;right=0;editable=1;overflow=hidden;whiteSpace=wrap;html=1;" parent="EhNRVE4hJLv5afDKUUhh-175" vertex="1">
          <mxGeometry width="30" height="30" as="geometry">
            <mxRectangle width="30" height="30" as="alternateBounds" />
          </mxGeometry>
        </mxCell>
        <mxCell id="EhNRVE4hJLv5afDKUUhh-177" value="doctor_id: uuid" style="shape=partialRectangle;connectable=0;fillColor=none;top=0;left=0;bottom=0;right=0;align=left;spacingLeft=6;overflow=hidden;whiteSpace=wrap;html=1;" parent="EhNRVE4hJLv5afDKUUhh-175" vertex="1">
          <mxGeometry x="30" width="150" height="30" as="geometry">
            <mxRectangle width="150" height="30" as="alternateBounds" />
          </mxGeometry>
        </mxCell>
        <mxCell id="EhNRVE4hJLv5afDKUUhh-178" value="" style="shape=tableRow;horizontal=0;startSize=0;swimlaneHead=0;swimlaneBody=0;fillColor=none;collapsible=0;dropTarget=0;points=[[0,0.5],[1,0.5]];portConstraint=eastwest;top=0;left=0;right=0;bottom=0;" parent="EhNRVE4hJLv5afDKUUhh-171" vertex="1">
          <mxGeometry y="90" width="180" height="30" as="geometry" />
        </mxCell>
        <mxCell id="EhNRVE4hJLv5afDKUUhh-179" value="FK" style="shape=partialRectangle;connectable=0;fillColor=none;top=0;left=0;bottom=0;right=0;editable=1;overflow=hidden;whiteSpace=wrap;html=1;" parent="EhNRVE4hJLv5afDKUUhh-178" vertex="1">
          <mxGeometry width="30" height="30" as="geometry">
            <mxRectangle width="30" height="30" as="alternateBounds" />
          </mxGeometry>
        </mxCell>
        <mxCell id="EhNRVE4hJLv5afDKUUhh-180" value="patient_id: uuid" style="shape=partialRectangle;connectable=0;fillColor=none;top=0;left=0;bottom=0;right=0;align=left;spacingLeft=6;overflow=hidden;whiteSpace=wrap;html=1;" parent="EhNRVE4hJLv5afDKUUhh-178" vertex="1">
          <mxGeometry x="30" width="150" height="30" as="geometry">
            <mxRectangle width="150" height="30" as="alternateBounds" />
          </mxGeometry>
        </mxCell>
        <mxCell id="EhNRVE4hJLv5afDKUUhh-190" value="" style="shape=tableRow;horizontal=0;startSize=0;swimlaneHead=0;swimlaneBody=0;fillColor=none;collapsible=0;dropTarget=0;points=[[0,0.5],[1,0.5]];portConstraint=eastwest;top=0;left=0;right=0;bottom=0;" parent="EhNRVE4hJLv5afDKUUhh-171" vertex="1">
          <mxGeometry y="120" width="180" height="30" as="geometry" />
        </mxCell>
        <mxCell id="EhNRVE4hJLv5afDKUUhh-191" value="" style="shape=partialRectangle;connectable=0;fillColor=none;top=0;left=0;bottom=0;right=0;editable=1;overflow=hidden;" parent="EhNRVE4hJLv5afDKUUhh-190" vertex="1">
          <mxGeometry width="30" height="30" as="geometry">
            <mxRectangle width="30" height="30" as="alternateBounds" />
          </mxGeometry>
        </mxCell>
        <mxCell id="EhNRVE4hJLv5afDKUUhh-192" value="review_title: varchar" style="shape=partialRectangle;connectable=0;fillColor=none;top=0;left=0;bottom=0;right=0;align=left;spacingLeft=6;overflow=hidden;" parent="EhNRVE4hJLv5afDKUUhh-190" vertex="1">
          <mxGeometry x="30" width="150" height="30" as="geometry">
            <mxRectangle width="150" height="30" as="alternateBounds" />
          </mxGeometry>
        </mxCell>
        <mxCell id="EhNRVE4hJLv5afDKUUhh-181" value="" style="shape=tableRow;horizontal=0;startSize=0;swimlaneHead=0;swimlaneBody=0;fillColor=none;collapsible=0;dropTarget=0;points=[[0,0.5],[1,0.5]];portConstraint=eastwest;top=0;left=0;right=0;bottom=0;" parent="EhNRVE4hJLv5afDKUUhh-171" vertex="1">
          <mxGeometry y="150" width="180" height="30" as="geometry" />
        </mxCell>
        <mxCell id="EhNRVE4hJLv5afDKUUhh-182" value="" style="shape=partialRectangle;connectable=0;fillColor=none;top=0;left=0;bottom=0;right=0;editable=1;overflow=hidden;whiteSpace=wrap;html=1;" parent="EhNRVE4hJLv5afDKUUhh-181" vertex="1">
          <mxGeometry width="30" height="30" as="geometry">
            <mxRectangle width="30" height="30" as="alternateBounds" />
          </mxGeometry>
        </mxCell>
        <mxCell id="EhNRVE4hJLv5afDKUUhh-183" value="review_value: float" style="shape=partialRectangle;connectable=0;fillColor=none;top=0;left=0;bottom=0;right=0;align=left;spacingLeft=6;overflow=hidden;whiteSpace=wrap;html=1;" parent="EhNRVE4hJLv5afDKUUhh-181" vertex="1">
          <mxGeometry x="30" width="150" height="30" as="geometry">
            <mxRectangle width="150" height="30" as="alternateBounds" />
          </mxGeometry>
        </mxCell>
        <mxCell id="EhNRVE4hJLv5afDKUUhh-184" value="" style="shape=tableRow;horizontal=0;startSize=0;swimlaneHead=0;swimlaneBody=0;fillColor=none;collapsible=0;dropTarget=0;points=[[0,0.5],[1,0.5]];portConstraint=eastwest;top=0;left=0;right=0;bottom=0;" parent="EhNRVE4hJLv5afDKUUhh-171" vertex="1">
          <mxGeometry y="180" width="180" height="30" as="geometry" />
        </mxCell>
        <mxCell id="EhNRVE4hJLv5afDKUUhh-185" value="" style="shape=partialRectangle;connectable=0;fillColor=none;top=0;left=0;bottom=0;right=0;editable=1;overflow=hidden;" parent="EhNRVE4hJLv5afDKUUhh-184" vertex="1">
          <mxGeometry width="30" height="30" as="geometry">
            <mxRectangle width="30" height="30" as="alternateBounds" />
          </mxGeometry>
        </mxCell>
        <mxCell id="EhNRVE4hJLv5afDKUUhh-186" value="review_content: varchar" style="shape=partialRectangle;connectable=0;fillColor=none;top=0;left=0;bottom=0;right=0;align=left;spacingLeft=6;overflow=hidden;" parent="EhNRVE4hJLv5afDKUUhh-184" vertex="1">
          <mxGeometry x="30" width="150" height="30" as="geometry">
            <mxRectangle width="150" height="30" as="alternateBounds" />
          </mxGeometry>
        </mxCell>
        <mxCell id="EhNRVE4hJLv5afDKUUhh-187" value="" style="shape=tableRow;horizontal=0;startSize=0;swimlaneHead=0;swimlaneBody=0;fillColor=none;collapsible=0;dropTarget=0;points=[[0,0.5],[1,0.5]];portConstraint=eastwest;top=0;left=0;right=0;bottom=0;" parent="EhNRVE4hJLv5afDKUUhh-171" vertex="1">
          <mxGeometry y="210" width="180" height="30" as="geometry" />
        </mxCell>
        <mxCell id="EhNRVE4hJLv5afDKUUhh-188" value="" style="shape=partialRectangle;connectable=0;fillColor=none;top=0;left=0;bottom=0;right=0;editable=1;overflow=hidden;" parent="EhNRVE4hJLv5afDKUUhh-187" vertex="1">
          <mxGeometry width="30" height="30" as="geometry">
            <mxRectangle width="30" height="30" as="alternateBounds" />
          </mxGeometry>
        </mxCell>
        <mxCell id="EhNRVE4hJLv5afDKUUhh-189" value="date_created: Timestamp" style="shape=partialRectangle;connectable=0;fillColor=none;top=0;left=0;bottom=0;right=0;align=left;spacingLeft=6;overflow=hidden;" parent="EhNRVE4hJLv5afDKUUhh-187" vertex="1">
          <mxGeometry x="30" width="150" height="30" as="geometry">
            <mxRectangle width="150" height="30" as="alternateBounds" />
          </mxGeometry>
        </mxCell>
        <mxCell id="EhNRVE4hJLv5afDKUUhh-206" value="patient_review" style="shape=table;startSize=30;container=1;collapsible=1;childLayout=tableLayout;fixedRows=1;rowLines=0;fontStyle=1;align=center;resizeLast=1;html=1;" parent="1" vertex="1">
          <mxGeometry x="-1310" y="465" width="180" height="90" as="geometry" />
        </mxCell>
        <mxCell id="EhNRVE4hJLv5afDKUUhh-210" value="" style="shape=tableRow;horizontal=0;startSize=0;swimlaneHead=0;swimlaneBody=0;fillColor=none;collapsible=0;dropTarget=0;points=[[0,0.5],[1,0.5]];portConstraint=eastwest;top=0;left=0;right=0;bottom=0;" parent="EhNRVE4hJLv5afDKUUhh-206" vertex="1">
          <mxGeometry y="30" width="180" height="30" as="geometry" />
        </mxCell>
        <mxCell id="EhNRVE4hJLv5afDKUUhh-211" value="FK" style="shape=partialRectangle;connectable=0;fillColor=none;top=0;left=0;bottom=0;right=0;editable=1;overflow=hidden;whiteSpace=wrap;html=1;" parent="EhNRVE4hJLv5afDKUUhh-210" vertex="1">
          <mxGeometry width="30" height="30" as="geometry">
            <mxRectangle width="30" height="30" as="alternateBounds" />
          </mxGeometry>
        </mxCell>
        <mxCell id="EhNRVE4hJLv5afDKUUhh-212" value="patient_id: uuid" style="shape=partialRectangle;connectable=0;fillColor=none;top=0;left=0;bottom=0;right=0;align=left;spacingLeft=6;overflow=hidden;whiteSpace=wrap;html=1;" parent="EhNRVE4hJLv5afDKUUhh-210" vertex="1">
          <mxGeometry x="30" width="150" height="30" as="geometry">
            <mxRectangle width="150" height="30" as="alternateBounds" />
          </mxGeometry>
        </mxCell>
        <mxCell id="EhNRVE4hJLv5afDKUUhh-213" value="" style="shape=tableRow;horizontal=0;startSize=0;swimlaneHead=0;swimlaneBody=0;fillColor=none;collapsible=0;dropTarget=0;points=[[0,0.5],[1,0.5]];portConstraint=eastwest;top=0;left=0;right=0;bottom=0;" parent="EhNRVE4hJLv5afDKUUhh-206" vertex="1">
          <mxGeometry y="60" width="180" height="30" as="geometry" />
        </mxCell>
        <mxCell id="EhNRVE4hJLv5afDKUUhh-214" value="FK" style="shape=partialRectangle;connectable=0;fillColor=none;top=0;left=0;bottom=0;right=0;editable=1;overflow=hidden;whiteSpace=wrap;html=1;" parent="EhNRVE4hJLv5afDKUUhh-213" vertex="1">
          <mxGeometry width="30" height="30" as="geometry">
            <mxRectangle width="30" height="30" as="alternateBounds" />
          </mxGeometry>
        </mxCell>
        <mxCell id="EhNRVE4hJLv5afDKUUhh-215" value="review_id: uuid" style="shape=partialRectangle;connectable=0;fillColor=none;top=0;left=0;bottom=0;right=0;align=left;spacingLeft=6;overflow=hidden;whiteSpace=wrap;html=1;" parent="EhNRVE4hJLv5afDKUUhh-213" vertex="1">
          <mxGeometry x="30" width="150" height="30" as="geometry">
            <mxRectangle width="150" height="30" as="alternateBounds" />
          </mxGeometry>
        </mxCell>
        <mxCell id="EhNRVE4hJLv5afDKUUhh-219" value="doctor_review" style="shape=table;startSize=30;container=1;collapsible=1;childLayout=tableLayout;fixedRows=1;rowLines=0;fontStyle=1;align=center;resizeLast=1;html=1;spacing=2;" parent="1" vertex="1">
          <mxGeometry x="-594.28" y="220" width="224.27999999999975" height="70" as="geometry" />
        </mxCell>
        <mxCell id="EhNRVE4hJLv5afDKUUhh-220" value="" style="shape=tableRow;horizontal=0;startSize=0;swimlaneHead=0;swimlaneBody=0;fillColor=none;collapsible=0;dropTarget=0;points=[[0,0.5],[1,0.5]];portConstraint=eastwest;top=0;left=0;right=0;bottom=0;spacing=2;" parent="EhNRVE4hJLv5afDKUUhh-219" vertex="1">
          <mxGeometry y="30" width="224.27999999999975" height="20" as="geometry" />
        </mxCell>
        <mxCell id="EhNRVE4hJLv5afDKUUhh-221" value="PK, FK" style="shape=partialRectangle;connectable=0;fillColor=none;top=0;left=0;bottom=0;right=0;editable=1;overflow=hidden;whiteSpace=wrap;html=1;spacing=2;" parent="EhNRVE4hJLv5afDKUUhh-220" vertex="1">
          <mxGeometry width="44.279999999999745" height="20" as="geometry">
            <mxRectangle width="44.279999999999745" height="20" as="alternateBounds" />
          </mxGeometry>
        </mxCell>
        <mxCell id="EhNRVE4hJLv5afDKUUhh-222" value="doctor_id:uuid" style="shape=partialRectangle;connectable=0;fillColor=none;top=0;left=0;bottom=0;right=0;align=left;spacingLeft=6;overflow=hidden;whiteSpace=wrap;html=1;spacing=2;" parent="EhNRVE4hJLv5afDKUUhh-220" vertex="1">
          <mxGeometry x="44.279999999999745" width="180" height="20" as="geometry">
            <mxRectangle width="180" height="20" as="alternateBounds" />
          </mxGeometry>
        </mxCell>
        <mxCell id="EhNRVE4hJLv5afDKUUhh-223" value="" style="shape=tableRow;horizontal=0;startSize=0;swimlaneHead=0;swimlaneBody=0;fillColor=none;collapsible=0;dropTarget=0;points=[[0,0.5],[1,0.5]];portConstraint=eastwest;top=0;left=0;right=0;bottom=0;spacing=2;" parent="EhNRVE4hJLv5afDKUUhh-219" vertex="1">
          <mxGeometry y="50" width="224.27999999999975" height="20" as="geometry" />
        </mxCell>
        <mxCell id="EhNRVE4hJLv5afDKUUhh-224" value="PK, FK" style="shape=partialRectangle;connectable=0;fillColor=none;top=0;left=0;bottom=0;right=0;editable=1;overflow=hidden;whiteSpace=wrap;html=1;spacing=2;" parent="EhNRVE4hJLv5afDKUUhh-223" vertex="1">
          <mxGeometry width="44.279999999999745" height="20" as="geometry">
            <mxRectangle width="44.279999999999745" height="20" as="alternateBounds" />
          </mxGeometry>
        </mxCell>
        <mxCell id="EhNRVE4hJLv5afDKUUhh-225" value="review_id: uuid" style="shape=partialRectangle;connectable=0;fillColor=none;top=0;left=0;bottom=0;right=0;align=left;spacingLeft=6;overflow=hidden;whiteSpace=wrap;html=1;spacing=2;" parent="EhNRVE4hJLv5afDKUUhh-223" vertex="1">
          <mxGeometry x="44.279999999999745" width="180" height="20" as="geometry">
            <mxRectangle width="180" height="20" as="alternateBounds" />
          </mxGeometry>
        </mxCell>
        <mxCell id="EhNRVE4hJLv5afDKUUhh-226" style="edgeStyle=orthogonalEdgeStyle;rounded=0;orthogonalLoop=1;jettySize=auto;html=1;entryX=0;entryY=0.5;entryDx=0;entryDy=0;" parent="1" source="EhNRVE4hJLv5afDKUUhh-147" target="EhNRVE4hJLv5afDKUUhh-220" edge="1">
          <mxGeometry relative="1" as="geometry" />
        </mxCell>
        <mxCell id="EhNRVE4hJLv5afDKUUhh-227" style="edgeStyle=orthogonalEdgeStyle;rounded=0;orthogonalLoop=1;jettySize=auto;html=1;entryX=0;entryY=0.5;entryDx=0;entryDy=0;" parent="1" source="EhNRVE4hJLv5afDKUUhh-172" target="EhNRVE4hJLv5afDKUUhh-223" edge="1">
          <mxGeometry relative="1" as="geometry">
            <Array as="points">
              <mxPoint x="-620" y="305" />
              <mxPoint x="-620" y="280" />
            </Array>
          </mxGeometry>
        </mxCell>
        <mxCell id="EhNRVE4hJLv5afDKUUhh-228" style="edgeStyle=orthogonalEdgeStyle;rounded=0;orthogonalLoop=1;jettySize=auto;html=1;" parent="1" source="EhNRVE4hJLv5afDKUUhh-147" target="EhNRVE4hJLv5afDKUUhh-175" edge="1">
          <mxGeometry relative="1" as="geometry">
            <Array as="points">
              <mxPoint x="-847" y="85" />
              <mxPoint x="-847" y="335" />
            </Array>
          </mxGeometry>
        </mxCell>
        <mxCell id="EhNRVE4hJLv5afDKUUhh-229" style="edgeStyle=orthogonalEdgeStyle;rounded=0;orthogonalLoop=1;jettySize=auto;html=1;entryX=0;entryY=0.5;entryDx=0;entryDy=0;" parent="1" source="EhNRVE4hJLv5afDKUUhh-127" target="EhNRVE4hJLv5afDKUUhh-164" edge="1">
          <mxGeometry relative="1" as="geometry" />
        </mxCell>
        <mxCell id="EhNRVE4hJLv5afDKUUhh-230" style="edgeStyle=orthogonalEdgeStyle;rounded=0;orthogonalLoop=1;jettySize=auto;html=1;entryX=1;entryY=0.5;entryDx=0;entryDy=0;" parent="1" source="EhNRVE4hJLv5afDKUUhh-127" target="EhNRVE4hJLv5afDKUUhh-123" edge="1">
          <mxGeometry relative="1" as="geometry" />
        </mxCell>
        <mxCell id="EhNRVE4hJLv5afDKUUhh-233" style="edgeStyle=orthogonalEdgeStyle;rounded=0;orthogonalLoop=1;jettySize=auto;html=1;entryX=0;entryY=0.5;entryDx=0;entryDy=0;" parent="1" source="EhNRVE4hJLv5afDKUUhh-142" target="EhNRVE4hJLv5afDKUUhh-178" edge="1">
          <mxGeometry relative="1" as="geometry">
            <Array as="points">
              <mxPoint x="-1360" y="185" />
              <mxPoint x="-1360" y="400" />
              <mxPoint x="-850" y="400" />
              <mxPoint x="-850" y="365" />
            </Array>
          </mxGeometry>
        </mxCell>
        <mxCell id="EhNRVE4hJLv5afDKUUhh-234" style="edgeStyle=orthogonalEdgeStyle;rounded=0;orthogonalLoop=1;jettySize=auto;html=1;entryX=1;entryY=0.5;entryDx=0;entryDy=0;" parent="1" source="EhNRVE4hJLv5afDKUUhh-172" target="EhNRVE4hJLv5afDKUUhh-213" edge="1">
          <mxGeometry relative="1" as="geometry">
            <Array as="points">
              <mxPoint x="-880" y="305" />
              <mxPoint x="-880" y="540" />
            </Array>
          </mxGeometry>
        </mxCell>
        <mxCell id="EhNRVE4hJLv5afDKUUhh-235" style="edgeStyle=orthogonalEdgeStyle;rounded=0;orthogonalLoop=1;jettySize=auto;html=1;" parent="1" source="EhNRVE4hJLv5afDKUUhh-142" target="EhNRVE4hJLv5afDKUUhh-210" edge="1">
          <mxGeometry relative="1" as="geometry" />
        </mxCell>
        <mxCell id="EhNRVE4hJLv5afDKUUhh-236" value="specialization" style="shape=table;startSize=30;container=1;collapsible=1;childLayout=tableLayout;fixedRows=1;rowLines=0;fontStyle=1;align=center;resizeLast=1;html=1;" parent="1" vertex="1">
          <mxGeometry x="-1600" y="380" width="180" height="150" as="geometry" />
        </mxCell>
        <mxCell id="EhNRVE4hJLv5afDKUUhh-237" value="" style="shape=tableRow;horizontal=0;startSize=0;swimlaneHead=0;swimlaneBody=0;fillColor=none;collapsible=0;dropTarget=0;points=[[0,0.5],[1,0.5]];portConstraint=eastwest;top=0;left=0;right=0;bottom=1;" parent="EhNRVE4hJLv5afDKUUhh-236" vertex="1">
          <mxGeometry y="30" width="180" height="30" as="geometry" />
        </mxCell>
        <mxCell id="EhNRVE4hJLv5afDKUUhh-238" value="PK" style="shape=partialRectangle;connectable=0;fillColor=none;top=0;left=0;bottom=0;right=0;fontStyle=1;overflow=hidden;whiteSpace=wrap;html=1;" parent="EhNRVE4hJLv5afDKUUhh-237" vertex="1">
          <mxGeometry width="30" height="30" as="geometry">
            <mxRectangle width="30" height="30" as="alternateBounds" />
          </mxGeometry>
        </mxCell>
        <mxCell id="EhNRVE4hJLv5afDKUUhh-239" value="id: uuid" style="shape=partialRectangle;connectable=0;fillColor=none;top=0;left=0;bottom=0;right=0;align=left;spacingLeft=6;fontStyle=5;overflow=hidden;whiteSpace=wrap;html=1;" parent="EhNRVE4hJLv5afDKUUhh-237" vertex="1">
          <mxGeometry x="30" width="150" height="30" as="geometry">
            <mxRectangle width="150" height="30" as="alternateBounds" />
          </mxGeometry>
        </mxCell>
        <mxCell id="EhNRVE4hJLv5afDKUUhh-240" value="" style="shape=tableRow;horizontal=0;startSize=0;swimlaneHead=0;swimlaneBody=0;fillColor=none;collapsible=0;dropTarget=0;points=[[0,0.5],[1,0.5]];portConstraint=eastwest;top=0;left=0;right=0;bottom=0;" parent="EhNRVE4hJLv5afDKUUhh-236" vertex="1">
          <mxGeometry y="60" width="180" height="30" as="geometry" />
        </mxCell>
        <mxCell id="EhNRVE4hJLv5afDKUUhh-241" value="" style="shape=partialRectangle;connectable=0;fillColor=none;top=0;left=0;bottom=0;right=0;editable=1;overflow=hidden;whiteSpace=wrap;html=1;" parent="EhNRVE4hJLv5afDKUUhh-240" vertex="1">
          <mxGeometry width="30" height="30" as="geometry">
            <mxRectangle width="30" height="30" as="alternateBounds" />
          </mxGeometry>
        </mxCell>
        <mxCell id="EhNRVE4hJLv5afDKUUhh-242" value="name: varchar" style="shape=partialRectangle;connectable=0;fillColor=none;top=0;left=0;bottom=0;right=0;align=left;spacingLeft=6;overflow=hidden;whiteSpace=wrap;html=1;" parent="EhNRVE4hJLv5afDKUUhh-240" vertex="1">
          <mxGeometry x="30" width="150" height="30" as="geometry">
            <mxRectangle width="150" height="30" as="alternateBounds" />
          </mxGeometry>
        </mxCell>
        <mxCell id="EhNRVE4hJLv5afDKUUhh-243" value="" style="shape=tableRow;horizontal=0;startSize=0;swimlaneHead=0;swimlaneBody=0;fillColor=none;collapsible=0;dropTarget=0;points=[[0,0.5],[1,0.5]];portConstraint=eastwest;top=0;left=0;right=0;bottom=0;" parent="EhNRVE4hJLv5afDKUUhh-236" vertex="1">
          <mxGeometry y="90" width="180" height="30" as="geometry" />
        </mxCell>
        <mxCell id="EhNRVE4hJLv5afDKUUhh-244" value="" style="shape=partialRectangle;connectable=0;fillColor=none;top=0;left=0;bottom=0;right=0;editable=1;overflow=hidden;whiteSpace=wrap;html=1;" parent="EhNRVE4hJLv5afDKUUhh-243" vertex="1">
          <mxGeometry width="30" height="30" as="geometry">
            <mxRectangle width="30" height="30" as="alternateBounds" />
          </mxGeometry>
        </mxCell>
        <mxCell id="EhNRVE4hJLv5afDKUUhh-245" value="description: varchar" style="shape=partialRectangle;connectable=0;fillColor=none;top=0;left=0;bottom=0;right=0;align=left;spacingLeft=6;overflow=hidden;whiteSpace=wrap;html=1;" parent="EhNRVE4hJLv5afDKUUhh-243" vertex="1">
          <mxGeometry x="30" width="150" height="30" as="geometry">
            <mxRectangle width="150" height="30" as="alternateBounds" />
          </mxGeometry>
        </mxCell>
        <mxCell id="EhNRVE4hJLv5afDKUUhh-246" value="" style="shape=tableRow;horizontal=0;startSize=0;swimlaneHead=0;swimlaneBody=0;fillColor=none;collapsible=0;dropTarget=0;points=[[0,0.5],[1,0.5]];portConstraint=eastwest;top=0;left=0;right=0;bottom=0;" parent="EhNRVE4hJLv5afDKUUhh-236" vertex="1">
          <mxGeometry y="120" width="180" height="30" as="geometry" />
        </mxCell>
        <mxCell id="EhNRVE4hJLv5afDKUUhh-247" value="" style="shape=partialRectangle;connectable=0;fillColor=none;top=0;left=0;bottom=0;right=0;editable=1;overflow=hidden;whiteSpace=wrap;html=1;" parent="EhNRVE4hJLv5afDKUUhh-246" vertex="1">
          <mxGeometry width="30" height="30" as="geometry">
            <mxRectangle width="30" height="30" as="alternateBounds" />
          </mxGeometry>
        </mxCell>
        <mxCell id="EhNRVE4hJLv5afDKUUhh-248" value="title: varchar" style="shape=partialRectangle;connectable=0;fillColor=none;top=0;left=0;bottom=0;right=0;align=left;spacingLeft=6;overflow=hidden;whiteSpace=wrap;html=1;" parent="EhNRVE4hJLv5afDKUUhh-246" vertex="1">
          <mxGeometry x="30" width="150" height="30" as="geometry">
            <mxRectangle width="150" height="30" as="alternateBounds" />
          </mxGeometry>
        </mxCell>
        <mxCell id="EhNRVE4hJLv5afDKUUhh-249" style="edgeStyle=orthogonalEdgeStyle;rounded=0;orthogonalLoop=1;jettySize=auto;html=1;entryX=0;entryY=0.5;entryDx=0;entryDy=0;" parent="1" source="EhNRVE4hJLv5afDKUUhh-237" target="Q81MRmjj6C1oXA7TaWA5-44" edge="1">
          <mxGeometry relative="1" as="geometry">
            <Array as="points">
              <mxPoint x="-1130" y="420" />
              <mxPoint x="-1130" y="200" />
            </Array>
          </mxGeometry>
        </mxCell>
        <mxCell id="EhNRVE4hJLv5afDKUUhh-254" style="edgeStyle=orthogonalEdgeStyle;rounded=0;orthogonalLoop=1;jettySize=auto;html=1;" parent="1" source="Q81MRmjj6C1oXA7TaWA5-92" target="EhNRVE4hJLv5afDKUUhh-292" edge="1">
          <mxGeometry relative="1" as="geometry">
            <mxPoint x="-870" y="730" as="targetPoint" />
            <Array as="points">
              <mxPoint x="-360" y="360" />
              <mxPoint x="-360" y="560" />
              <mxPoint x="-988" y="560" />
              <mxPoint x="-988" y="715" />
            </Array>
          </mxGeometry>
        </mxCell>
        <mxCell id="EhNRVE4hJLv5afDKUUhh-256" style="edgeStyle=orthogonalEdgeStyle;rounded=0;orthogonalLoop=1;jettySize=auto;html=1;entryX=0;entryY=0.5;entryDx=0;entryDy=0;" parent="1" source="Q81MRmjj6C1oXA7TaWA5-92" target="Q81MRmjj6C1oXA7TaWA5-57" edge="1">
          <mxGeometry relative="1" as="geometry">
            <mxPoint x="-280" y="120" as="targetPoint" />
            <Array as="points">
              <mxPoint x="-360" y="360" />
              <mxPoint x="-360" y="120" />
            </Array>
          </mxGeometry>
        </mxCell>
        <mxCell id="EhNRVE4hJLv5afDKUUhh-273" style="edgeStyle=orthogonalEdgeStyle;rounded=0;orthogonalLoop=1;jettySize=auto;html=1;entryX=0;entryY=0.5;entryDx=0;entryDy=0;" parent="1" source="EhNRVE4hJLv5afDKUUhh-260" target="EhNRVE4hJLv5afDKUUhh-257" edge="1">
          <mxGeometry relative="1" as="geometry" />
        </mxCell>
        <mxCell id="EhNRVE4hJLv5afDKUUhh-260" value="appointment_status" style="shape=table;startSize=30;container=1;collapsible=1;childLayout=tableLayout;fixedRows=1;rowLines=0;fontStyle=1;align=center;resizeLast=1;html=1;" parent="1" vertex="1">
          <mxGeometry x="-240" y="280" width="180" height="90" as="geometry" />
        </mxCell>
        <mxCell id="EhNRVE4hJLv5afDKUUhh-261" value="" style="shape=tableRow;horizontal=0;startSize=0;swimlaneHead=0;swimlaneBody=0;fillColor=none;collapsible=0;dropTarget=0;points=[[0,0.5],[1,0.5]];portConstraint=eastwest;top=0;left=0;right=0;bottom=1;" parent="EhNRVE4hJLv5afDKUUhh-260" vertex="1">
          <mxGeometry y="30" width="180" height="30" as="geometry" />
        </mxCell>
        <mxCell id="EhNRVE4hJLv5afDKUUhh-262" value="PK" style="shape=partialRectangle;connectable=0;fillColor=none;top=0;left=0;bottom=0;right=0;fontStyle=1;overflow=hidden;whiteSpace=wrap;html=1;" parent="EhNRVE4hJLv5afDKUUhh-261" vertex="1">
          <mxGeometry width="30" height="30" as="geometry">
            <mxRectangle width="30" height="30" as="alternateBounds" />
          </mxGeometry>
        </mxCell>
        <mxCell id="EhNRVE4hJLv5afDKUUhh-263" value="id: uuid" style="shape=partialRectangle;connectable=0;fillColor=none;top=0;left=0;bottom=0;right=0;align=left;spacingLeft=6;fontStyle=5;overflow=hidden;whiteSpace=wrap;html=1;" parent="EhNRVE4hJLv5afDKUUhh-261" vertex="1">
          <mxGeometry x="30" width="150" height="30" as="geometry">
            <mxRectangle width="150" height="30" as="alternateBounds" />
          </mxGeometry>
        </mxCell>
        <mxCell id="EhNRVE4hJLv5afDKUUhh-264" value="" style="shape=tableRow;horizontal=0;startSize=0;swimlaneHead=0;swimlaneBody=0;fillColor=none;collapsible=0;dropTarget=0;points=[[0,0.5],[1,0.5]];portConstraint=eastwest;top=0;left=0;right=0;bottom=0;" parent="EhNRVE4hJLv5afDKUUhh-260" vertex="1">
          <mxGeometry y="60" width="180" height="30" as="geometry" />
        </mxCell>
        <mxCell id="EhNRVE4hJLv5afDKUUhh-265" value="" style="shape=partialRectangle;connectable=0;fillColor=none;top=0;left=0;bottom=0;right=0;editable=1;overflow=hidden;whiteSpace=wrap;html=1;" parent="EhNRVE4hJLv5afDKUUhh-264" vertex="1">
          <mxGeometry width="30" height="30" as="geometry">
            <mxRectangle width="30" height="30" as="alternateBounds" />
          </mxGeometry>
        </mxCell>
        <mxCell id="EhNRVE4hJLv5afDKUUhh-266" value="name: varchar" style="shape=partialRectangle;connectable=0;fillColor=none;top=0;left=0;bottom=0;right=0;align=left;spacingLeft=6;overflow=hidden;whiteSpace=wrap;html=1;" parent="EhNRVE4hJLv5afDKUUhh-264" vertex="1">
          <mxGeometry x="30" width="150" height="30" as="geometry">
            <mxRectangle width="150" height="30" as="alternateBounds" />
          </mxGeometry>
        </mxCell>
        <mxCell id="EhNRVE4hJLv5afDKUUhh-288" value="doctor_clinic" style="shape=table;startSize=30;container=1;collapsible=1;childLayout=tableLayout;fixedRows=1;rowLines=0;fontStyle=1;align=center;resizeLast=1;html=1;whiteSpace=wrap;" parent="1" vertex="1">
          <mxGeometry x="-790" y="640" width="190" height="90" as="geometry" />
        </mxCell>
        <mxCell id="EhNRVE4hJLv5afDKUUhh-289" value="" style="shape=tableRow;horizontal=0;startSize=0;swimlaneHead=0;swimlaneBody=0;fillColor=none;collapsible=0;dropTarget=0;points=[[0,0.5],[1,0.5]];portConstraint=eastwest;top=0;left=0;right=0;bottom=0;html=1;" parent="EhNRVE4hJLv5afDKUUhh-288" vertex="1">
          <mxGeometry y="30" width="190" height="30" as="geometry" />
        </mxCell>
        <mxCell id="EhNRVE4hJLv5afDKUUhh-290" value="PK,FK1" style="shape=partialRectangle;connectable=0;fillColor=none;top=0;left=0;bottom=0;right=0;fontStyle=1;overflow=hidden;html=1;whiteSpace=wrap;" parent="EhNRVE4hJLv5afDKUUhh-289" vertex="1">
          <mxGeometry width="60" height="30" as="geometry">
            <mxRectangle width="60" height="30" as="alternateBounds" />
          </mxGeometry>
        </mxCell>
        <mxCell id="EhNRVE4hJLv5afDKUUhh-291" value="doctor_id : uuid" style="shape=partialRectangle;connectable=0;fillColor=none;top=0;left=0;bottom=0;right=0;align=left;spacingLeft=6;fontStyle=5;overflow=hidden;html=1;whiteSpace=wrap;" parent="EhNRVE4hJLv5afDKUUhh-289" vertex="1">
          <mxGeometry x="60" width="130" height="30" as="geometry">
            <mxRectangle width="130" height="30" as="alternateBounds" />
          </mxGeometry>
        </mxCell>
        <mxCell id="EhNRVE4hJLv5afDKUUhh-292" value="" style="shape=tableRow;horizontal=0;startSize=0;swimlaneHead=0;swimlaneBody=0;fillColor=none;collapsible=0;dropTarget=0;points=[[0,0.5],[1,0.5]];portConstraint=eastwest;top=0;left=0;right=0;bottom=1;html=1;" parent="EhNRVE4hJLv5afDKUUhh-288" vertex="1">
          <mxGeometry y="60" width="190" height="30" as="geometry" />
        </mxCell>
        <mxCell id="EhNRVE4hJLv5afDKUUhh-293" value="PK,FK2" style="shape=partialRectangle;connectable=0;fillColor=none;top=0;left=0;bottom=0;right=0;fontStyle=1;overflow=hidden;html=1;whiteSpace=wrap;" parent="EhNRVE4hJLv5afDKUUhh-292" vertex="1">
          <mxGeometry width="60" height="30" as="geometry">
            <mxRectangle width="60" height="30" as="alternateBounds" />
          </mxGeometry>
        </mxCell>
        <mxCell id="EhNRVE4hJLv5afDKUUhh-294" value="clinic_id: uuid" style="shape=partialRectangle;connectable=0;fillColor=none;top=0;left=0;bottom=0;right=0;align=left;spacingLeft=6;fontStyle=5;overflow=hidden;html=1;whiteSpace=wrap;" parent="EhNRVE4hJLv5afDKUUhh-292" vertex="1">
          <mxGeometry x="60" width="130" height="30" as="geometry">
            <mxRectangle width="130" height="30" as="alternateBounds" />
          </mxGeometry>
        </mxCell>
        <mxCell id="EhNRVE4hJLv5afDKUUhh-301" style="edgeStyle=orthogonalEdgeStyle;rounded=0;orthogonalLoop=1;jettySize=auto;html=1;" parent="1" source="EhNRVE4hJLv5afDKUUhh-147" target="EhNRVE4hJLv5afDKUUhh-289" edge="1">
          <mxGeometry relative="1" as="geometry">
            <Array as="points">
              <mxPoint x="-860" y="85" />
              <mxPoint x="-860" y="685" />
            </Array>
          </mxGeometry>
        </mxCell>
        <mxCell id="EhNRVE4hJLv5afDKUUhh-302" value="patient_appointment" style="shape=table;startSize=30;container=1;collapsible=1;childLayout=tableLayout;fixedRows=1;rowLines=0;fontStyle=1;align=center;resizeLast=1;html=1;whiteSpace=wrap;" parent="1" vertex="1">
          <mxGeometry x="-272.5" y="455" width="245" height="90" as="geometry" />
        </mxCell>
        <mxCell id="EhNRVE4hJLv5afDKUUhh-303" value="" style="shape=tableRow;horizontal=0;startSize=0;swimlaneHead=0;swimlaneBody=0;fillColor=none;collapsible=0;dropTarget=0;points=[[0,0.5],[1,0.5]];portConstraint=eastwest;top=0;left=0;right=0;bottom=0;html=1;" parent="EhNRVE4hJLv5afDKUUhh-302" vertex="1">
          <mxGeometry y="30" width="245" height="30" as="geometry" />
        </mxCell>
        <mxCell id="EhNRVE4hJLv5afDKUUhh-304" value="PK,FK1" style="shape=partialRectangle;connectable=0;fillColor=none;top=0;left=0;bottom=0;right=0;fontStyle=1;overflow=hidden;html=1;whiteSpace=wrap;" parent="EhNRVE4hJLv5afDKUUhh-303" vertex="1">
          <mxGeometry width="60" height="30" as="geometry">
            <mxRectangle width="60" height="30" as="alternateBounds" />
          </mxGeometry>
        </mxCell>
        <mxCell id="EhNRVE4hJLv5afDKUUhh-305" value="patient_id: uuid" style="shape=partialRectangle;connectable=0;fillColor=none;top=0;left=0;bottom=0;right=0;align=left;spacingLeft=6;fontStyle=5;overflow=hidden;html=1;whiteSpace=wrap;" parent="EhNRVE4hJLv5afDKUUhh-303" vertex="1">
          <mxGeometry x="60" width="185" height="30" as="geometry">
            <mxRectangle width="185" height="30" as="alternateBounds" />
          </mxGeometry>
        </mxCell>
        <mxCell id="EhNRVE4hJLv5afDKUUhh-306" value="" style="shape=tableRow;horizontal=0;startSize=0;swimlaneHead=0;swimlaneBody=0;fillColor=none;collapsible=0;dropTarget=0;points=[[0,0.5],[1,0.5]];portConstraint=eastwest;top=0;left=0;right=0;bottom=1;html=1;" parent="EhNRVE4hJLv5afDKUUhh-302" vertex="1">
          <mxGeometry y="60" width="245" height="30" as="geometry" />
        </mxCell>
        <mxCell id="EhNRVE4hJLv5afDKUUhh-307" value="PK,FK2" style="shape=partialRectangle;connectable=0;fillColor=none;top=0;left=0;bottom=0;right=0;fontStyle=1;overflow=hidden;html=1;whiteSpace=wrap;" parent="EhNRVE4hJLv5afDKUUhh-306" vertex="1">
          <mxGeometry width="60" height="30" as="geometry">
            <mxRectangle width="60" height="30" as="alternateBounds" />
          </mxGeometry>
        </mxCell>
        <mxCell id="EhNRVE4hJLv5afDKUUhh-308" value="appointment_id: uuid" style="shape=partialRectangle;connectable=0;fillColor=none;top=0;left=0;bottom=0;right=0;align=left;spacingLeft=6;fontStyle=5;overflow=hidden;html=1;whiteSpace=wrap;" parent="EhNRVE4hJLv5afDKUUhh-306" vertex="1">
          <mxGeometry x="60" width="185" height="30" as="geometry">
            <mxRectangle width="185" height="30" as="alternateBounds" />
          </mxGeometry>
        </mxCell>
        <mxCell id="R1laoW-MmmunqDyPFdKA-4" value="doctor_appointment" style="shape=table;startSize=30;container=1;collapsible=1;childLayout=tableLayout;fixedRows=1;rowLines=0;fontStyle=1;align=center;resizeLast=1;html=1;whiteSpace=wrap;" vertex="1" parent="1">
          <mxGeometry x="-290.6" y="585" width="245" height="90" as="geometry" />
        </mxCell>
        <mxCell id="R1laoW-MmmunqDyPFdKA-5" value="" style="shape=tableRow;horizontal=0;startSize=0;swimlaneHead=0;swimlaneBody=0;fillColor=none;collapsible=0;dropTarget=0;points=[[0,0.5],[1,0.5]];portConstraint=eastwest;top=0;left=0;right=0;bottom=0;html=1;" vertex="1" parent="R1laoW-MmmunqDyPFdKA-4">
          <mxGeometry y="30" width="245" height="30" as="geometry" />
        </mxCell>
        <mxCell id="R1laoW-MmmunqDyPFdKA-6" value="PK,FK1" style="shape=partialRectangle;connectable=0;fillColor=none;top=0;left=0;bottom=0;right=0;fontStyle=1;overflow=hidden;html=1;whiteSpace=wrap;" vertex="1" parent="R1laoW-MmmunqDyPFdKA-5">
          <mxGeometry width="60" height="30" as="geometry">
            <mxRectangle width="60" height="30" as="alternateBounds" />
          </mxGeometry>
        </mxCell>
        <mxCell id="R1laoW-MmmunqDyPFdKA-7" value="doctor_id: uuid" style="shape=partialRectangle;connectable=0;fillColor=none;top=0;left=0;bottom=0;right=0;align=left;spacingLeft=6;fontStyle=5;overflow=hidden;html=1;whiteSpace=wrap;" vertex="1" parent="R1laoW-MmmunqDyPFdKA-5">
          <mxGeometry x="60" width="185" height="30" as="geometry">
            <mxRectangle width="185" height="30" as="alternateBounds" />
          </mxGeometry>
        </mxCell>
        <mxCell id="R1laoW-MmmunqDyPFdKA-8" value="" style="shape=tableRow;horizontal=0;startSize=0;swimlaneHead=0;swimlaneBody=0;fillColor=none;collapsible=0;dropTarget=0;points=[[0,0.5],[1,0.5]];portConstraint=eastwest;top=0;left=0;right=0;bottom=1;html=1;" vertex="1" parent="R1laoW-MmmunqDyPFdKA-4">
          <mxGeometry y="60" width="245" height="30" as="geometry" />
        </mxCell>
        <mxCell id="R1laoW-MmmunqDyPFdKA-9" value="PK,FK2" style="shape=partialRectangle;connectable=0;fillColor=none;top=0;left=0;bottom=0;right=0;fontStyle=1;overflow=hidden;html=1;whiteSpace=wrap;" vertex="1" parent="R1laoW-MmmunqDyPFdKA-8">
          <mxGeometry width="60" height="30" as="geometry">
            <mxRectangle width="60" height="30" as="alternateBounds" />
          </mxGeometry>
        </mxCell>
        <mxCell id="R1laoW-MmmunqDyPFdKA-10" value="appointment_id: uuid" style="shape=partialRectangle;connectable=0;fillColor=none;top=0;left=0;bottom=0;right=0;align=left;spacingLeft=6;fontStyle=5;overflow=hidden;html=1;whiteSpace=wrap;" vertex="1" parent="R1laoW-MmmunqDyPFdKA-8">
          <mxGeometry x="60" width="185" height="30" as="geometry">
            <mxRectangle width="185" height="30" as="alternateBounds" />
          </mxGeometry>
        </mxCell>
      </root>
    </mxGraphModel>
  </diagram>
  <diagram name="Page2" id="0bmSLUbr6nPrdDuiJPQy">
    <mxGraphModel dx="3473" dy="771" grid="1" gridSize="10" guides="1" tooltips="1" connect="1" arrows="1" fold="1" page="1" pageScale="1" pageWidth="827" pageHeight="1169" math="0" shadow="0">
      <root>
        <mxCell id="MW2m3GR90Z3l0uTpweqN-0" />
        <mxCell id="MW2m3GR90Z3l0uTpweqN-1" parent="MW2m3GR90Z3l0uTpweqN-0" />
        <mxCell id="MW2m3GR90Z3l0uTpweqN-2" value="doctor" style="shape=table;startSize=30;container=1;collapsible=1;childLayout=tableLayout;fixedRows=1;rowLines=0;fontStyle=1;align=center;resizeLast=1;html=1;spacing=2;" vertex="1" parent="MW2m3GR90Z3l0uTpweqN-1">
          <mxGeometry x="-231.90999999999994" y="160" width="203.81" height="230" as="geometry" />
        </mxCell>
        <mxCell id="MW2m3GR90Z3l0uTpweqN-6" value="" style="shape=tableRow;horizontal=0;startSize=0;swimlaneHead=0;swimlaneBody=0;fillColor=none;collapsible=0;dropTarget=0;points=[[0,0.5],[1,0.5]];portConstraint=eastwest;top=0;left=0;right=0;bottom=0;" vertex="1" parent="MW2m3GR90Z3l0uTpweqN-2">
          <mxGeometry y="30" width="203.81" height="30" as="geometry" />
        </mxCell>
        <mxCell id="MW2m3GR90Z3l0uTpweqN-7" value="FK" style="shape=partialRectangle;connectable=0;fillColor=none;top=0;left=0;bottom=0;right=0;editable=1;overflow=hidden;" vertex="1" parent="MW2m3GR90Z3l0uTpweqN-6">
          <mxGeometry width="30" height="30" as="geometry">
            <mxRectangle width="30" height="30" as="alternateBounds" />
          </mxGeometry>
        </mxCell>
        <mxCell id="MW2m3GR90Z3l0uTpweqN-8" value="id: uuid" style="shape=partialRectangle;connectable=0;fillColor=none;top=0;left=0;bottom=0;right=0;align=left;spacingLeft=6;overflow=hidden;" vertex="1" parent="MW2m3GR90Z3l0uTpweqN-6">
          <mxGeometry x="30" width="173.81" height="30" as="geometry">
            <mxRectangle width="173.81" height="30" as="alternateBounds" />
          </mxGeometry>
        </mxCell>
        <mxCell id="MW2m3GR90Z3l0uTpweqN-9" value="" style="shape=tableRow;horizontal=0;startSize=0;swimlaneHead=0;swimlaneBody=0;fillColor=none;collapsible=0;dropTarget=0;points=[[0,0.5],[1,0.5]];portConstraint=eastwest;top=0;left=0;right=0;bottom=0;spacing=2;" vertex="1" parent="MW2m3GR90Z3l0uTpweqN-2">
          <mxGeometry y="60" width="203.81" height="20" as="geometry" />
        </mxCell>
        <mxCell id="MW2m3GR90Z3l0uTpweqN-10" value="" style="shape=partialRectangle;connectable=0;fillColor=none;top=0;left=0;bottom=0;right=0;editable=1;overflow=hidden;whiteSpace=wrap;html=1;spacing=2;" vertex="1" parent="MW2m3GR90Z3l0uTpweqN-9">
          <mxGeometry width="30" height="20" as="geometry">
            <mxRectangle width="30" height="20" as="alternateBounds" />
          </mxGeometry>
        </mxCell>
        <mxCell id="MW2m3GR90Z3l0uTpweqN-11" value="first_name : varchar" style="shape=partialRectangle;connectable=0;fillColor=none;top=0;left=0;bottom=0;right=0;align=left;spacingLeft=6;overflow=hidden;whiteSpace=wrap;html=1;spacing=2;" vertex="1" parent="MW2m3GR90Z3l0uTpweqN-9">
          <mxGeometry x="30" width="173.81" height="20" as="geometry">
            <mxRectangle width="173.81" height="20" as="alternateBounds" />
          </mxGeometry>
        </mxCell>
        <mxCell id="MW2m3GR90Z3l0uTpweqN-12" value="" style="shape=tableRow;horizontal=0;startSize=0;swimlaneHead=0;swimlaneBody=0;fillColor=none;collapsible=0;dropTarget=0;points=[[0,0.5],[1,0.5]];portConstraint=eastwest;top=0;left=0;right=0;bottom=0;" vertex="1" parent="MW2m3GR90Z3l0uTpweqN-2">
          <mxGeometry y="80" width="203.81" height="30" as="geometry" />
        </mxCell>
        <mxCell id="MW2m3GR90Z3l0uTpweqN-13" value="" style="shape=partialRectangle;connectable=0;fillColor=none;top=0;left=0;bottom=0;right=0;editable=1;overflow=hidden;" vertex="1" parent="MW2m3GR90Z3l0uTpweqN-12">
          <mxGeometry width="30" height="30" as="geometry">
            <mxRectangle width="30" height="30" as="alternateBounds" />
          </mxGeometry>
        </mxCell>
        <mxCell id="MW2m3GR90Z3l0uTpweqN-14" value="last_name: varchar" style="shape=partialRectangle;connectable=0;fillColor=none;top=0;left=0;bottom=0;right=0;align=left;spacingLeft=6;overflow=hidden;" vertex="1" parent="MW2m3GR90Z3l0uTpweqN-12">
          <mxGeometry x="30" width="173.81" height="30" as="geometry">
            <mxRectangle width="173.81" height="30" as="alternateBounds" />
          </mxGeometry>
        </mxCell>
        <mxCell id="MW2m3GR90Z3l0uTpweqN-15" style="shape=tableRow;horizontal=0;startSize=0;swimlaneHead=0;swimlaneBody=0;fillColor=none;collapsible=0;dropTarget=0;points=[[0,0.5],[1,0.5]];portConstraint=eastwest;top=0;left=0;right=0;bottom=0;spacing=2;" vertex="1" parent="MW2m3GR90Z3l0uTpweqN-2">
          <mxGeometry y="110" width="203.81" height="20" as="geometry" />
        </mxCell>
        <mxCell id="MW2m3GR90Z3l0uTpweqN-16" style="shape=partialRectangle;connectable=0;fillColor=none;top=0;left=0;bottom=0;right=0;editable=1;overflow=hidden;whiteSpace=wrap;html=1;spacing=2;" vertex="1" parent="MW2m3GR90Z3l0uTpweqN-15">
          <mxGeometry width="30" height="20" as="geometry">
            <mxRectangle width="30" height="20" as="alternateBounds" />
          </mxGeometry>
        </mxCell>
        <mxCell id="MW2m3GR90Z3l0uTpweqN-17" value="image: varchar" style="shape=partialRectangle;connectable=0;fillColor=none;top=0;left=0;bottom=0;right=0;align=left;spacingLeft=6;overflow=hidden;whiteSpace=wrap;html=1;spacing=2;" vertex="1" parent="MW2m3GR90Z3l0uTpweqN-15">
          <mxGeometry x="30" width="173.81" height="20" as="geometry">
            <mxRectangle width="173.81" height="20" as="alternateBounds" />
          </mxGeometry>
        </mxCell>
        <mxCell id="MW2m3GR90Z3l0uTpweqN-18" style="shape=tableRow;horizontal=0;startSize=0;swimlaneHead=0;swimlaneBody=0;fillColor=none;collapsible=0;dropTarget=0;points=[[0,0.5],[1,0.5]];portConstraint=eastwest;top=0;left=0;right=0;bottom=0;spacing=2;" vertex="1" parent="MW2m3GR90Z3l0uTpweqN-2">
          <mxGeometry y="130" width="203.81" height="20" as="geometry" />
        </mxCell>
        <mxCell id="MW2m3GR90Z3l0uTpweqN-19" style="shape=partialRectangle;connectable=0;fillColor=none;top=0;left=0;bottom=0;right=0;editable=1;overflow=hidden;whiteSpace=wrap;html=1;spacing=2;" vertex="1" parent="MW2m3GR90Z3l0uTpweqN-18">
          <mxGeometry width="30" height="20" as="geometry">
            <mxRectangle width="30" height="20" as="alternateBounds" />
          </mxGeometry>
        </mxCell>
        <mxCell id="MW2m3GR90Z3l0uTpweqN-20" value="date_of_birth: Date" style="shape=partialRectangle;connectable=0;fillColor=none;top=0;left=0;bottom=0;right=0;align=left;spacingLeft=6;overflow=hidden;whiteSpace=wrap;html=1;spacing=2;" vertex="1" parent="MW2m3GR90Z3l0uTpweqN-18">
          <mxGeometry x="30" width="173.81" height="20" as="geometry">
            <mxRectangle width="173.81" height="20" as="alternateBounds" />
          </mxGeometry>
        </mxCell>
        <mxCell id="MW2m3GR90Z3l0uTpweqN-21" style="shape=tableRow;horizontal=0;startSize=0;swimlaneHead=0;swimlaneBody=0;fillColor=none;collapsible=0;dropTarget=0;points=[[0,0.5],[1,0.5]];portConstraint=eastwest;top=0;left=0;right=0;bottom=0;spacing=2;" vertex="1" parent="MW2m3GR90Z3l0uTpweqN-2">
          <mxGeometry y="150" width="203.81" height="20" as="geometry" />
        </mxCell>
        <mxCell id="MW2m3GR90Z3l0uTpweqN-22" value="FK" style="shape=partialRectangle;connectable=0;fillColor=none;top=0;left=0;bottom=0;right=0;editable=1;overflow=hidden;whiteSpace=wrap;html=1;spacing=2;" vertex="1" parent="MW2m3GR90Z3l0uTpweqN-21">
          <mxGeometry width="30" height="20" as="geometry">
            <mxRectangle width="30" height="20" as="alternateBounds" />
          </mxGeometry>
        </mxCell>
        <mxCell id="MW2m3GR90Z3l0uTpweqN-23" value="specialization: uuid" style="shape=partialRectangle;connectable=0;fillColor=none;top=0;left=0;bottom=0;right=0;align=left;spacingLeft=6;overflow=hidden;whiteSpace=wrap;html=1;spacing=2;" vertex="1" parent="MW2m3GR90Z3l0uTpweqN-21">
          <mxGeometry x="30" width="173.81" height="20" as="geometry">
            <mxRectangle width="173.81" height="20" as="alternateBounds" />
          </mxGeometry>
        </mxCell>
        <mxCell id="MW2m3GR90Z3l0uTpweqN-24" value="" style="shape=tableRow;horizontal=0;startSize=0;swimlaneHead=0;swimlaneBody=0;fillColor=none;collapsible=0;dropTarget=0;points=[[0,0.5],[1,0.5]];portConstraint=eastwest;top=0;left=0;right=0;bottom=0;" vertex="1" parent="MW2m3GR90Z3l0uTpweqN-2">
          <mxGeometry y="170" width="203.81" height="30" as="geometry" />
        </mxCell>
        <mxCell id="MW2m3GR90Z3l0uTpweqN-25" value="FK" style="shape=partialRectangle;connectable=0;fillColor=none;top=0;left=0;bottom=0;right=0;editable=1;overflow=hidden;" vertex="1" parent="MW2m3GR90Z3l0uTpweqN-24">
          <mxGeometry width="30" height="30" as="geometry">
            <mxRectangle width="30" height="30" as="alternateBounds" />
          </mxGeometry>
        </mxCell>
        <mxCell id="MW2m3GR90Z3l0uTpweqN-26" value="staff_role_id" style="shape=partialRectangle;connectable=0;fillColor=none;top=0;left=0;bottom=0;right=0;align=left;spacingLeft=6;overflow=hidden;" vertex="1" parent="MW2m3GR90Z3l0uTpweqN-24">
          <mxGeometry x="30" width="173.81" height="30" as="geometry">
            <mxRectangle width="173.81" height="30" as="alternateBounds" />
          </mxGeometry>
        </mxCell>
        <mxCell id="MW2m3GR90Z3l0uTpweqN-27" value="" style="shape=tableRow;horizontal=0;startSize=0;swimlaneHead=0;swimlaneBody=0;fillColor=none;collapsible=0;dropTarget=0;points=[[0,0.5],[1,0.5]];portConstraint=eastwest;top=0;left=0;right=0;bottom=0;" vertex="1" parent="MW2m3GR90Z3l0uTpweqN-2">
          <mxGeometry y="200" width="203.81" height="30" as="geometry" />
        </mxCell>
        <mxCell id="MW2m3GR90Z3l0uTpweqN-28" value="FK" style="shape=partialRectangle;connectable=0;fillColor=none;top=0;left=0;bottom=0;right=0;editable=1;overflow=hidden;" vertex="1" parent="MW2m3GR90Z3l0uTpweqN-27">
          <mxGeometry width="30" height="30" as="geometry">
            <mxRectangle width="30" height="30" as="alternateBounds" />
          </mxGeometry>
        </mxCell>
        <mxCell id="MW2m3GR90Z3l0uTpweqN-29" value="gender_id" style="shape=partialRectangle;connectable=0;fillColor=none;top=0;left=0;bottom=0;right=0;align=left;spacingLeft=6;overflow=hidden;" vertex="1" parent="MW2m3GR90Z3l0uTpweqN-27">
          <mxGeometry x="30" width="173.81" height="30" as="geometry">
            <mxRectangle width="173.81" height="30" as="alternateBounds" />
          </mxGeometry>
        </mxCell>
        <mxCell id="MW2m3GR90Z3l0uTpweqN-30" value="appointment" style="shape=table;startSize=30;container=1;collapsible=1;childLayout=tableLayout;fixedRows=1;rowLines=0;fontStyle=1;align=center;resizeLast=1;html=1;spacing=2;" vertex="1" parent="MW2m3GR90Z3l0uTpweqN-1">
          <mxGeometry x="-950" y="20" width="203.80999999999995" height="160" as="geometry" />
        </mxCell>
        <mxCell id="MW2m3GR90Z3l0uTpweqN-31" value="" style="shape=tableRow;horizontal=0;startSize=0;swimlaneHead=0;swimlaneBody=0;fillColor=none;collapsible=0;dropTarget=0;points=[[0,0.5],[1,0.5]];portConstraint=eastwest;top=0;left=0;right=0;bottom=1;spacing=2;" vertex="1" parent="MW2m3GR90Z3l0uTpweqN-30">
          <mxGeometry y="30" width="203.80999999999995" height="20" as="geometry" />
        </mxCell>
        <mxCell id="MW2m3GR90Z3l0uTpweqN-32" value="PK" style="shape=partialRectangle;connectable=0;fillColor=none;top=0;left=0;bottom=0;right=0;fontStyle=1;overflow=hidden;whiteSpace=wrap;html=1;spacing=2;" vertex="1" parent="MW2m3GR90Z3l0uTpweqN-31">
          <mxGeometry width="30" height="20" as="geometry">
            <mxRectangle width="30" height="20" as="alternateBounds" />
          </mxGeometry>
        </mxCell>
        <mxCell id="MW2m3GR90Z3l0uTpweqN-33" value="id: uuid" style="shape=partialRectangle;connectable=0;fillColor=none;top=0;left=0;bottom=0;right=0;align=left;spacingLeft=6;fontStyle=5;overflow=hidden;whiteSpace=wrap;html=1;spacing=2;" vertex="1" parent="MW2m3GR90Z3l0uTpweqN-31">
          <mxGeometry x="30" width="173.80999999999995" height="20" as="geometry">
            <mxRectangle width="173.80999999999995" height="20" as="alternateBounds" />
          </mxGeometry>
        </mxCell>
        <mxCell id="MW2m3GR90Z3l0uTpweqN-34" value="" style="shape=tableRow;horizontal=0;startSize=0;swimlaneHead=0;swimlaneBody=0;fillColor=none;collapsible=0;dropTarget=0;points=[[0,0.5],[1,0.5]];portConstraint=eastwest;top=0;left=0;right=0;bottom=0;spacing=2;" vertex="1" parent="MW2m3GR90Z3l0uTpweqN-30">
          <mxGeometry y="50" width="203.80999999999995" height="20" as="geometry" />
        </mxCell>
        <mxCell id="MW2m3GR90Z3l0uTpweqN-35" value="FK" style="shape=partialRectangle;connectable=0;fillColor=none;top=0;left=0;bottom=0;right=0;editable=1;overflow=hidden;whiteSpace=wrap;html=1;spacing=2;" vertex="1" parent="MW2m3GR90Z3l0uTpweqN-34">
          <mxGeometry width="30" height="20" as="geometry">
            <mxRectangle width="30" height="20" as="alternateBounds" />
          </mxGeometry>
        </mxCell>
        <mxCell id="MW2m3GR90Z3l0uTpweqN-36" value="doctor_id : uuid" style="shape=partialRectangle;connectable=0;fillColor=none;top=0;left=0;bottom=0;right=0;align=left;spacingLeft=6;overflow=hidden;whiteSpace=wrap;html=1;spacing=2;" vertex="1" parent="MW2m3GR90Z3l0uTpweqN-34">
          <mxGeometry x="30" width="173.80999999999995" height="20" as="geometry">
            <mxRectangle width="173.80999999999995" height="20" as="alternateBounds" />
          </mxGeometry>
        </mxCell>
        <mxCell id="MW2m3GR90Z3l0uTpweqN-37" style="shape=tableRow;horizontal=0;startSize=0;swimlaneHead=0;swimlaneBody=0;fillColor=none;collapsible=0;dropTarget=0;points=[[0,0.5],[1,0.5]];portConstraint=eastwest;top=0;left=0;right=0;bottom=0;spacing=2;" vertex="1" parent="MW2m3GR90Z3l0uTpweqN-30">
          <mxGeometry y="70" width="203.80999999999995" height="20" as="geometry" />
        </mxCell>
        <mxCell id="MW2m3GR90Z3l0uTpweqN-38" value="FK" style="shape=partialRectangle;connectable=0;fillColor=none;top=0;left=0;bottom=0;right=0;editable=1;overflow=hidden;whiteSpace=wrap;html=1;spacing=2;" vertex="1" parent="MW2m3GR90Z3l0uTpweqN-37">
          <mxGeometry width="30" height="20" as="geometry">
            <mxRectangle width="30" height="20" as="alternateBounds" />
          </mxGeometry>
        </mxCell>
        <mxCell id="MW2m3GR90Z3l0uTpweqN-39" value="clinic_id: uuid" style="shape=partialRectangle;connectable=0;fillColor=none;top=0;left=0;bottom=0;right=0;align=left;spacingLeft=6;overflow=hidden;whiteSpace=wrap;html=1;spacing=2;" vertex="1" parent="MW2m3GR90Z3l0uTpweqN-37">
          <mxGeometry x="30" width="173.80999999999995" height="20" as="geometry">
            <mxRectangle width="173.80999999999995" height="20" as="alternateBounds" />
          </mxGeometry>
        </mxCell>
        <mxCell id="MW2m3GR90Z3l0uTpweqN-40" value="" style="shape=tableRow;horizontal=0;startSize=0;swimlaneHead=0;swimlaneBody=0;fillColor=none;collapsible=0;dropTarget=0;points=[[0,0.5],[1,0.5]];portConstraint=eastwest;top=0;left=0;right=0;bottom=0;spacing=2;" vertex="1" parent="MW2m3GR90Z3l0uTpweqN-30">
          <mxGeometry y="90" width="203.80999999999995" height="20" as="geometry" />
        </mxCell>
        <mxCell id="MW2m3GR90Z3l0uTpweqN-41" value="FK" style="shape=partialRectangle;connectable=0;fillColor=none;top=0;left=0;bottom=0;right=0;editable=1;overflow=hidden;whiteSpace=wrap;html=1;spacing=2;" vertex="1" parent="MW2m3GR90Z3l0uTpweqN-40">
          <mxGeometry width="30" height="20" as="geometry">
            <mxRectangle width="30" height="20" as="alternateBounds" />
          </mxGeometry>
        </mxCell>
        <mxCell id="MW2m3GR90Z3l0uTpweqN-42" value="patient_id : uuid" style="shape=partialRectangle;connectable=0;fillColor=none;top=0;left=0;bottom=0;right=0;align=left;spacingLeft=6;overflow=hidden;whiteSpace=wrap;html=1;spacing=2;" vertex="1" parent="MW2m3GR90Z3l0uTpweqN-40">
          <mxGeometry x="30" width="173.80999999999995" height="20" as="geometry">
            <mxRectangle width="173.80999999999995" height="20" as="alternateBounds" />
          </mxGeometry>
        </mxCell>
        <mxCell id="MW2m3GR90Z3l0uTpweqN-43" style="shape=tableRow;horizontal=0;startSize=0;swimlaneHead=0;swimlaneBody=0;fillColor=none;collapsible=0;dropTarget=0;points=[[0,0.5],[1,0.5]];portConstraint=eastwest;top=0;left=0;right=0;bottom=0;spacing=2;" vertex="1" parent="MW2m3GR90Z3l0uTpweqN-30">
          <mxGeometry y="110" width="203.80999999999995" height="20" as="geometry" />
        </mxCell>
        <mxCell id="MW2m3GR90Z3l0uTpweqN-44" style="shape=partialRectangle;connectable=0;fillColor=none;top=0;left=0;bottom=0;right=0;editable=1;overflow=hidden;whiteSpace=wrap;html=1;spacing=2;" vertex="1" parent="MW2m3GR90Z3l0uTpweqN-43">
          <mxGeometry width="30" height="20" as="geometry">
            <mxRectangle width="30" height="20" as="alternateBounds" />
          </mxGeometry>
        </mxCell>
        <mxCell id="MW2m3GR90Z3l0uTpweqN-45" value="date: Timestamp" style="shape=partialRectangle;connectable=0;fillColor=none;top=0;left=0;bottom=0;right=0;align=left;spacingLeft=6;overflow=hidden;whiteSpace=wrap;html=1;spacing=2;" vertex="1" parent="MW2m3GR90Z3l0uTpweqN-43">
          <mxGeometry x="30" width="173.80999999999995" height="20" as="geometry">
            <mxRectangle width="173.80999999999995" height="20" as="alternateBounds" />
          </mxGeometry>
        </mxCell>
        <mxCell id="MW2m3GR90Z3l0uTpweqN-46" value="" style="shape=tableRow;horizontal=0;startSize=0;swimlaneHead=0;swimlaneBody=0;fillColor=none;collapsible=0;dropTarget=0;points=[[0,0.5],[1,0.5]];portConstraint=eastwest;top=0;left=0;right=0;bottom=0;" vertex="1" parent="MW2m3GR90Z3l0uTpweqN-30">
          <mxGeometry y="130" width="203.80999999999995" height="30" as="geometry" />
        </mxCell>
        <mxCell id="MW2m3GR90Z3l0uTpweqN-47" value="FK" style="shape=partialRectangle;connectable=0;fillColor=none;top=0;left=0;bottom=0;right=0;editable=1;overflow=hidden;" vertex="1" parent="MW2m3GR90Z3l0uTpweqN-46">
          <mxGeometry width="30" height="30" as="geometry">
            <mxRectangle width="30" height="30" as="alternateBounds" />
          </mxGeometry>
        </mxCell>
        <mxCell id="MW2m3GR90Z3l0uTpweqN-48" value="status_id: uuid" style="shape=partialRectangle;connectable=0;fillColor=none;top=0;left=0;bottom=0;right=0;align=left;spacingLeft=6;overflow=hidden;" vertex="1" parent="MW2m3GR90Z3l0uTpweqN-46">
          <mxGeometry x="30" width="173.80999999999995" height="30" as="geometry">
            <mxRectangle width="173.80999999999995" height="30" as="alternateBounds" />
          </mxGeometry>
        </mxCell>
        <mxCell id="MW2m3GR90Z3l0uTpweqN-49" value="clinic" style="shape=table;startSize=30;container=1;collapsible=1;childLayout=tableLayout;fixedRows=1;rowLines=0;fontStyle=1;align=center;resizeLast=1;html=1;spacing=2;" vertex="1" parent="MW2m3GR90Z3l0uTpweqN-1">
          <mxGeometry x="-1250" y="750" width="203.80999999999995" height="190" as="geometry" />
        </mxCell>
        <mxCell id="MW2m3GR90Z3l0uTpweqN-50" value="" style="shape=tableRow;horizontal=0;startSize=0;swimlaneHead=0;swimlaneBody=0;fillColor=none;collapsible=0;dropTarget=0;points=[[0,0.5],[1,0.5]];portConstraint=eastwest;top=0;left=0;right=0;bottom=1;spacing=2;" vertex="1" parent="MW2m3GR90Z3l0uTpweqN-49">
          <mxGeometry y="30" width="203.80999999999995" height="20" as="geometry" />
        </mxCell>
        <mxCell id="MW2m3GR90Z3l0uTpweqN-51" value="PK" style="shape=partialRectangle;connectable=0;fillColor=none;top=0;left=0;bottom=0;right=0;fontStyle=1;overflow=hidden;whiteSpace=wrap;html=1;spacing=2;" vertex="1" parent="MW2m3GR90Z3l0uTpweqN-50">
          <mxGeometry width="30" height="20" as="geometry">
            <mxRectangle width="30" height="20" as="alternateBounds" />
          </mxGeometry>
        </mxCell>
        <mxCell id="MW2m3GR90Z3l0uTpweqN-52" value="id: uuid" style="shape=partialRectangle;connectable=0;fillColor=none;top=0;left=0;bottom=0;right=0;align=left;spacingLeft=6;fontStyle=5;overflow=hidden;whiteSpace=wrap;html=1;spacing=2;" vertex="1" parent="MW2m3GR90Z3l0uTpweqN-50">
          <mxGeometry x="30" width="173.80999999999995" height="20" as="geometry">
            <mxRectangle width="173.80999999999995" height="20" as="alternateBounds" />
          </mxGeometry>
        </mxCell>
        <mxCell id="MW2m3GR90Z3l0uTpweqN-53" value="" style="shape=tableRow;horizontal=0;startSize=0;swimlaneHead=0;swimlaneBody=0;fillColor=none;collapsible=0;dropTarget=0;points=[[0,0.5],[1,0.5]];portConstraint=eastwest;top=0;left=0;right=0;bottom=0;spacing=2;" vertex="1" parent="MW2m3GR90Z3l0uTpweqN-49">
          <mxGeometry y="50" width="203.80999999999995" height="20" as="geometry" />
        </mxCell>
        <mxCell id="MW2m3GR90Z3l0uTpweqN-54" value="" style="shape=partialRectangle;connectable=0;fillColor=none;top=0;left=0;bottom=0;right=0;editable=1;overflow=hidden;whiteSpace=wrap;html=1;spacing=2;" vertex="1" parent="MW2m3GR90Z3l0uTpweqN-53">
          <mxGeometry width="30" height="20" as="geometry">
            <mxRectangle width="30" height="20" as="alternateBounds" />
          </mxGeometry>
        </mxCell>
        <mxCell id="MW2m3GR90Z3l0uTpweqN-55" value="name : varchar" style="shape=partialRectangle;connectable=0;fillColor=none;top=0;left=0;bottom=0;right=0;align=left;spacingLeft=6;overflow=hidden;whiteSpace=wrap;html=1;spacing=2;" vertex="1" parent="MW2m3GR90Z3l0uTpweqN-53">
          <mxGeometry x="30" width="173.80999999999995" height="20" as="geometry">
            <mxRectangle width="173.80999999999995" height="20" as="alternateBounds" />
          </mxGeometry>
        </mxCell>
        <mxCell id="MW2m3GR90Z3l0uTpweqN-56" style="shape=tableRow;horizontal=0;startSize=0;swimlaneHead=0;swimlaneBody=0;fillColor=none;collapsible=0;dropTarget=0;points=[[0,0.5],[1,0.5]];portConstraint=eastwest;top=0;left=0;right=0;bottom=0;spacing=2;" vertex="1" parent="MW2m3GR90Z3l0uTpweqN-49">
          <mxGeometry y="70" width="203.80999999999995" height="20" as="geometry" />
        </mxCell>
        <mxCell id="MW2m3GR90Z3l0uTpweqN-57" style="shape=partialRectangle;connectable=0;fillColor=none;top=0;left=0;bottom=0;right=0;editable=1;overflow=hidden;whiteSpace=wrap;html=1;spacing=2;" vertex="1" parent="MW2m3GR90Z3l0uTpweqN-56">
          <mxGeometry width="30" height="20" as="geometry">
            <mxRectangle width="30" height="20" as="alternateBounds" />
          </mxGeometry>
        </mxCell>
        <mxCell id="MW2m3GR90Z3l0uTpweqN-58" value="street: varchar" style="shape=partialRectangle;connectable=0;fillColor=none;top=0;left=0;bottom=0;right=0;align=left;spacingLeft=6;overflow=hidden;whiteSpace=wrap;html=1;spacing=2;" vertex="1" parent="MW2m3GR90Z3l0uTpweqN-56">
          <mxGeometry x="30" width="173.80999999999995" height="20" as="geometry">
            <mxRectangle width="173.80999999999995" height="20" as="alternateBounds" />
          </mxGeometry>
        </mxCell>
        <mxCell id="MW2m3GR90Z3l0uTpweqN-59" style="shape=tableRow;horizontal=0;startSize=0;swimlaneHead=0;swimlaneBody=0;fillColor=none;collapsible=0;dropTarget=0;points=[[0,0.5],[1,0.5]];portConstraint=eastwest;top=0;left=0;right=0;bottom=0;spacing=2;" vertex="1" parent="MW2m3GR90Z3l0uTpweqN-49">
          <mxGeometry y="90" width="203.80999999999995" height="20" as="geometry" />
        </mxCell>
        <mxCell id="MW2m3GR90Z3l0uTpweqN-60" style="shape=partialRectangle;connectable=0;fillColor=none;top=0;left=0;bottom=0;right=0;editable=1;overflow=hidden;whiteSpace=wrap;html=1;spacing=2;" vertex="1" parent="MW2m3GR90Z3l0uTpweqN-59">
          <mxGeometry width="30" height="20" as="geometry">
            <mxRectangle width="30" height="20" as="alternateBounds" />
          </mxGeometry>
        </mxCell>
        <mxCell id="MW2m3GR90Z3l0uTpweqN-61" value="number: int" style="shape=partialRectangle;connectable=0;fillColor=none;top=0;left=0;bottom=0;right=0;align=left;spacingLeft=6;overflow=hidden;whiteSpace=wrap;html=1;spacing=2;" vertex="1" parent="MW2m3GR90Z3l0uTpweqN-59">
          <mxGeometry x="30" width="173.80999999999995" height="20" as="geometry">
            <mxRectangle width="173.80999999999995" height="20" as="alternateBounds" />
          </mxGeometry>
        </mxCell>
        <mxCell id="MW2m3GR90Z3l0uTpweqN-62" style="shape=tableRow;horizontal=0;startSize=0;swimlaneHead=0;swimlaneBody=0;fillColor=none;collapsible=0;dropTarget=0;points=[[0,0.5],[1,0.5]];portConstraint=eastwest;top=0;left=0;right=0;bottom=0;spacing=2;" vertex="1" parent="MW2m3GR90Z3l0uTpweqN-49">
          <mxGeometry y="110" width="203.80999999999995" height="20" as="geometry" />
        </mxCell>
        <mxCell id="MW2m3GR90Z3l0uTpweqN-63" style="shape=partialRectangle;connectable=0;fillColor=none;top=0;left=0;bottom=0;right=0;editable=1;overflow=hidden;whiteSpace=wrap;html=1;spacing=2;" vertex="1" parent="MW2m3GR90Z3l0uTpweqN-62">
          <mxGeometry width="30" height="20" as="geometry">
            <mxRectangle width="30" height="20" as="alternateBounds" />
          </mxGeometry>
        </mxCell>
        <mxCell id="MW2m3GR90Z3l0uTpweqN-64" value="number_extension: int" style="shape=partialRectangle;connectable=0;fillColor=none;top=0;left=0;bottom=0;right=0;align=left;spacingLeft=6;overflow=hidden;whiteSpace=wrap;html=1;spacing=2;" vertex="1" parent="MW2m3GR90Z3l0uTpweqN-62">
          <mxGeometry x="30" width="173.80999999999995" height="20" as="geometry">
            <mxRectangle width="173.80999999999995" height="20" as="alternateBounds" />
          </mxGeometry>
        </mxCell>
        <mxCell id="MW2m3GR90Z3l0uTpweqN-65" style="shape=tableRow;horizontal=0;startSize=0;swimlaneHead=0;swimlaneBody=0;fillColor=none;collapsible=0;dropTarget=0;points=[[0,0.5],[1,0.5]];portConstraint=eastwest;top=0;left=0;right=0;bottom=0;spacing=2;" vertex="1" parent="MW2m3GR90Z3l0uTpweqN-49">
          <mxGeometry y="130" width="203.80999999999995" height="20" as="geometry" />
        </mxCell>
        <mxCell id="MW2m3GR90Z3l0uTpweqN-66" style="shape=partialRectangle;connectable=0;fillColor=none;top=0;left=0;bottom=0;right=0;editable=1;overflow=hidden;whiteSpace=wrap;html=1;spacing=2;" vertex="1" parent="MW2m3GR90Z3l0uTpweqN-65">
          <mxGeometry width="30" height="20" as="geometry">
            <mxRectangle width="30" height="20" as="alternateBounds" />
          </mxGeometry>
        </mxCell>
        <mxCell id="MW2m3GR90Z3l0uTpweqN-67" value="city: varchar" style="shape=partialRectangle;connectable=0;fillColor=none;top=0;left=0;bottom=0;right=0;align=left;spacingLeft=6;overflow=hidden;whiteSpace=wrap;html=1;spacing=2;" vertex="1" parent="MW2m3GR90Z3l0uTpweqN-65">
          <mxGeometry x="30" width="173.80999999999995" height="20" as="geometry">
            <mxRectangle width="173.80999999999995" height="20" as="alternateBounds" />
          </mxGeometry>
        </mxCell>
        <mxCell id="MW2m3GR90Z3l0uTpweqN-68" style="shape=tableRow;horizontal=0;startSize=0;swimlaneHead=0;swimlaneBody=0;fillColor=none;collapsible=0;dropTarget=0;points=[[0,0.5],[1,0.5]];portConstraint=eastwest;top=0;left=0;right=0;bottom=0;spacing=2;" vertex="1" parent="MW2m3GR90Z3l0uTpweqN-49">
          <mxGeometry y="150" width="203.80999999999995" height="20" as="geometry" />
        </mxCell>
        <mxCell id="MW2m3GR90Z3l0uTpweqN-69" style="shape=partialRectangle;connectable=0;fillColor=none;top=0;left=0;bottom=0;right=0;editable=1;overflow=hidden;whiteSpace=wrap;html=1;spacing=2;" vertex="1" parent="MW2m3GR90Z3l0uTpweqN-68">
          <mxGeometry width="30" height="20" as="geometry">
            <mxRectangle width="30" height="20" as="alternateBounds" />
          </mxGeometry>
        </mxCell>
        <mxCell id="MW2m3GR90Z3l0uTpweqN-70" value="country: varchar" style="shape=partialRectangle;connectable=0;fillColor=none;top=0;left=0;bottom=0;right=0;align=left;spacingLeft=6;overflow=hidden;whiteSpace=wrap;html=1;spacing=2;" vertex="1" parent="MW2m3GR90Z3l0uTpweqN-68">
          <mxGeometry x="30" width="173.80999999999995" height="20" as="geometry">
            <mxRectangle width="173.80999999999995" height="20" as="alternateBounds" />
          </mxGeometry>
        </mxCell>
        <mxCell id="MW2m3GR90Z3l0uTpweqN-71" style="shape=tableRow;horizontal=0;startSize=0;swimlaneHead=0;swimlaneBody=0;fillColor=none;collapsible=0;dropTarget=0;points=[[0,0.5],[1,0.5]];portConstraint=eastwest;top=0;left=0;right=0;bottom=0;spacing=2;" vertex="1" parent="MW2m3GR90Z3l0uTpweqN-49">
          <mxGeometry y="170" width="203.80999999999995" height="20" as="geometry" />
        </mxCell>
        <mxCell id="MW2m3GR90Z3l0uTpweqN-72" style="shape=partialRectangle;connectable=0;fillColor=none;top=0;left=0;bottom=0;right=0;editable=1;overflow=hidden;whiteSpace=wrap;html=1;spacing=2;" vertex="1" parent="MW2m3GR90Z3l0uTpweqN-71">
          <mxGeometry width="30" height="20" as="geometry">
            <mxRectangle width="30" height="20" as="alternateBounds" />
          </mxGeometry>
        </mxCell>
        <mxCell id="MW2m3GR90Z3l0uTpweqN-73" value="zip_code: varchar" style="shape=partialRectangle;connectable=0;fillColor=none;top=0;left=0;bottom=0;right=0;align=left;spacingLeft=6;overflow=hidden;whiteSpace=wrap;html=1;spacing=2;" vertex="1" parent="MW2m3GR90Z3l0uTpweqN-71">
          <mxGeometry x="30" width="173.80999999999995" height="20" as="geometry">
            <mxRectangle width="173.80999999999995" height="20" as="alternateBounds" />
          </mxGeometry>
        </mxCell>
        <mxCell id="MW2m3GR90Z3l0uTpweqN-74" value="staff_role" style="shape=table;startSize=30;container=1;collapsible=1;childLayout=tableLayout;fixedRows=1;rowLines=0;fontStyle=1;align=center;resizeLast=1;html=1;spacing=2;" vertex="1" parent="MW2m3GR90Z3l0uTpweqN-1">
          <mxGeometry x="-550" y="570" width="203.80999999999995" height="100" as="geometry" />
        </mxCell>
        <mxCell id="MW2m3GR90Z3l0uTpweqN-75" value="" style="shape=tableRow;horizontal=0;startSize=0;swimlaneHead=0;swimlaneBody=0;fillColor=none;collapsible=0;dropTarget=0;points=[[0,0.5],[1,0.5]];portConstraint=eastwest;top=0;left=0;right=0;bottom=1;spacing=2;" vertex="1" parent="MW2m3GR90Z3l0uTpweqN-74">
          <mxGeometry y="30" width="203.80999999999995" height="20" as="geometry" />
        </mxCell>
        <mxCell id="MW2m3GR90Z3l0uTpweqN-76" value="PK" style="shape=partialRectangle;connectable=0;fillColor=none;top=0;left=0;bottom=0;right=0;fontStyle=1;overflow=hidden;whiteSpace=wrap;html=1;spacing=2;" vertex="1" parent="MW2m3GR90Z3l0uTpweqN-75">
          <mxGeometry width="30" height="20" as="geometry">
            <mxRectangle width="30" height="20" as="alternateBounds" />
          </mxGeometry>
        </mxCell>
        <mxCell id="MW2m3GR90Z3l0uTpweqN-77" value="id: UniqueID" style="shape=partialRectangle;connectable=0;fillColor=none;top=0;left=0;bottom=0;right=0;align=left;spacingLeft=6;fontStyle=5;overflow=hidden;whiteSpace=wrap;html=1;spacing=2;" vertex="1" parent="MW2m3GR90Z3l0uTpweqN-75">
          <mxGeometry x="30" width="173.80999999999995" height="20" as="geometry">
            <mxRectangle width="173.80999999999995" height="20" as="alternateBounds" />
          </mxGeometry>
        </mxCell>
        <mxCell id="MW2m3GR90Z3l0uTpweqN-78" value="" style="shape=tableRow;horizontal=0;startSize=0;swimlaneHead=0;swimlaneBody=0;fillColor=none;collapsible=0;dropTarget=0;points=[[0,0.5],[1,0.5]];portConstraint=eastwest;top=0;left=0;right=0;bottom=0;spacing=2;" vertex="1" parent="MW2m3GR90Z3l0uTpweqN-74">
          <mxGeometry y="50" width="203.80999999999995" height="20" as="geometry" />
        </mxCell>
        <mxCell id="MW2m3GR90Z3l0uTpweqN-79" value="" style="shape=partialRectangle;connectable=0;fillColor=none;top=0;left=0;bottom=0;right=0;editable=1;overflow=hidden;whiteSpace=wrap;html=1;spacing=2;" vertex="1" parent="MW2m3GR90Z3l0uTpweqN-78">
          <mxGeometry width="30" height="20" as="geometry">
            <mxRectangle width="30" height="20" as="alternateBounds" />
          </mxGeometry>
        </mxCell>
        <mxCell id="MW2m3GR90Z3l0uTpweqN-80" value="name: varchar" style="shape=partialRectangle;connectable=0;fillColor=none;top=0;left=0;bottom=0;right=0;align=left;spacingLeft=6;overflow=hidden;whiteSpace=wrap;html=1;spacing=2;" vertex="1" parent="MW2m3GR90Z3l0uTpweqN-78">
          <mxGeometry x="30" width="173.80999999999995" height="20" as="geometry">
            <mxRectangle width="173.80999999999995" height="20" as="alternateBounds" />
          </mxGeometry>
        </mxCell>
        <mxCell id="MW2m3GR90Z3l0uTpweqN-81" value="" style="shape=tableRow;horizontal=0;startSize=0;swimlaneHead=0;swimlaneBody=0;fillColor=none;collapsible=0;dropTarget=0;points=[[0,0.5],[1,0.5]];portConstraint=eastwest;top=0;left=0;right=0;bottom=0;" vertex="1" parent="MW2m3GR90Z3l0uTpweqN-74">
          <mxGeometry y="70" width="203.80999999999995" height="30" as="geometry" />
        </mxCell>
        <mxCell id="MW2m3GR90Z3l0uTpweqN-82" value="FK" style="shape=partialRectangle;connectable=0;fillColor=none;top=0;left=0;bottom=0;right=0;editable=1;overflow=hidden;" vertex="1" parent="MW2m3GR90Z3l0uTpweqN-81">
          <mxGeometry width="30" height="30" as="geometry">
            <mxRectangle width="30" height="30" as="alternateBounds" />
          </mxGeometry>
        </mxCell>
        <mxCell id="MW2m3GR90Z3l0uTpweqN-83" value="permission_id" style="shape=partialRectangle;connectable=0;fillColor=none;top=0;left=0;bottom=0;right=0;align=left;spacingLeft=6;overflow=hidden;" vertex="1" parent="MW2m3GR90Z3l0uTpweqN-81">
          <mxGeometry x="30" width="173.80999999999995" height="30" as="geometry">
            <mxRectangle width="173.80999999999995" height="30" as="alternateBounds" />
          </mxGeometry>
        </mxCell>
        <mxCell id="MW2m3GR90Z3l0uTpweqN-91" value="" style="shape=tableRow;horizontal=0;startSize=0;swimlaneHead=0;swimlaneBody=0;fillColor=none;collapsible=0;dropTarget=0;points=[[0,0.5],[1,0.5]];portConstraint=eastwest;top=0;left=0;right=0;bottom=0;spacing=2;" vertex="1" parent="MW2m3GR90Z3l0uTpweqN-1">
          <mxGeometry x="-830" y="490" width="203.80999999999995" height="20" as="geometry" />
        </mxCell>
        <mxCell id="MW2m3GR90Z3l0uTpweqN-92" value="" style="shape=partialRectangle;connectable=0;fillColor=none;top=0;left=0;bottom=0;right=0;editable=1;overflow=hidden;whiteSpace=wrap;html=1;spacing=2;" vertex="1" parent="MW2m3GR90Z3l0uTpweqN-91">
          <mxGeometry width="30" height="20" as="geometry">
            <mxRectangle width="30" height="20" as="alternateBounds" />
          </mxGeometry>
        </mxCell>
        <mxCell id="MW2m3GR90Z3l0uTpweqN-93" value="permisions" style="shape=table;startSize=30;container=1;collapsible=1;childLayout=tableLayout;fixedRows=1;rowLines=0;fontStyle=1;align=center;resizeLast=1;html=1;" vertex="1" parent="MW2m3GR90Z3l0uTpweqN-1">
          <mxGeometry x="-940" y="540" width="200" height="90" as="geometry" />
        </mxCell>
        <mxCell id="MW2m3GR90Z3l0uTpweqN-94" value="" style="shape=tableRow;horizontal=0;startSize=0;swimlaneHead=0;swimlaneBody=0;fillColor=none;collapsible=0;dropTarget=0;points=[[0,0.5],[1,0.5]];portConstraint=eastwest;top=0;left=0;right=0;bottom=1;" vertex="1" parent="MW2m3GR90Z3l0uTpweqN-93">
          <mxGeometry y="30" width="200" height="30" as="geometry" />
        </mxCell>
        <mxCell id="MW2m3GR90Z3l0uTpweqN-95" value="PK" style="shape=partialRectangle;connectable=0;fillColor=none;top=0;left=0;bottom=0;right=0;fontStyle=1;overflow=hidden;whiteSpace=wrap;html=1;" vertex="1" parent="MW2m3GR90Z3l0uTpweqN-94">
          <mxGeometry width="30" height="30" as="geometry">
            <mxRectangle width="30" height="30" as="alternateBounds" />
          </mxGeometry>
        </mxCell>
        <mxCell id="MW2m3GR90Z3l0uTpweqN-96" value="id" style="shape=partialRectangle;connectable=0;fillColor=none;top=0;left=0;bottom=0;right=0;align=left;spacingLeft=6;fontStyle=5;overflow=hidden;whiteSpace=wrap;html=1;" vertex="1" parent="MW2m3GR90Z3l0uTpweqN-94">
          <mxGeometry x="30" width="170" height="30" as="geometry">
            <mxRectangle width="170" height="30" as="alternateBounds" />
          </mxGeometry>
        </mxCell>
        <mxCell id="MW2m3GR90Z3l0uTpweqN-97" value="" style="shape=tableRow;horizontal=0;startSize=0;swimlaneHead=0;swimlaneBody=0;fillColor=none;collapsible=0;dropTarget=0;points=[[0,0.5],[1,0.5]];portConstraint=eastwest;top=0;left=0;right=0;bottom=0;" vertex="1" parent="MW2m3GR90Z3l0uTpweqN-93">
          <mxGeometry y="60" width="200" height="30" as="geometry" />
        </mxCell>
        <mxCell id="MW2m3GR90Z3l0uTpweqN-98" value="" style="shape=partialRectangle;connectable=0;fillColor=none;top=0;left=0;bottom=0;right=0;editable=1;overflow=hidden;whiteSpace=wrap;html=1;" vertex="1" parent="MW2m3GR90Z3l0uTpweqN-97">
          <mxGeometry width="30" height="30" as="geometry">
            <mxRectangle width="30" height="30" as="alternateBounds" />
          </mxGeometry>
        </mxCell>
        <mxCell id="MW2m3GR90Z3l0uTpweqN-99" value="name" style="shape=partialRectangle;connectable=0;fillColor=none;top=0;left=0;bottom=0;right=0;align=left;spacingLeft=6;overflow=hidden;whiteSpace=wrap;html=1;" vertex="1" parent="MW2m3GR90Z3l0uTpweqN-97">
          <mxGeometry x="30" width="170" height="30" as="geometry">
            <mxRectangle width="170" height="30" as="alternateBounds" />
          </mxGeometry>
        </mxCell>
        <mxCell id="MW2m3GR90Z3l0uTpweqN-100" value="patient_auth_data" style="shape=table;startSize=30;container=1;collapsible=1;childLayout=tableLayout;fixedRows=1;rowLines=0;fontStyle=1;align=center;resizeLast=1;html=1;" vertex="1" parent="MW2m3GR90Z3l0uTpweqN-1">
          <mxGeometry x="-1640" y="15" width="180" height="120" as="geometry" />
        </mxCell>
        <mxCell id="MW2m3GR90Z3l0uTpweqN-101" value="" style="shape=tableRow;horizontal=0;startSize=0;swimlaneHead=0;swimlaneBody=0;fillColor=none;collapsible=0;dropTarget=0;points=[[0,0.5],[1,0.5]];portConstraint=eastwest;top=0;left=0;right=0;bottom=1;" vertex="1" parent="MW2m3GR90Z3l0uTpweqN-100">
          <mxGeometry y="30" width="180" height="30" as="geometry" />
        </mxCell>
        <mxCell id="MW2m3GR90Z3l0uTpweqN-102" value="PK" style="shape=partialRectangle;connectable=0;fillColor=none;top=0;left=0;bottom=0;right=0;fontStyle=1;overflow=hidden;whiteSpace=wrap;html=1;" vertex="1" parent="MW2m3GR90Z3l0uTpweqN-101">
          <mxGeometry width="30" height="30" as="geometry">
            <mxRectangle width="30" height="30" as="alternateBounds" />
          </mxGeometry>
        </mxCell>
        <mxCell id="MW2m3GR90Z3l0uTpweqN-103" value="id" style="shape=partialRectangle;connectable=0;fillColor=none;top=0;left=0;bottom=0;right=0;align=left;spacingLeft=6;fontStyle=5;overflow=hidden;whiteSpace=wrap;html=1;" vertex="1" parent="MW2m3GR90Z3l0uTpweqN-101">
          <mxGeometry x="30" width="150" height="30" as="geometry">
            <mxRectangle width="150" height="30" as="alternateBounds" />
          </mxGeometry>
        </mxCell>
        <mxCell id="MW2m3GR90Z3l0uTpweqN-104" value="" style="shape=tableRow;horizontal=0;startSize=0;swimlaneHead=0;swimlaneBody=0;fillColor=none;collapsible=0;dropTarget=0;points=[[0,0.5],[1,0.5]];portConstraint=eastwest;top=0;left=0;right=0;bottom=0;" vertex="1" parent="MW2m3GR90Z3l0uTpweqN-100">
          <mxGeometry y="60" width="180" height="30" as="geometry" />
        </mxCell>
        <mxCell id="MW2m3GR90Z3l0uTpweqN-105" value="" style="shape=partialRectangle;connectable=0;fillColor=none;top=0;left=0;bottom=0;right=0;editable=1;overflow=hidden;whiteSpace=wrap;html=1;" vertex="1" parent="MW2m3GR90Z3l0uTpweqN-104">
          <mxGeometry width="30" height="30" as="geometry">
            <mxRectangle width="30" height="30" as="alternateBounds" />
          </mxGeometry>
        </mxCell>
        <mxCell id="MW2m3GR90Z3l0uTpweqN-106" value="email_address: varchar" style="shape=partialRectangle;connectable=0;fillColor=none;top=0;left=0;bottom=0;right=0;align=left;spacingLeft=6;overflow=hidden;whiteSpace=wrap;html=1;" vertex="1" parent="MW2m3GR90Z3l0uTpweqN-104">
          <mxGeometry x="30" width="150" height="30" as="geometry">
            <mxRectangle width="150" height="30" as="alternateBounds" />
          </mxGeometry>
        </mxCell>
        <mxCell id="MW2m3GR90Z3l0uTpweqN-107" value="" style="shape=tableRow;horizontal=0;startSize=0;swimlaneHead=0;swimlaneBody=0;fillColor=none;collapsible=0;dropTarget=0;points=[[0,0.5],[1,0.5]];portConstraint=eastwest;top=0;left=0;right=0;bottom=0;" vertex="1" parent="MW2m3GR90Z3l0uTpweqN-100">
          <mxGeometry y="90" width="180" height="30" as="geometry" />
        </mxCell>
        <mxCell id="MW2m3GR90Z3l0uTpweqN-108" value="" style="shape=partialRectangle;connectable=0;fillColor=none;top=0;left=0;bottom=0;right=0;editable=1;overflow=hidden;whiteSpace=wrap;html=1;" vertex="1" parent="MW2m3GR90Z3l0uTpweqN-107">
          <mxGeometry width="30" height="30" as="geometry">
            <mxRectangle width="30" height="30" as="alternateBounds" />
          </mxGeometry>
        </mxCell>
        <mxCell id="MW2m3GR90Z3l0uTpweqN-109" value="password: varchar" style="shape=partialRectangle;connectable=0;fillColor=none;top=0;left=0;bottom=0;right=0;align=left;spacingLeft=6;overflow=hidden;whiteSpace=wrap;html=1;" vertex="1" parent="MW2m3GR90Z3l0uTpweqN-107">
          <mxGeometry x="30" width="150" height="30" as="geometry">
            <mxRectangle width="150" height="30" as="alternateBounds" />
          </mxGeometry>
        </mxCell>
        <mxCell id="MW2m3GR90Z3l0uTpweqN-111" value="patient" style="shape=table;startSize=20;container=1;collapsible=1;childLayout=tableLayout;fixedRows=1;rowLines=0;fontStyle=1;align=center;resizeLast=1;html=1;spacing=2;" vertex="1" parent="MW2m3GR90Z3l0uTpweqN-1">
          <mxGeometry x="-1630" y="160" width="203.81" height="190" as="geometry" />
        </mxCell>
        <mxCell id="MW2m3GR90Z3l0uTpweqN-112" value="" style="shape=tableRow;horizontal=0;startSize=0;swimlaneHead=0;swimlaneBody=0;fillColor=none;collapsible=0;dropTarget=0;points=[[0,0.5],[1,0.5]];portConstraint=eastwest;top=0;left=0;right=0;bottom=0;" vertex="1" parent="MW2m3GR90Z3l0uTpweqN-111">
          <mxGeometry y="20" width="203.81" height="30" as="geometry" />
        </mxCell>
        <mxCell id="MW2m3GR90Z3l0uTpweqN-113" value="FK" style="shape=partialRectangle;connectable=0;fillColor=none;top=0;left=0;bottom=0;right=0;editable=1;overflow=hidden;" vertex="1" parent="MW2m3GR90Z3l0uTpweqN-112">
          <mxGeometry width="22.190000000000055" height="30" as="geometry">
            <mxRectangle width="22.190000000000055" height="30" as="alternateBounds" />
          </mxGeometry>
        </mxCell>
        <mxCell id="MW2m3GR90Z3l0uTpweqN-114" value="id: UUID" style="shape=partialRectangle;connectable=0;fillColor=none;top=0;left=0;bottom=0;right=0;align=left;spacingLeft=6;overflow=hidden;" vertex="1" parent="MW2m3GR90Z3l0uTpweqN-112">
          <mxGeometry x="22.190000000000055" width="181.61999999999995" height="30" as="geometry">
            <mxRectangle width="181.61999999999995" height="30" as="alternateBounds" />
          </mxGeometry>
        </mxCell>
        <mxCell id="MW2m3GR90Z3l0uTpweqN-115" value="" style="shape=tableRow;horizontal=0;startSize=0;swimlaneHead=0;swimlaneBody=0;fillColor=none;collapsible=0;dropTarget=0;points=[[0,0.5],[1,0.5]];portConstraint=eastwest;top=0;left=0;right=0;bottom=0;spacing=2;" vertex="1" parent="MW2m3GR90Z3l0uTpweqN-111">
          <mxGeometry y="50" width="203.81" height="20" as="geometry" />
        </mxCell>
        <mxCell id="MW2m3GR90Z3l0uTpweqN-116" value="" style="shape=partialRectangle;connectable=0;fillColor=none;top=0;left=0;bottom=0;right=0;editable=1;overflow=hidden;whiteSpace=wrap;html=1;spacing=2;" vertex="1" parent="MW2m3GR90Z3l0uTpweqN-115">
          <mxGeometry width="22.190000000000055" height="20" as="geometry">
            <mxRectangle width="22.190000000000055" height="20" as="alternateBounds" />
          </mxGeometry>
        </mxCell>
        <mxCell id="MW2m3GR90Z3l0uTpweqN-117" value="first_name : varchar" style="shape=partialRectangle;connectable=0;fillColor=none;top=0;left=0;bottom=0;right=0;align=left;spacingLeft=6;overflow=hidden;whiteSpace=wrap;html=1;spacing=2;" vertex="1" parent="MW2m3GR90Z3l0uTpweqN-115">
          <mxGeometry x="22.190000000000055" width="181.61999999999995" height="20" as="geometry">
            <mxRectangle width="181.61999999999995" height="20" as="alternateBounds" />
          </mxGeometry>
        </mxCell>
        <mxCell id="MW2m3GR90Z3l0uTpweqN-118" value="" style="shape=tableRow;horizontal=0;startSize=0;swimlaneHead=0;swimlaneBody=0;fillColor=none;collapsible=0;dropTarget=0;points=[[0,0.5],[1,0.5]];portConstraint=eastwest;top=0;left=0;right=0;bottom=0;" vertex="1" parent="MW2m3GR90Z3l0uTpweqN-111">
          <mxGeometry y="70" width="203.81" height="30" as="geometry" />
        </mxCell>
        <mxCell id="MW2m3GR90Z3l0uTpweqN-119" value="" style="shape=partialRectangle;connectable=0;fillColor=none;top=0;left=0;bottom=0;right=0;editable=1;overflow=hidden;" vertex="1" parent="MW2m3GR90Z3l0uTpweqN-118">
          <mxGeometry width="22.190000000000055" height="30" as="geometry">
            <mxRectangle width="22.190000000000055" height="30" as="alternateBounds" />
          </mxGeometry>
        </mxCell>
        <mxCell id="MW2m3GR90Z3l0uTpweqN-120" value="last_name: varchar" style="shape=partialRectangle;connectable=0;fillColor=none;top=0;left=0;bottom=0;right=0;align=left;spacingLeft=6;overflow=hidden;" vertex="1" parent="MW2m3GR90Z3l0uTpweqN-118">
          <mxGeometry x="22.190000000000055" width="181.61999999999995" height="30" as="geometry">
            <mxRectangle width="181.61999999999995" height="30" as="alternateBounds" />
          </mxGeometry>
        </mxCell>
        <mxCell id="MW2m3GR90Z3l0uTpweqN-121" style="shape=tableRow;horizontal=0;startSize=0;swimlaneHead=0;swimlaneBody=0;fillColor=none;collapsible=0;dropTarget=0;points=[[0,0.5],[1,0.5]];portConstraint=eastwest;top=0;left=0;right=0;bottom=0;spacing=2;" vertex="1" parent="MW2m3GR90Z3l0uTpweqN-111">
          <mxGeometry y="100" width="203.81" height="20" as="geometry" />
        </mxCell>
        <mxCell id="MW2m3GR90Z3l0uTpweqN-122" style="shape=partialRectangle;connectable=0;fillColor=none;top=0;left=0;bottom=0;right=0;editable=1;overflow=hidden;whiteSpace=wrap;html=1;spacing=2;" vertex="1" parent="MW2m3GR90Z3l0uTpweqN-121">
          <mxGeometry width="22.190000000000055" height="20" as="geometry">
            <mxRectangle width="22.190000000000055" height="20" as="alternateBounds" />
          </mxGeometry>
        </mxCell>
        <mxCell id="MW2m3GR90Z3l0uTpweqN-123" value="image: varchar" style="shape=partialRectangle;connectable=0;fillColor=none;top=0;left=0;bottom=0;right=0;align=left;spacingLeft=6;overflow=hidden;whiteSpace=wrap;html=1;spacing=2;" vertex="1" parent="MW2m3GR90Z3l0uTpweqN-121">
          <mxGeometry x="22.190000000000055" width="181.61999999999995" height="20" as="geometry">
            <mxRectangle width="181.61999999999995" height="20" as="alternateBounds" />
          </mxGeometry>
        </mxCell>
        <mxCell id="MW2m3GR90Z3l0uTpweqN-124" style="shape=tableRow;horizontal=0;startSize=0;swimlaneHead=0;swimlaneBody=0;fillColor=none;collapsible=0;dropTarget=0;points=[[0,0.5],[1,0.5]];portConstraint=eastwest;top=0;left=0;right=0;bottom=0;spacing=2;" vertex="1" parent="MW2m3GR90Z3l0uTpweqN-111">
          <mxGeometry y="120" width="203.81" height="20" as="geometry" />
        </mxCell>
        <mxCell id="MW2m3GR90Z3l0uTpweqN-125" style="shape=partialRectangle;connectable=0;fillColor=none;top=0;left=0;bottom=0;right=0;editable=1;overflow=hidden;whiteSpace=wrap;html=1;spacing=2;" vertex="1" parent="MW2m3GR90Z3l0uTpweqN-124">
          <mxGeometry width="22.190000000000055" height="20" as="geometry">
            <mxRectangle width="22.190000000000055" height="20" as="alternateBounds" />
          </mxGeometry>
        </mxCell>
        <mxCell id="MW2m3GR90Z3l0uTpweqN-126" value="date_of_birth: Date" style="shape=partialRectangle;connectable=0;fillColor=none;top=0;left=0;bottom=0;right=0;align=left;spacingLeft=6;overflow=hidden;whiteSpace=wrap;html=1;spacing=2;" vertex="1" parent="MW2m3GR90Z3l0uTpweqN-124">
          <mxGeometry x="22.190000000000055" width="181.61999999999995" height="20" as="geometry">
            <mxRectangle width="181.61999999999995" height="20" as="alternateBounds" />
          </mxGeometry>
        </mxCell>
        <mxCell id="MW2m3GR90Z3l0uTpweqN-127" style="shape=tableRow;horizontal=0;startSize=0;swimlaneHead=0;swimlaneBody=0;fillColor=none;collapsible=0;dropTarget=0;points=[[0,0.5],[1,0.5]];portConstraint=eastwest;top=0;left=0;right=0;bottom=0;spacing=2;" vertex="1" parent="MW2m3GR90Z3l0uTpweqN-111">
          <mxGeometry y="140" width="203.81" height="20" as="geometry" />
        </mxCell>
        <mxCell id="MW2m3GR90Z3l0uTpweqN-128" style="shape=partialRectangle;connectable=0;fillColor=none;top=0;left=0;bottom=0;right=0;editable=1;overflow=hidden;whiteSpace=wrap;html=1;spacing=2;" vertex="1" parent="MW2m3GR90Z3l0uTpweqN-127">
          <mxGeometry width="22.190000000000055" height="20" as="geometry">
            <mxRectangle width="22.190000000000055" height="20" as="alternateBounds" />
          </mxGeometry>
        </mxCell>
        <mxCell id="MW2m3GR90Z3l0uTpweqN-129" value="phone_number : varchar" style="shape=partialRectangle;connectable=0;fillColor=none;top=0;left=0;bottom=0;right=0;align=left;spacingLeft=6;overflow=hidden;whiteSpace=wrap;html=1;spacing=2;" vertex="1" parent="MW2m3GR90Z3l0uTpweqN-127">
          <mxGeometry x="22.190000000000055" width="181.61999999999995" height="20" as="geometry">
            <mxRectangle width="181.61999999999995" height="20" as="alternateBounds" />
          </mxGeometry>
        </mxCell>
        <mxCell id="MW2m3GR90Z3l0uTpweqN-130" value="" style="shape=tableRow;horizontal=0;startSize=0;swimlaneHead=0;swimlaneBody=0;fillColor=none;collapsible=0;dropTarget=0;points=[[0,0.5],[1,0.5]];portConstraint=eastwest;top=0;left=0;right=0;bottom=0;" vertex="1" parent="MW2m3GR90Z3l0uTpweqN-111">
          <mxGeometry y="160" width="203.81" height="30" as="geometry" />
        </mxCell>
        <mxCell id="MW2m3GR90Z3l0uTpweqN-131" value="FK" style="shape=partialRectangle;connectable=0;fillColor=none;top=0;left=0;bottom=0;right=0;editable=1;overflow=hidden;" vertex="1" parent="MW2m3GR90Z3l0uTpweqN-130">
          <mxGeometry width="22.190000000000055" height="30" as="geometry">
            <mxRectangle width="22.190000000000055" height="30" as="alternateBounds" />
          </mxGeometry>
        </mxCell>
        <mxCell id="MW2m3GR90Z3l0uTpweqN-132" value="gender_id: uuid" style="shape=partialRectangle;connectable=0;fillColor=none;top=0;left=0;bottom=0;right=0;align=left;spacingLeft=6;overflow=hidden;" vertex="1" parent="MW2m3GR90Z3l0uTpweqN-130">
          <mxGeometry x="22.190000000000055" width="181.61999999999995" height="30" as="geometry">
            <mxRectangle width="181.61999999999995" height="30" as="alternateBounds" />
          </mxGeometry>
        </mxCell>
        <mxCell id="MW2m3GR90Z3l0uTpweqN-133" value="genders" style="shape=table;startSize=30;container=1;collapsible=1;childLayout=tableLayout;fixedRows=1;rowLines=0;fontStyle=1;align=center;resizeLast=1;html=1;" vertex="1" parent="MW2m3GR90Z3l0uTpweqN-1">
          <mxGeometry x="-1606.1899999999998" y="750" width="180" height="110" as="geometry" />
        </mxCell>
        <mxCell id="MW2m3GR90Z3l0uTpweqN-134" value="" style="shape=tableRow;horizontal=0;startSize=0;swimlaneHead=0;swimlaneBody=0;fillColor=none;collapsible=0;dropTarget=0;points=[[0,0.5],[1,0.5]];portConstraint=eastwest;top=0;left=0;right=0;bottom=1;" vertex="1" parent="MW2m3GR90Z3l0uTpweqN-133">
          <mxGeometry y="30" width="180" height="30" as="geometry" />
        </mxCell>
        <mxCell id="MW2m3GR90Z3l0uTpweqN-135" value="PK" style="shape=partialRectangle;connectable=0;fillColor=none;top=0;left=0;bottom=0;right=0;fontStyle=1;overflow=hidden;whiteSpace=wrap;html=1;" vertex="1" parent="MW2m3GR90Z3l0uTpweqN-134">
          <mxGeometry width="30" height="30" as="geometry">
            <mxRectangle width="30" height="30" as="alternateBounds" />
          </mxGeometry>
        </mxCell>
        <mxCell id="MW2m3GR90Z3l0uTpweqN-136" value="id" style="shape=partialRectangle;connectable=0;fillColor=none;top=0;left=0;bottom=0;right=0;align=left;spacingLeft=6;fontStyle=5;overflow=hidden;whiteSpace=wrap;html=1;" vertex="1" parent="MW2m3GR90Z3l0uTpweqN-134">
          <mxGeometry x="30" width="150" height="30" as="geometry">
            <mxRectangle width="150" height="30" as="alternateBounds" />
          </mxGeometry>
        </mxCell>
        <mxCell id="MW2m3GR90Z3l0uTpweqN-137" value="" style="shape=tableRow;horizontal=0;startSize=0;swimlaneHead=0;swimlaneBody=0;fillColor=none;collapsible=0;dropTarget=0;points=[[0,0.5],[1,0.5]];portConstraint=eastwest;top=0;left=0;right=0;bottom=0;" vertex="1" parent="MW2m3GR90Z3l0uTpweqN-133">
          <mxGeometry y="60" width="180" height="20" as="geometry" />
        </mxCell>
        <mxCell id="MW2m3GR90Z3l0uTpweqN-138" value="" style="shape=partialRectangle;connectable=0;fillColor=none;top=0;left=0;bottom=0;right=0;editable=1;overflow=hidden;whiteSpace=wrap;html=1;" vertex="1" parent="MW2m3GR90Z3l0uTpweqN-137">
          <mxGeometry width="30" height="20" as="geometry">
            <mxRectangle width="30" height="20" as="alternateBounds" />
          </mxGeometry>
        </mxCell>
        <mxCell id="MW2m3GR90Z3l0uTpweqN-139" value="name" style="shape=partialRectangle;connectable=0;fillColor=none;top=0;left=0;bottom=0;right=0;align=left;spacingLeft=6;overflow=hidden;whiteSpace=wrap;html=1;" vertex="1" parent="MW2m3GR90Z3l0uTpweqN-137">
          <mxGeometry x="30" width="150" height="20" as="geometry">
            <mxRectangle width="150" height="20" as="alternateBounds" />
          </mxGeometry>
        </mxCell>
        <mxCell id="MW2m3GR90Z3l0uTpweqN-140" value="" style="shape=tableRow;horizontal=0;startSize=0;swimlaneHead=0;swimlaneBody=0;fillColor=none;collapsible=0;dropTarget=0;points=[[0,0.5],[1,0.5]];portConstraint=eastwest;top=0;left=0;right=0;bottom=0;" vertex="1" parent="MW2m3GR90Z3l0uTpweqN-133">
          <mxGeometry y="80" width="180" height="30" as="geometry" />
        </mxCell>
        <mxCell id="MW2m3GR90Z3l0uTpweqN-141" value="" style="shape=partialRectangle;connectable=0;fillColor=none;top=0;left=0;bottom=0;right=0;editable=1;overflow=hidden;whiteSpace=wrap;html=1;" vertex="1" parent="MW2m3GR90Z3l0uTpweqN-140">
          <mxGeometry width="30" height="30" as="geometry">
            <mxRectangle width="30" height="30" as="alternateBounds" />
          </mxGeometry>
        </mxCell>
        <mxCell id="MW2m3GR90Z3l0uTpweqN-142" value="code" style="shape=partialRectangle;connectable=0;fillColor=none;top=0;left=0;bottom=0;right=0;align=left;spacingLeft=6;overflow=hidden;whiteSpace=wrap;html=1;" vertex="1" parent="MW2m3GR90Z3l0uTpweqN-140">
          <mxGeometry x="30" width="150" height="30" as="geometry">
            <mxRectangle width="150" height="30" as="alternateBounds" />
          </mxGeometry>
        </mxCell>
        <mxCell id="MW2m3GR90Z3l0uTpweqN-144" value="doctor_login_data" style="shape=table;startSize=30;container=1;collapsible=1;childLayout=tableLayout;fixedRows=1;rowLines=0;fontStyle=1;align=center;resizeLast=1;html=1;" vertex="1" parent="MW2m3GR90Z3l0uTpweqN-1">
          <mxGeometry x="-208.1" y="15" width="180" height="120" as="geometry" />
        </mxCell>
        <mxCell id="MW2m3GR90Z3l0uTpweqN-145" value="" style="shape=tableRow;horizontal=0;startSize=0;swimlaneHead=0;swimlaneBody=0;fillColor=none;collapsible=0;dropTarget=0;points=[[0,0.5],[1,0.5]];portConstraint=eastwest;top=0;left=0;right=0;bottom=1;" vertex="1" parent="MW2m3GR90Z3l0uTpweqN-144">
          <mxGeometry y="30" width="180" height="30" as="geometry" />
        </mxCell>
        <mxCell id="MW2m3GR90Z3l0uTpweqN-146" value="PK" style="shape=partialRectangle;connectable=0;fillColor=none;top=0;left=0;bottom=0;right=0;fontStyle=1;overflow=hidden;whiteSpace=wrap;html=1;" vertex="1" parent="MW2m3GR90Z3l0uTpweqN-145">
          <mxGeometry width="30" height="30" as="geometry">
            <mxRectangle width="30" height="30" as="alternateBounds" />
          </mxGeometry>
        </mxCell>
        <mxCell id="MW2m3GR90Z3l0uTpweqN-147" value="doctor_id" style="shape=partialRectangle;connectable=0;fillColor=none;top=0;left=0;bottom=0;right=0;align=left;spacingLeft=6;fontStyle=5;overflow=hidden;whiteSpace=wrap;html=1;" vertex="1" parent="MW2m3GR90Z3l0uTpweqN-145">
          <mxGeometry x="30" width="150" height="30" as="geometry">
            <mxRectangle width="150" height="30" as="alternateBounds" />
          </mxGeometry>
        </mxCell>
        <mxCell id="MW2m3GR90Z3l0uTpweqN-148" value="" style="shape=tableRow;horizontal=0;startSize=0;swimlaneHead=0;swimlaneBody=0;fillColor=none;collapsible=0;dropTarget=0;points=[[0,0.5],[1,0.5]];portConstraint=eastwest;top=0;left=0;right=0;bottom=0;" vertex="1" parent="MW2m3GR90Z3l0uTpweqN-144">
          <mxGeometry y="60" width="180" height="30" as="geometry" />
        </mxCell>
        <mxCell id="MW2m3GR90Z3l0uTpweqN-149" value="" style="shape=partialRectangle;connectable=0;fillColor=none;top=0;left=0;bottom=0;right=0;editable=1;overflow=hidden;whiteSpace=wrap;html=1;" vertex="1" parent="MW2m3GR90Z3l0uTpweqN-148">
          <mxGeometry width="30" height="30" as="geometry">
            <mxRectangle width="30" height="30" as="alternateBounds" />
          </mxGeometry>
        </mxCell>
        <mxCell id="MW2m3GR90Z3l0uTpweqN-150" value="email: varchar" style="shape=partialRectangle;connectable=0;fillColor=none;top=0;left=0;bottom=0;right=0;align=left;spacingLeft=6;overflow=hidden;whiteSpace=wrap;html=1;" vertex="1" parent="MW2m3GR90Z3l0uTpweqN-148">
          <mxGeometry x="30" width="150" height="30" as="geometry">
            <mxRectangle width="150" height="30" as="alternateBounds" />
          </mxGeometry>
        </mxCell>
        <mxCell id="MW2m3GR90Z3l0uTpweqN-151" value="" style="shape=tableRow;horizontal=0;startSize=0;swimlaneHead=0;swimlaneBody=0;fillColor=none;collapsible=0;dropTarget=0;points=[[0,0.5],[1,0.5]];portConstraint=eastwest;top=0;left=0;right=0;bottom=0;" vertex="1" parent="MW2m3GR90Z3l0uTpweqN-144">
          <mxGeometry y="90" width="180" height="30" as="geometry" />
        </mxCell>
        <mxCell id="MW2m3GR90Z3l0uTpweqN-152" value="" style="shape=partialRectangle;connectable=0;fillColor=none;top=0;left=0;bottom=0;right=0;editable=1;overflow=hidden;whiteSpace=wrap;html=1;" vertex="1" parent="MW2m3GR90Z3l0uTpweqN-151">
          <mxGeometry width="30" height="30" as="geometry">
            <mxRectangle width="30" height="30" as="alternateBounds" />
          </mxGeometry>
        </mxCell>
        <mxCell id="MW2m3GR90Z3l0uTpweqN-153" value="password: varchar" style="shape=partialRectangle;connectable=0;fillColor=none;top=0;left=0;bottom=0;right=0;align=left;spacingLeft=6;overflow=hidden;whiteSpace=wrap;html=1;" vertex="1" parent="MW2m3GR90Z3l0uTpweqN-151">
          <mxGeometry x="30" width="150" height="30" as="geometry">
            <mxRectangle width="150" height="30" as="alternateBounds" />
          </mxGeometry>
        </mxCell>
        <mxCell id="MW2m3GR90Z3l0uTpweqN-156" value="review" style="shape=table;startSize=30;container=1;collapsible=1;childLayout=tableLayout;fixedRows=1;rowLines=0;fontStyle=1;align=center;resizeLast=1;html=1;" vertex="1" parent="MW2m3GR90Z3l0uTpweqN-1">
          <mxGeometry x="-950" y="225" width="210.00000000000045" height="270" as="geometry" />
        </mxCell>
        <mxCell id="MW2m3GR90Z3l0uTpweqN-157" value="" style="shape=tableRow;horizontal=0;startSize=0;swimlaneHead=0;swimlaneBody=0;fillColor=none;collapsible=0;dropTarget=0;points=[[0,0.5],[1,0.5]];portConstraint=eastwest;top=0;left=0;right=0;bottom=1;" vertex="1" parent="MW2m3GR90Z3l0uTpweqN-156">
          <mxGeometry y="30" width="210.00000000000045" height="30" as="geometry" />
        </mxCell>
        <mxCell id="MW2m3GR90Z3l0uTpweqN-158" value="PK" style="shape=partialRectangle;connectable=0;fillColor=none;top=0;left=0;bottom=0;right=0;fontStyle=1;overflow=hidden;whiteSpace=wrap;html=1;" vertex="1" parent="MW2m3GR90Z3l0uTpweqN-157">
          <mxGeometry width="30" height="30" as="geometry">
            <mxRectangle width="30" height="30" as="alternateBounds" />
          </mxGeometry>
        </mxCell>
        <mxCell id="MW2m3GR90Z3l0uTpweqN-159" value="id:uuid" style="shape=partialRectangle;connectable=0;fillColor=none;top=0;left=0;bottom=0;right=0;align=left;spacingLeft=6;fontStyle=5;overflow=hidden;whiteSpace=wrap;html=1;" vertex="1" parent="MW2m3GR90Z3l0uTpweqN-157">
          <mxGeometry x="30" width="180.00000000000045" height="30" as="geometry">
            <mxRectangle width="180.00000000000045" height="30" as="alternateBounds" />
          </mxGeometry>
        </mxCell>
        <mxCell id="MW2m3GR90Z3l0uTpweqN-160" value="" style="shape=tableRow;horizontal=0;startSize=0;swimlaneHead=0;swimlaneBody=0;fillColor=none;collapsible=0;dropTarget=0;points=[[0,0.5],[1,0.5]];portConstraint=eastwest;top=0;left=0;right=0;bottom=0;" vertex="1" parent="MW2m3GR90Z3l0uTpweqN-156">
          <mxGeometry y="60" width="210.00000000000045" height="30" as="geometry" />
        </mxCell>
        <mxCell id="MW2m3GR90Z3l0uTpweqN-161" value="FK" style="shape=partialRectangle;connectable=0;fillColor=none;top=0;left=0;bottom=0;right=0;editable=1;overflow=hidden;whiteSpace=wrap;html=1;" vertex="1" parent="MW2m3GR90Z3l0uTpweqN-160">
          <mxGeometry width="30" height="30" as="geometry">
            <mxRectangle width="30" height="30" as="alternateBounds" />
          </mxGeometry>
        </mxCell>
        <mxCell id="MW2m3GR90Z3l0uTpweqN-162" value="doctor_id: uuid" style="shape=partialRectangle;connectable=0;fillColor=none;top=0;left=0;bottom=0;right=0;align=left;spacingLeft=6;overflow=hidden;whiteSpace=wrap;html=1;" vertex="1" parent="MW2m3GR90Z3l0uTpweqN-160">
          <mxGeometry x="30" width="180.00000000000045" height="30" as="geometry">
            <mxRectangle width="180.00000000000045" height="30" as="alternateBounds" />
          </mxGeometry>
        </mxCell>
        <mxCell id="MW2m3GR90Z3l0uTpweqN-163" value="" style="shape=tableRow;horizontal=0;startSize=0;swimlaneHead=0;swimlaneBody=0;fillColor=none;collapsible=0;dropTarget=0;points=[[0,0.5],[1,0.5]];portConstraint=eastwest;top=0;left=0;right=0;bottom=0;" vertex="1" parent="MW2m3GR90Z3l0uTpweqN-156">
          <mxGeometry y="90" width="210.00000000000045" height="30" as="geometry" />
        </mxCell>
        <mxCell id="MW2m3GR90Z3l0uTpweqN-164" value="FK" style="shape=partialRectangle;connectable=0;fillColor=none;top=0;left=0;bottom=0;right=0;editable=1;overflow=hidden;whiteSpace=wrap;html=1;" vertex="1" parent="MW2m3GR90Z3l0uTpweqN-163">
          <mxGeometry width="30" height="30" as="geometry">
            <mxRectangle width="30" height="30" as="alternateBounds" />
          </mxGeometry>
        </mxCell>
        <mxCell id="MW2m3GR90Z3l0uTpweqN-165" value="patient_id: uuid" style="shape=partialRectangle;connectable=0;fillColor=none;top=0;left=0;bottom=0;right=0;align=left;spacingLeft=6;overflow=hidden;whiteSpace=wrap;html=1;" vertex="1" parent="MW2m3GR90Z3l0uTpweqN-163">
          <mxGeometry x="30" width="180.00000000000045" height="30" as="geometry">
            <mxRectangle width="180.00000000000045" height="30" as="alternateBounds" />
          </mxGeometry>
        </mxCell>
        <mxCell id="QO3xIGHiXsTZ708BZk-9-6" value="" style="shape=tableRow;horizontal=0;startSize=0;swimlaneHead=0;swimlaneBody=0;fillColor=none;collapsible=0;dropTarget=0;points=[[0,0.5],[1,0.5]];portConstraint=eastwest;top=0;left=0;right=0;bottom=0;" vertex="1" parent="MW2m3GR90Z3l0uTpweqN-156">
          <mxGeometry y="120" width="210.00000000000045" height="30" as="geometry" />
        </mxCell>
        <mxCell id="QO3xIGHiXsTZ708BZk-9-7" value="FK" style="shape=partialRectangle;connectable=0;fillColor=none;top=0;left=0;bottom=0;right=0;editable=1;overflow=hidden;" vertex="1" parent="QO3xIGHiXsTZ708BZk-9-6">
          <mxGeometry width="30" height="30" as="geometry">
            <mxRectangle width="30" height="30" as="alternateBounds" />
          </mxGeometry>
        </mxCell>
        <mxCell id="QO3xIGHiXsTZ708BZk-9-8" value="appointment_id" style="shape=partialRectangle;connectable=0;fillColor=none;top=0;left=0;bottom=0;right=0;align=left;spacingLeft=6;overflow=hidden;" vertex="1" parent="QO3xIGHiXsTZ708BZk-9-6">
          <mxGeometry x="30" width="180.00000000000045" height="30" as="geometry">
            <mxRectangle width="180.00000000000045" height="30" as="alternateBounds" />
          </mxGeometry>
        </mxCell>
        <mxCell id="MW2m3GR90Z3l0uTpweqN-166" value="" style="shape=tableRow;horizontal=0;startSize=0;swimlaneHead=0;swimlaneBody=0;fillColor=none;collapsible=0;dropTarget=0;points=[[0,0.5],[1,0.5]];portConstraint=eastwest;top=0;left=0;right=0;bottom=0;" vertex="1" parent="MW2m3GR90Z3l0uTpweqN-156">
          <mxGeometry y="150" width="210.00000000000045" height="30" as="geometry" />
        </mxCell>
        <mxCell id="MW2m3GR90Z3l0uTpweqN-167" value="" style="shape=partialRectangle;connectable=0;fillColor=none;top=0;left=0;bottom=0;right=0;editable=1;overflow=hidden;" vertex="1" parent="MW2m3GR90Z3l0uTpweqN-166">
          <mxGeometry width="30" height="30" as="geometry">
            <mxRectangle width="30" height="30" as="alternateBounds" />
          </mxGeometry>
        </mxCell>
        <mxCell id="MW2m3GR90Z3l0uTpweqN-168" value="review_title: varchar" style="shape=partialRectangle;connectable=0;fillColor=none;top=0;left=0;bottom=0;right=0;align=left;spacingLeft=6;overflow=hidden;" vertex="1" parent="MW2m3GR90Z3l0uTpweqN-166">
          <mxGeometry x="30" width="180.00000000000045" height="30" as="geometry">
            <mxRectangle width="180.00000000000045" height="30" as="alternateBounds" />
          </mxGeometry>
        </mxCell>
        <mxCell id="MW2m3GR90Z3l0uTpweqN-169" value="" style="shape=tableRow;horizontal=0;startSize=0;swimlaneHead=0;swimlaneBody=0;fillColor=none;collapsible=0;dropTarget=0;points=[[0,0.5],[1,0.5]];portConstraint=eastwest;top=0;left=0;right=0;bottom=0;" vertex="1" parent="MW2m3GR90Z3l0uTpweqN-156">
          <mxGeometry y="180" width="210.00000000000045" height="30" as="geometry" />
        </mxCell>
        <mxCell id="MW2m3GR90Z3l0uTpweqN-170" value="" style="shape=partialRectangle;connectable=0;fillColor=none;top=0;left=0;bottom=0;right=0;editable=1;overflow=hidden;whiteSpace=wrap;html=1;" vertex="1" parent="MW2m3GR90Z3l0uTpweqN-169">
          <mxGeometry width="30" height="30" as="geometry">
            <mxRectangle width="30" height="30" as="alternateBounds" />
          </mxGeometry>
        </mxCell>
        <mxCell id="MW2m3GR90Z3l0uTpweqN-171" value="review_value: float" style="shape=partialRectangle;connectable=0;fillColor=none;top=0;left=0;bottom=0;right=0;align=left;spacingLeft=6;overflow=hidden;whiteSpace=wrap;html=1;" vertex="1" parent="MW2m3GR90Z3l0uTpweqN-169">
          <mxGeometry x="30" width="180.00000000000045" height="30" as="geometry">
            <mxRectangle width="180.00000000000045" height="30" as="alternateBounds" />
          </mxGeometry>
        </mxCell>
        <mxCell id="MW2m3GR90Z3l0uTpweqN-172" value="" style="shape=tableRow;horizontal=0;startSize=0;swimlaneHead=0;swimlaneBody=0;fillColor=none;collapsible=0;dropTarget=0;points=[[0,0.5],[1,0.5]];portConstraint=eastwest;top=0;left=0;right=0;bottom=0;" vertex="1" parent="MW2m3GR90Z3l0uTpweqN-156">
          <mxGeometry y="210" width="210.00000000000045" height="30" as="geometry" />
        </mxCell>
        <mxCell id="MW2m3GR90Z3l0uTpweqN-173" value="" style="shape=partialRectangle;connectable=0;fillColor=none;top=0;left=0;bottom=0;right=0;editable=1;overflow=hidden;" vertex="1" parent="MW2m3GR90Z3l0uTpweqN-172">
          <mxGeometry width="30" height="30" as="geometry">
            <mxRectangle width="30" height="30" as="alternateBounds" />
          </mxGeometry>
        </mxCell>
        <mxCell id="MW2m3GR90Z3l0uTpweqN-174" value="review_content: varchar" style="shape=partialRectangle;connectable=0;fillColor=none;top=0;left=0;bottom=0;right=0;align=left;spacingLeft=6;overflow=hidden;" vertex="1" parent="MW2m3GR90Z3l0uTpweqN-172">
          <mxGeometry x="30" width="180.00000000000045" height="30" as="geometry">
            <mxRectangle width="180.00000000000045" height="30" as="alternateBounds" />
          </mxGeometry>
        </mxCell>
        <mxCell id="MW2m3GR90Z3l0uTpweqN-175" value="" style="shape=tableRow;horizontal=0;startSize=0;swimlaneHead=0;swimlaneBody=0;fillColor=none;collapsible=0;dropTarget=0;points=[[0,0.5],[1,0.5]];portConstraint=eastwest;top=0;left=0;right=0;bottom=0;" vertex="1" parent="MW2m3GR90Z3l0uTpweqN-156">
          <mxGeometry y="240" width="210.00000000000045" height="30" as="geometry" />
        </mxCell>
        <mxCell id="MW2m3GR90Z3l0uTpweqN-176" value="" style="shape=partialRectangle;connectable=0;fillColor=none;top=0;left=0;bottom=0;right=0;editable=1;overflow=hidden;" vertex="1" parent="MW2m3GR90Z3l0uTpweqN-175">
          <mxGeometry width="30" height="30" as="geometry">
            <mxRectangle width="30" height="30" as="alternateBounds" />
          </mxGeometry>
        </mxCell>
        <mxCell id="MW2m3GR90Z3l0uTpweqN-177" value="date_created: Timestamp" style="shape=partialRectangle;connectable=0;fillColor=none;top=0;left=0;bottom=0;right=0;align=left;spacingLeft=6;overflow=hidden;" vertex="1" parent="MW2m3GR90Z3l0uTpweqN-175">
          <mxGeometry x="30" width="180.00000000000045" height="30" as="geometry">
            <mxRectangle width="180.00000000000045" height="30" as="alternateBounds" />
          </mxGeometry>
        </mxCell>
        <mxCell id="MW2m3GR90Z3l0uTpweqN-178" value="patient_review" style="shape=table;startSize=30;container=1;collapsible=1;childLayout=tableLayout;fixedRows=1;rowLines=0;fontStyle=1;align=center;resizeLast=1;html=1;" vertex="1" parent="MW2m3GR90Z3l0uTpweqN-1">
          <mxGeometry x="-1630" y="380" width="180" height="90" as="geometry" />
        </mxCell>
        <mxCell id="MW2m3GR90Z3l0uTpweqN-179" value="" style="shape=tableRow;horizontal=0;startSize=0;swimlaneHead=0;swimlaneBody=0;fillColor=none;collapsible=0;dropTarget=0;points=[[0,0.5],[1,0.5]];portConstraint=eastwest;top=0;left=0;right=0;bottom=0;" vertex="1" parent="MW2m3GR90Z3l0uTpweqN-178">
          <mxGeometry y="30" width="180" height="30" as="geometry" />
        </mxCell>
        <mxCell id="MW2m3GR90Z3l0uTpweqN-180" value="FK" style="shape=partialRectangle;connectable=0;fillColor=none;top=0;left=0;bottom=0;right=0;editable=1;overflow=hidden;whiteSpace=wrap;html=1;" vertex="1" parent="MW2m3GR90Z3l0uTpweqN-179">
          <mxGeometry width="30" height="30" as="geometry">
            <mxRectangle width="30" height="30" as="alternateBounds" />
          </mxGeometry>
        </mxCell>
        <mxCell id="MW2m3GR90Z3l0uTpweqN-181" value="patient_id" style="shape=partialRectangle;connectable=0;fillColor=none;top=0;left=0;bottom=0;right=0;align=left;spacingLeft=6;overflow=hidden;whiteSpace=wrap;html=1;" vertex="1" parent="MW2m3GR90Z3l0uTpweqN-179">
          <mxGeometry x="30" width="150" height="30" as="geometry">
            <mxRectangle width="150" height="30" as="alternateBounds" />
          </mxGeometry>
        </mxCell>
        <mxCell id="MW2m3GR90Z3l0uTpweqN-182" value="" style="shape=tableRow;horizontal=0;startSize=0;swimlaneHead=0;swimlaneBody=0;fillColor=none;collapsible=0;dropTarget=0;points=[[0,0.5],[1,0.5]];portConstraint=eastwest;top=0;left=0;right=0;bottom=0;" vertex="1" parent="MW2m3GR90Z3l0uTpweqN-178">
          <mxGeometry y="60" width="180" height="30" as="geometry" />
        </mxCell>
        <mxCell id="MW2m3GR90Z3l0uTpweqN-183" value="FK" style="shape=partialRectangle;connectable=0;fillColor=none;top=0;left=0;bottom=0;right=0;editable=1;overflow=hidden;whiteSpace=wrap;html=1;" vertex="1" parent="MW2m3GR90Z3l0uTpweqN-182">
          <mxGeometry width="30" height="30" as="geometry">
            <mxRectangle width="30" height="30" as="alternateBounds" />
          </mxGeometry>
        </mxCell>
        <mxCell id="MW2m3GR90Z3l0uTpweqN-184" value="review_id" style="shape=partialRectangle;connectable=0;fillColor=none;top=0;left=0;bottom=0;right=0;align=left;spacingLeft=6;overflow=hidden;whiteSpace=wrap;html=1;" vertex="1" parent="MW2m3GR90Z3l0uTpweqN-182">
          <mxGeometry x="30" width="150" height="30" as="geometry">
            <mxRectangle width="150" height="30" as="alternateBounds" />
          </mxGeometry>
        </mxCell>
        <mxCell id="MW2m3GR90Z3l0uTpweqN-188" value="doctor_review" style="shape=table;startSize=30;container=1;collapsible=1;childLayout=tableLayout;fixedRows=1;rowLines=0;fontStyle=1;align=center;resizeLast=1;html=1;spacing=2;" vertex="1" parent="MW2m3GR90Z3l0uTpweqN-1">
          <mxGeometry x="-242.14" y="610" width="224.27999999999975" height="70" as="geometry" />
        </mxCell>
        <mxCell id="MW2m3GR90Z3l0uTpweqN-189" value="" style="shape=tableRow;horizontal=0;startSize=0;swimlaneHead=0;swimlaneBody=0;fillColor=none;collapsible=0;dropTarget=0;points=[[0,0.5],[1,0.5]];portConstraint=eastwest;top=0;left=0;right=0;bottom=0;spacing=2;" vertex="1" parent="MW2m3GR90Z3l0uTpweqN-188">
          <mxGeometry y="30" width="224.27999999999975" height="20" as="geometry" />
        </mxCell>
        <mxCell id="MW2m3GR90Z3l0uTpweqN-190" value="PK, FK" style="shape=partialRectangle;connectable=0;fillColor=none;top=0;left=0;bottom=0;right=0;editable=1;overflow=hidden;whiteSpace=wrap;html=1;spacing=2;" vertex="1" parent="MW2m3GR90Z3l0uTpweqN-189">
          <mxGeometry width="44.279999999999745" height="20" as="geometry">
            <mxRectangle width="44.279999999999745" height="20" as="alternateBounds" />
          </mxGeometry>
        </mxCell>
        <mxCell id="MW2m3GR90Z3l0uTpweqN-191" value="doctor_id:uuid" style="shape=partialRectangle;connectable=0;fillColor=none;top=0;left=0;bottom=0;right=0;align=left;spacingLeft=6;overflow=hidden;whiteSpace=wrap;html=1;spacing=2;" vertex="1" parent="MW2m3GR90Z3l0uTpweqN-189">
          <mxGeometry x="44.279999999999745" width="180" height="20" as="geometry">
            <mxRectangle width="180" height="20" as="alternateBounds" />
          </mxGeometry>
        </mxCell>
        <mxCell id="MW2m3GR90Z3l0uTpweqN-192" value="" style="shape=tableRow;horizontal=0;startSize=0;swimlaneHead=0;swimlaneBody=0;fillColor=none;collapsible=0;dropTarget=0;points=[[0,0.5],[1,0.5]];portConstraint=eastwest;top=0;left=0;right=0;bottom=0;spacing=2;" vertex="1" parent="MW2m3GR90Z3l0uTpweqN-188">
          <mxGeometry y="50" width="224.27999999999975" height="20" as="geometry" />
        </mxCell>
        <mxCell id="MW2m3GR90Z3l0uTpweqN-193" value="PK, FK" style="shape=partialRectangle;connectable=0;fillColor=none;top=0;left=0;bottom=0;right=0;editable=1;overflow=hidden;whiteSpace=wrap;html=1;spacing=2;" vertex="1" parent="MW2m3GR90Z3l0uTpweqN-192">
          <mxGeometry width="44.279999999999745" height="20" as="geometry">
            <mxRectangle width="44.279999999999745" height="20" as="alternateBounds" />
          </mxGeometry>
        </mxCell>
        <mxCell id="MW2m3GR90Z3l0uTpweqN-194" value="review_id: uuid" style="shape=partialRectangle;connectable=0;fillColor=none;top=0;left=0;bottom=0;right=0;align=left;spacingLeft=6;overflow=hidden;whiteSpace=wrap;html=1;spacing=2;" vertex="1" parent="MW2m3GR90Z3l0uTpweqN-192">
          <mxGeometry x="44.279999999999745" width="180" height="20" as="geometry">
            <mxRectangle width="180" height="20" as="alternateBounds" />
          </mxGeometry>
        </mxCell>
        <mxCell id="MW2m3GR90Z3l0uTpweqN-203" value="specialization" style="shape=table;startSize=30;container=1;collapsible=1;childLayout=tableLayout;fixedRows=1;rowLines=0;fontStyle=1;align=center;resizeLast=1;html=1;" vertex="1" parent="MW2m3GR90Z3l0uTpweqN-1">
          <mxGeometry x="-580" y="390" width="180" height="150" as="geometry" />
        </mxCell>
        <mxCell id="MW2m3GR90Z3l0uTpweqN-204" value="" style="shape=tableRow;horizontal=0;startSize=0;swimlaneHead=0;swimlaneBody=0;fillColor=none;collapsible=0;dropTarget=0;points=[[0,0.5],[1,0.5]];portConstraint=eastwest;top=0;left=0;right=0;bottom=1;" vertex="1" parent="MW2m3GR90Z3l0uTpweqN-203">
          <mxGeometry y="30" width="180" height="30" as="geometry" />
        </mxCell>
        <mxCell id="MW2m3GR90Z3l0uTpweqN-205" value="PK" style="shape=partialRectangle;connectable=0;fillColor=none;top=0;left=0;bottom=0;right=0;fontStyle=1;overflow=hidden;whiteSpace=wrap;html=1;" vertex="1" parent="MW2m3GR90Z3l0uTpweqN-204">
          <mxGeometry width="30" height="30" as="geometry">
            <mxRectangle width="30" height="30" as="alternateBounds" />
          </mxGeometry>
        </mxCell>
        <mxCell id="MW2m3GR90Z3l0uTpweqN-206" value="id: uuid" style="shape=partialRectangle;connectable=0;fillColor=none;top=0;left=0;bottom=0;right=0;align=left;spacingLeft=6;fontStyle=5;overflow=hidden;whiteSpace=wrap;html=1;" vertex="1" parent="MW2m3GR90Z3l0uTpweqN-204">
          <mxGeometry x="30" width="150" height="30" as="geometry">
            <mxRectangle width="150" height="30" as="alternateBounds" />
          </mxGeometry>
        </mxCell>
        <mxCell id="MW2m3GR90Z3l0uTpweqN-207" value="" style="shape=tableRow;horizontal=0;startSize=0;swimlaneHead=0;swimlaneBody=0;fillColor=none;collapsible=0;dropTarget=0;points=[[0,0.5],[1,0.5]];portConstraint=eastwest;top=0;left=0;right=0;bottom=0;" vertex="1" parent="MW2m3GR90Z3l0uTpweqN-203">
          <mxGeometry y="60" width="180" height="30" as="geometry" />
        </mxCell>
        <mxCell id="MW2m3GR90Z3l0uTpweqN-208" value="" style="shape=partialRectangle;connectable=0;fillColor=none;top=0;left=0;bottom=0;right=0;editable=1;overflow=hidden;whiteSpace=wrap;html=1;" vertex="1" parent="MW2m3GR90Z3l0uTpweqN-207">
          <mxGeometry width="30" height="30" as="geometry">
            <mxRectangle width="30" height="30" as="alternateBounds" />
          </mxGeometry>
        </mxCell>
        <mxCell id="MW2m3GR90Z3l0uTpweqN-209" value="name" style="shape=partialRectangle;connectable=0;fillColor=none;top=0;left=0;bottom=0;right=0;align=left;spacingLeft=6;overflow=hidden;whiteSpace=wrap;html=1;" vertex="1" parent="MW2m3GR90Z3l0uTpweqN-207">
          <mxGeometry x="30" width="150" height="30" as="geometry">
            <mxRectangle width="150" height="30" as="alternateBounds" />
          </mxGeometry>
        </mxCell>
        <mxCell id="MW2m3GR90Z3l0uTpweqN-210" value="" style="shape=tableRow;horizontal=0;startSize=0;swimlaneHead=0;swimlaneBody=0;fillColor=none;collapsible=0;dropTarget=0;points=[[0,0.5],[1,0.5]];portConstraint=eastwest;top=0;left=0;right=0;bottom=0;" vertex="1" parent="MW2m3GR90Z3l0uTpweqN-203">
          <mxGeometry y="90" width="180" height="30" as="geometry" />
        </mxCell>
        <mxCell id="MW2m3GR90Z3l0uTpweqN-211" value="" style="shape=partialRectangle;connectable=0;fillColor=none;top=0;left=0;bottom=0;right=0;editable=1;overflow=hidden;whiteSpace=wrap;html=1;" vertex="1" parent="MW2m3GR90Z3l0uTpweqN-210">
          <mxGeometry width="30" height="30" as="geometry">
            <mxRectangle width="30" height="30" as="alternateBounds" />
          </mxGeometry>
        </mxCell>
        <mxCell id="MW2m3GR90Z3l0uTpweqN-212" value="description" style="shape=partialRectangle;connectable=0;fillColor=none;top=0;left=0;bottom=0;right=0;align=left;spacingLeft=6;overflow=hidden;whiteSpace=wrap;html=1;" vertex="1" parent="MW2m3GR90Z3l0uTpweqN-210">
          <mxGeometry x="30" width="150" height="30" as="geometry">
            <mxRectangle width="150" height="30" as="alternateBounds" />
          </mxGeometry>
        </mxCell>
        <mxCell id="MW2m3GR90Z3l0uTpweqN-213" value="" style="shape=tableRow;horizontal=0;startSize=0;swimlaneHead=0;swimlaneBody=0;fillColor=none;collapsible=0;dropTarget=0;points=[[0,0.5],[1,0.5]];portConstraint=eastwest;top=0;left=0;right=0;bottom=0;" vertex="1" parent="MW2m3GR90Z3l0uTpweqN-203">
          <mxGeometry y="120" width="180" height="30" as="geometry" />
        </mxCell>
        <mxCell id="MW2m3GR90Z3l0uTpweqN-214" value="" style="shape=partialRectangle;connectable=0;fillColor=none;top=0;left=0;bottom=0;right=0;editable=1;overflow=hidden;whiteSpace=wrap;html=1;" vertex="1" parent="MW2m3GR90Z3l0uTpweqN-213">
          <mxGeometry width="30" height="30" as="geometry">
            <mxRectangle width="30" height="30" as="alternateBounds" />
          </mxGeometry>
        </mxCell>
        <mxCell id="MW2m3GR90Z3l0uTpweqN-215" value="title" style="shape=partialRectangle;connectable=0;fillColor=none;top=0;left=0;bottom=0;right=0;align=left;spacingLeft=6;overflow=hidden;whiteSpace=wrap;html=1;" vertex="1" parent="MW2m3GR90Z3l0uTpweqN-213">
          <mxGeometry x="30" width="150" height="30" as="geometry">
            <mxRectangle width="150" height="30" as="alternateBounds" />
          </mxGeometry>
        </mxCell>
        <mxCell id="MW2m3GR90Z3l0uTpweqN-220" value="appointment_status" style="shape=table;startSize=30;container=1;collapsible=1;childLayout=tableLayout;fixedRows=1;rowLines=0;fontStyle=1;align=center;resizeLast=1;html=1;" vertex="1" parent="MW2m3GR90Z3l0uTpweqN-1">
          <mxGeometry x="-590.0000000000001" y="210" width="180" height="90" as="geometry" />
        </mxCell>
        <mxCell id="MW2m3GR90Z3l0uTpweqN-221" value="" style="shape=tableRow;horizontal=0;startSize=0;swimlaneHead=0;swimlaneBody=0;fillColor=none;collapsible=0;dropTarget=0;points=[[0,0.5],[1,0.5]];portConstraint=eastwest;top=0;left=0;right=0;bottom=1;" vertex="1" parent="MW2m3GR90Z3l0uTpweqN-220">
          <mxGeometry y="30" width="180" height="30" as="geometry" />
        </mxCell>
        <mxCell id="MW2m3GR90Z3l0uTpweqN-222" value="PK" style="shape=partialRectangle;connectable=0;fillColor=none;top=0;left=0;bottom=0;right=0;fontStyle=1;overflow=hidden;whiteSpace=wrap;html=1;" vertex="1" parent="MW2m3GR90Z3l0uTpweqN-221">
          <mxGeometry width="30" height="30" as="geometry">
            <mxRectangle width="30" height="30" as="alternateBounds" />
          </mxGeometry>
        </mxCell>
        <mxCell id="MW2m3GR90Z3l0uTpweqN-223" value="id: uuid" style="shape=partialRectangle;connectable=0;fillColor=none;top=0;left=0;bottom=0;right=0;align=left;spacingLeft=6;fontStyle=5;overflow=hidden;whiteSpace=wrap;html=1;" vertex="1" parent="MW2m3GR90Z3l0uTpweqN-221">
          <mxGeometry x="30" width="150" height="30" as="geometry">
            <mxRectangle width="150" height="30" as="alternateBounds" />
          </mxGeometry>
        </mxCell>
        <mxCell id="MW2m3GR90Z3l0uTpweqN-224" value="" style="shape=tableRow;horizontal=0;startSize=0;swimlaneHead=0;swimlaneBody=0;fillColor=none;collapsible=0;dropTarget=0;points=[[0,0.5],[1,0.5]];portConstraint=eastwest;top=0;left=0;right=0;bottom=0;" vertex="1" parent="MW2m3GR90Z3l0uTpweqN-220">
          <mxGeometry y="60" width="180" height="30" as="geometry" />
        </mxCell>
        <mxCell id="MW2m3GR90Z3l0uTpweqN-225" value="" style="shape=partialRectangle;connectable=0;fillColor=none;top=0;left=0;bottom=0;right=0;editable=1;overflow=hidden;whiteSpace=wrap;html=1;" vertex="1" parent="MW2m3GR90Z3l0uTpweqN-224">
          <mxGeometry width="30" height="30" as="geometry">
            <mxRectangle width="30" height="30" as="alternateBounds" />
          </mxGeometry>
        </mxCell>
        <mxCell id="MW2m3GR90Z3l0uTpweqN-226" value="name: varchar" style="shape=partialRectangle;connectable=0;fillColor=none;top=0;left=0;bottom=0;right=0;align=left;spacingLeft=6;overflow=hidden;whiteSpace=wrap;html=1;" vertex="1" parent="MW2m3GR90Z3l0uTpweqN-224">
          <mxGeometry x="30" width="150" height="30" as="geometry">
            <mxRectangle width="150" height="30" as="alternateBounds" />
          </mxGeometry>
        </mxCell>
        <mxCell id="MW2m3GR90Z3l0uTpweqN-227" value="doctor_clinic" style="shape=table;startSize=30;container=1;collapsible=1;childLayout=tableLayout;fixedRows=1;rowLines=0;fontStyle=1;align=center;resizeLast=1;html=1;whiteSpace=wrap;" vertex="1" parent="MW2m3GR90Z3l0uTpweqN-1">
          <mxGeometry x="-231.91" y="465" width="190" height="90" as="geometry" />
        </mxCell>
        <mxCell id="MW2m3GR90Z3l0uTpweqN-228" value="" style="shape=tableRow;horizontal=0;startSize=0;swimlaneHead=0;swimlaneBody=0;fillColor=none;collapsible=0;dropTarget=0;points=[[0,0.5],[1,0.5]];portConstraint=eastwest;top=0;left=0;right=0;bottom=0;html=1;" vertex="1" parent="MW2m3GR90Z3l0uTpweqN-227">
          <mxGeometry y="30" width="190" height="30" as="geometry" />
        </mxCell>
        <mxCell id="MW2m3GR90Z3l0uTpweqN-229" value="PK,FK1" style="shape=partialRectangle;connectable=0;fillColor=none;top=0;left=0;bottom=0;right=0;fontStyle=1;overflow=hidden;html=1;whiteSpace=wrap;" vertex="1" parent="MW2m3GR90Z3l0uTpweqN-228">
          <mxGeometry width="60" height="30" as="geometry">
            <mxRectangle width="60" height="30" as="alternateBounds" />
          </mxGeometry>
        </mxCell>
        <mxCell id="MW2m3GR90Z3l0uTpweqN-230" value="doctor_id : uuid" style="shape=partialRectangle;connectable=0;fillColor=none;top=0;left=0;bottom=0;right=0;align=left;spacingLeft=6;fontStyle=5;overflow=hidden;html=1;whiteSpace=wrap;" vertex="1" parent="MW2m3GR90Z3l0uTpweqN-228">
          <mxGeometry x="60" width="130" height="30" as="geometry">
            <mxRectangle width="130" height="30" as="alternateBounds" />
          </mxGeometry>
        </mxCell>
        <mxCell id="MW2m3GR90Z3l0uTpweqN-231" value="" style="shape=tableRow;horizontal=0;startSize=0;swimlaneHead=0;swimlaneBody=0;fillColor=none;collapsible=0;dropTarget=0;points=[[0,0.5],[1,0.5]];portConstraint=eastwest;top=0;left=0;right=0;bottom=1;html=1;" vertex="1" parent="MW2m3GR90Z3l0uTpweqN-227">
          <mxGeometry y="60" width="190" height="30" as="geometry" />
        </mxCell>
        <mxCell id="MW2m3GR90Z3l0uTpweqN-232" value="PK,FK2" style="shape=partialRectangle;connectable=0;fillColor=none;top=0;left=0;bottom=0;right=0;fontStyle=1;overflow=hidden;html=1;whiteSpace=wrap;" vertex="1" parent="MW2m3GR90Z3l0uTpweqN-231">
          <mxGeometry width="60" height="30" as="geometry">
            <mxRectangle width="60" height="30" as="alternateBounds" />
          </mxGeometry>
        </mxCell>
        <mxCell id="MW2m3GR90Z3l0uTpweqN-233" value="clinic_id: uuid" style="shape=partialRectangle;connectable=0;fillColor=none;top=0;left=0;bottom=0;right=0;align=left;spacingLeft=6;fontStyle=5;overflow=hidden;html=1;whiteSpace=wrap;" vertex="1" parent="MW2m3GR90Z3l0uTpweqN-231">
          <mxGeometry x="60" width="130" height="30" as="geometry">
            <mxRectangle width="130" height="30" as="alternateBounds" />
          </mxGeometry>
        </mxCell>
        <mxCell id="MW2m3GR90Z3l0uTpweqN-235" value="patient_appointment" style="shape=table;startSize=30;container=1;collapsible=1;childLayout=tableLayout;fixedRows=1;rowLines=0;fontStyle=1;align=center;resizeLast=1;html=1;whiteSpace=wrap;" vertex="1" parent="MW2m3GR90Z3l0uTpweqN-1">
          <mxGeometry x="-1630" y="500" width="245" height="90" as="geometry" />
        </mxCell>
        <mxCell id="MW2m3GR90Z3l0uTpweqN-236" value="" style="shape=tableRow;horizontal=0;startSize=0;swimlaneHead=0;swimlaneBody=0;fillColor=none;collapsible=0;dropTarget=0;points=[[0,0.5],[1,0.5]];portConstraint=eastwest;top=0;left=0;right=0;bottom=0;html=1;" vertex="1" parent="MW2m3GR90Z3l0uTpweqN-235">
          <mxGeometry y="30" width="245" height="30" as="geometry" />
        </mxCell>
        <mxCell id="MW2m3GR90Z3l0uTpweqN-237" value="PK,FK1" style="shape=partialRectangle;connectable=0;fillColor=none;top=0;left=0;bottom=0;right=0;fontStyle=1;overflow=hidden;html=1;whiteSpace=wrap;" vertex="1" parent="MW2m3GR90Z3l0uTpweqN-236">
          <mxGeometry width="60" height="30" as="geometry">
            <mxRectangle width="60" height="30" as="alternateBounds" />
          </mxGeometry>
        </mxCell>
        <mxCell id="MW2m3GR90Z3l0uTpweqN-238" value="patient_id: uuid" style="shape=partialRectangle;connectable=0;fillColor=none;top=0;left=0;bottom=0;right=0;align=left;spacingLeft=6;fontStyle=5;overflow=hidden;html=1;whiteSpace=wrap;" vertex="1" parent="MW2m3GR90Z3l0uTpweqN-236">
          <mxGeometry x="60" width="185" height="30" as="geometry">
            <mxRectangle width="185" height="30" as="alternateBounds" />
          </mxGeometry>
        </mxCell>
        <mxCell id="MW2m3GR90Z3l0uTpweqN-239" value="" style="shape=tableRow;horizontal=0;startSize=0;swimlaneHead=0;swimlaneBody=0;fillColor=none;collapsible=0;dropTarget=0;points=[[0,0.5],[1,0.5]];portConstraint=eastwest;top=0;left=0;right=0;bottom=1;html=1;" vertex="1" parent="MW2m3GR90Z3l0uTpweqN-235">
          <mxGeometry y="60" width="245" height="30" as="geometry" />
        </mxCell>
        <mxCell id="MW2m3GR90Z3l0uTpweqN-240" value="PK,FK2" style="shape=partialRectangle;connectable=0;fillColor=none;top=0;left=0;bottom=0;right=0;fontStyle=1;overflow=hidden;html=1;whiteSpace=wrap;" vertex="1" parent="MW2m3GR90Z3l0uTpweqN-239">
          <mxGeometry width="60" height="30" as="geometry">
            <mxRectangle width="60" height="30" as="alternateBounds" />
          </mxGeometry>
        </mxCell>
        <mxCell id="MW2m3GR90Z3l0uTpweqN-241" value="appointment_id: uuid" style="shape=partialRectangle;connectable=0;fillColor=none;top=0;left=0;bottom=0;right=0;align=left;spacingLeft=6;fontStyle=5;overflow=hidden;html=1;whiteSpace=wrap;" vertex="1" parent="MW2m3GR90Z3l0uTpweqN-239">
          <mxGeometry x="60" width="185" height="30" as="geometry">
            <mxRectangle width="185" height="30" as="alternateBounds" />
          </mxGeometry>
        </mxCell>
        <mxCell id="6euiv2Yoazq27llBN2iV-0" value="doctor_appointment" style="shape=table;startSize=30;container=1;collapsible=1;childLayout=tableLayout;fixedRows=1;rowLines=0;fontStyle=1;align=center;resizeLast=1;html=1;whiteSpace=wrap;" vertex="1" parent="MW2m3GR90Z3l0uTpweqN-1">
          <mxGeometry x="-600" y="10" width="245" height="90" as="geometry" />
        </mxCell>
        <mxCell id="6euiv2Yoazq27llBN2iV-1" value="" style="shape=tableRow;horizontal=0;startSize=0;swimlaneHead=0;swimlaneBody=0;fillColor=none;collapsible=0;dropTarget=0;points=[[0,0.5],[1,0.5]];portConstraint=eastwest;top=0;left=0;right=0;bottom=0;html=1;" vertex="1" parent="6euiv2Yoazq27llBN2iV-0">
          <mxGeometry y="30" width="245" height="30" as="geometry" />
        </mxCell>
        <mxCell id="6euiv2Yoazq27llBN2iV-2" value="PK,FK1" style="shape=partialRectangle;connectable=0;fillColor=none;top=0;left=0;bottom=0;right=0;fontStyle=1;overflow=hidden;html=1;whiteSpace=wrap;" vertex="1" parent="6euiv2Yoazq27llBN2iV-1">
          <mxGeometry width="60" height="30" as="geometry">
            <mxRectangle width="60" height="30" as="alternateBounds" />
          </mxGeometry>
        </mxCell>
        <mxCell id="6euiv2Yoazq27llBN2iV-3" value="doctor_id: uuid" style="shape=partialRectangle;connectable=0;fillColor=none;top=0;left=0;bottom=0;right=0;align=left;spacingLeft=6;fontStyle=5;overflow=hidden;html=1;whiteSpace=wrap;" vertex="1" parent="6euiv2Yoazq27llBN2iV-1">
          <mxGeometry x="60" width="185" height="30" as="geometry">
            <mxRectangle width="185" height="30" as="alternateBounds" />
          </mxGeometry>
        </mxCell>
        <mxCell id="6euiv2Yoazq27llBN2iV-4" value="" style="shape=tableRow;horizontal=0;startSize=0;swimlaneHead=0;swimlaneBody=0;fillColor=none;collapsible=0;dropTarget=0;points=[[0,0.5],[1,0.5]];portConstraint=eastwest;top=0;left=0;right=0;bottom=1;html=1;" vertex="1" parent="6euiv2Yoazq27llBN2iV-0">
          <mxGeometry y="60" width="245" height="30" as="geometry" />
        </mxCell>
        <mxCell id="6euiv2Yoazq27llBN2iV-5" value="PK,FK2" style="shape=partialRectangle;connectable=0;fillColor=none;top=0;left=0;bottom=0;right=0;fontStyle=1;overflow=hidden;html=1;whiteSpace=wrap;" vertex="1" parent="6euiv2Yoazq27llBN2iV-4">
          <mxGeometry width="60" height="30" as="geometry">
            <mxRectangle width="60" height="30" as="alternateBounds" />
          </mxGeometry>
        </mxCell>
        <mxCell id="6euiv2Yoazq27llBN2iV-6" value="appointment_id: uuid" style="shape=partialRectangle;connectable=0;fillColor=none;top=0;left=0;bottom=0;right=0;align=left;spacingLeft=6;fontStyle=5;overflow=hidden;html=1;whiteSpace=wrap;" vertex="1" parent="6euiv2Yoazq27llBN2iV-4">
          <mxGeometry x="60" width="185" height="30" as="geometry">
            <mxRectangle width="185" height="30" as="alternateBounds" />
          </mxGeometry>
        </mxCell>
        <mxCell id="QO3xIGHiXsTZ708BZk-9-0" style="edgeStyle=orthogonalEdgeStyle;rounded=0;orthogonalLoop=1;jettySize=auto;html=1;entryX=1;entryY=0.5;entryDx=0;entryDy=0;" edge="1" parent="MW2m3GR90Z3l0uTpweqN-1" source="MW2m3GR90Z3l0uTpweqN-145" target="6euiv2Yoazq27llBN2iV-1">
          <mxGeometry relative="1" as="geometry" />
        </mxCell>
        <mxCell id="QO3xIGHiXsTZ708BZk-9-3" style="edgeStyle=orthogonalEdgeStyle;rounded=0;orthogonalLoop=1;jettySize=auto;html=1;entryX=1;entryY=0.5;entryDx=0;entryDy=0;" edge="1" parent="MW2m3GR90Z3l0uTpweqN-1" source="MW2m3GR90Z3l0uTpweqN-221" target="MW2m3GR90Z3l0uTpweqN-31">
          <mxGeometry relative="1" as="geometry" />
        </mxCell>
        <mxCell id="QO3xIGHiXsTZ708BZk-9-4" style="edgeStyle=orthogonalEdgeStyle;rounded=0;orthogonalLoop=1;jettySize=auto;html=1;" edge="1" parent="MW2m3GR90Z3l0uTpweqN-1" source="MW2m3GR90Z3l0uTpweqN-221" target="6euiv2Yoazq27llBN2iV-4">
          <mxGeometry relative="1" as="geometry" />
        </mxCell>
        <mxCell id="QO3xIGHiXsTZ708BZk-9-9" value="appointment_review" style="shape=table;startSize=30;container=1;collapsible=1;childLayout=tableLayout;fixedRows=1;rowLines=0;fontStyle=1;align=center;resizeLast=1;html=1;whiteSpace=wrap;" vertex="1" parent="MW2m3GR90Z3l0uTpweqN-1">
          <mxGeometry x="-1260" y="30" width="230" height="90" as="geometry" />
        </mxCell>
        <mxCell id="QO3xIGHiXsTZ708BZk-9-10" value="" style="shape=tableRow;horizontal=0;startSize=0;swimlaneHead=0;swimlaneBody=0;fillColor=none;collapsible=0;dropTarget=0;points=[[0,0.5],[1,0.5]];portConstraint=eastwest;top=0;left=0;right=0;bottom=0;html=1;" vertex="1" parent="QO3xIGHiXsTZ708BZk-9-9">
          <mxGeometry y="30" width="230" height="30" as="geometry" />
        </mxCell>
        <mxCell id="QO3xIGHiXsTZ708BZk-9-11" value="PK,FK1" style="shape=partialRectangle;connectable=0;fillColor=none;top=0;left=0;bottom=0;right=0;fontStyle=1;overflow=hidden;html=1;whiteSpace=wrap;" vertex="1" parent="QO3xIGHiXsTZ708BZk-9-10">
          <mxGeometry width="60" height="30" as="geometry">
            <mxRectangle width="60" height="30" as="alternateBounds" />
          </mxGeometry>
        </mxCell>
        <mxCell id="QO3xIGHiXsTZ708BZk-9-12" value="apppointment_id : uuid" style="shape=partialRectangle;connectable=0;fillColor=none;top=0;left=0;bottom=0;right=0;align=left;spacingLeft=6;fontStyle=5;overflow=hidden;html=1;whiteSpace=wrap;" vertex="1" parent="QO3xIGHiXsTZ708BZk-9-10">
          <mxGeometry x="60" width="170" height="30" as="geometry">
            <mxRectangle width="170" height="30" as="alternateBounds" />
          </mxGeometry>
        </mxCell>
        <mxCell id="QO3xIGHiXsTZ708BZk-9-13" value="" style="shape=tableRow;horizontal=0;startSize=0;swimlaneHead=0;swimlaneBody=0;fillColor=none;collapsible=0;dropTarget=0;points=[[0,0.5],[1,0.5]];portConstraint=eastwest;top=0;left=0;right=0;bottom=1;html=1;" vertex="1" parent="QO3xIGHiXsTZ708BZk-9-9">
          <mxGeometry y="60" width="230" height="30" as="geometry" />
        </mxCell>
        <mxCell id="QO3xIGHiXsTZ708BZk-9-14" value="PK,FK2" style="shape=partialRectangle;connectable=0;fillColor=none;top=0;left=0;bottom=0;right=0;fontStyle=1;overflow=hidden;html=1;whiteSpace=wrap;" vertex="1" parent="QO3xIGHiXsTZ708BZk-9-13">
          <mxGeometry width="60" height="30" as="geometry">
            <mxRectangle width="60" height="30" as="alternateBounds" />
          </mxGeometry>
        </mxCell>
        <mxCell id="QO3xIGHiXsTZ708BZk-9-15" value="review_id: uuid" style="shape=partialRectangle;connectable=0;fillColor=none;top=0;left=0;bottom=0;right=0;align=left;spacingLeft=6;fontStyle=5;overflow=hidden;html=1;whiteSpace=wrap;" vertex="1" parent="QO3xIGHiXsTZ708BZk-9-13">
          <mxGeometry x="60" width="170" height="30" as="geometry">
            <mxRectangle width="170" height="30" as="alternateBounds" />
          </mxGeometry>
        </mxCell>
      </root>
    </mxGraphModel>
  </diagram>
</mxfile>
